<svg width="10" height="16" viewBox="0 0 10 16" fill="none" xmlns="http://www.w3.org/2000/svg">
<g clip-path="url(#clip0_26_625)">
<path d="M9.045 15.1594C9.25591 14.9484 9.37439 14.6623 9.37439 14.364C9.37439 14.0657 9.25591 13.7796 9.045 13.5686L3.47625 7.99988L9.045 2.43113C9.24993 2.21896 9.36332 1.93478 9.36076 1.63981C9.3582 1.34484 9.23988 1.06267 9.0313 0.854087C8.82271 0.645503 8.54055 0.52719 8.24558 0.524626C7.95061 0.522063 7.66643 0.635457 7.45425 0.840385L1.09013 7.20451C0.879222 7.41548 0.760742 7.70157 0.760742 7.99988C0.760742 8.29819 0.879222 8.58429 1.09013 8.79526L7.45425 15.1594C7.66522 15.3703 7.95132 15.4888 8.24963 15.4888C8.54794 15.4888 8.83403 15.3703 9.045 15.1594Z" fill="white"/>
</g>
<defs>
<clipPath id="clip0_26_625">
<rect width="16" height="10" fill="white" transform="translate(0 16) rotate(-90)"/>
</clipPath>
</defs>
</svg>
