<svg width="82" height="96" viewBox="0 0 82 96" fill="none" xmlns="http://www.w3.org/2000/svg">
<path d="M47.0052 90.8008H9.54785V95.8111H47.0052V90.8008Z" fill="#090909"/>
<path d="M53.5903 58.6655C54.5902 58.6914 55.2588 57.6446 54.8148 56.7484L47.834 42.6616C47.6859 42.3066 47.5161 41.9631 47.3245 41.6333L47.3234 41.6314V41.6316C45.8841 39.1555 43.2683 37.436 40.2106 37.2642L20.4357 36.1524L20.4293 36.1436L20.2822 36.1464L20.2505 36.1452C20.2291 36.1452 20.2082 36.1481 20.1866 36.1483L16.9103 36.2107C11.1851 36.3197 6.02462 40.0266 4.44229 45.5299C4.37842 45.7518 4.32032 45.9764 4.26779 46.2035L0.167139 60.1166C-0.114301 61.0713 0.571373 62.038 1.56548 62.0881L11.4165 62.5846L8.24564 88.9031C8.1214 89.9345 8.92657 90.8427 9.96559 90.8427H47.2835C48.1276 90.8427 48.8083 90.1521 48.796 89.3082L48.7822 58.5295L53.5903 58.6655Z" fill="#262262"/>
<path d="M47.283 90.9455H9.96509C9.44033 90.9455 8.93967 90.7203 8.59168 90.3278C8.2439 89.9353 8.08031 89.4116 8.14295 88.8907L11.3004 62.6819L1.55962 62.1907C1.05422 62.1653 0.596215 61.9138 0.303445 61.5009C0.0104676 61.088 -0.0754479 60.5727 0.0679501 60.0871L4.16839 46.1742C4.21949 45.9523 4.27862 45.7238 4.34269 45.5013C5.90091 40.0812 11.068 36.2186 16.9077 36.1075L20.2094 36.0438C20.2228 36.043 20.2362 36.042 20.2498 36.042L20.2854 36.0432L20.4268 36.0403C20.4416 36.0387 20.4601 36.044 20.475 36.0513L40.2157 37.1609C43.2114 37.3293 45.9017 38.9812 47.4122 41.5795C47.6046 41.9108 47.7779 42.2608 47.9287 42.6216L54.9068 56.7026C55.1315 57.1561 55.1029 57.6815 54.8305 58.108C54.5582 58.5345 54.089 58.785 53.5875 58.7681H53.5871L48.8847 58.6348L48.8985 89.3073C48.9046 89.7416 48.7396 90.1527 48.4337 90.4632C48.1279 90.7745 47.7191 90.9455 47.283 90.9455ZM20.2463 36.248L20.2242 36.2495C20.2119 36.2503 20.1997 36.2511 20.1871 36.2513L16.9119 36.3137C11.1615 36.4231 6.07418 40.2246 4.54069 45.5584C4.47764 45.7776 4.41954 46.0024 4.36762 46.2267L0.265534 60.1458C0.140473 60.5705 0.215469 61.021 0.471567 61.3822C0.727458 61.7432 1.12819 61.963 1.57013 61.9855L11.4211 62.482C11.4498 62.4835 11.4763 62.4966 11.4947 62.5185C11.513 62.5405 11.5215 62.5688 11.518 62.5972L8.34712 88.9157C8.29129 89.378 8.43675 89.843 8.74579 90.1912C9.05464 90.5398 9.49905 90.7397 9.96488 90.7397H47.2828C47.6633 90.7397 48.0199 90.5903 48.287 90.3196C48.554 90.0484 48.698 89.6899 48.6924 89.3096L48.6786 58.5295C48.6786 58.5017 48.69 58.4749 48.7097 58.4558C48.7297 58.4362 48.7549 58.4253 48.7845 58.4265L53.5927 58.5627C54.0266 58.5808 54.4236 58.3628 54.6568 57.9977C54.8901 57.6327 54.9144 57.1829 54.7219 56.7945L47.7412 42.7075C47.591 42.3488 47.4216 42.007 47.2348 41.6852C45.7583 39.145 43.1302 37.5316 40.2039 37.367L20.429 36.2552C20.4171 36.2546 20.4055 36.2517 20.3946 36.2474L20.2836 36.2495L20.2463 36.248Z" fill="#090909"/>
<path d="M59.5161 45.9189C60.7249 43.7033 61.137 41.0255 60.0503 38.6761L58.6592 39.1832C58.6592 39.1832 57.3274 35.3468 57.1123 32.5454C56.5777 31.5923 52.7092 33.6026 52.7092 33.6026C52.7092 33.6026 53.0933 32.557 53.2853 32.0341C53.4888 31.4798 53.6955 30.8891 53.5737 30.3114C53.452 29.7337 52.8592 29.2143 52.298 29.3979C51.7458 29.5786 50.6998 31.8674 50.3702 32.4059C48.3859 35.6483 48.4102 39.8898 48.7588 43.5556C48.9446 45.5094 48.0605 65.6273 48.3978 66.5207C50.4346 71.9135 58.0246 72.0231 60.2143 66.6904C60.4929 65.6411 60.6526 64.5685 60.6932 63.4926C60.7482 62.0378 58.3374 49.0259 58.3001 48.5844C58.2478 47.9653 58.5412 47.4205 58.8809 46.9021C59.1001 46.5677 59.3387 46.2443 59.5161 45.9189Z" fill="#F8EEE2"/>
<path d="M54.3484 70.7316C54.315 70.7316 54.2819 70.7313 54.2485 70.7309C51.5381 70.6922 49.2594 69.093 48.3018 66.5574C48.1225 66.0822 48.2505 61.2032 48.466 53.8139C48.6069 48.9925 48.7396 44.4384 48.6566 43.5657C48.3286 40.1179 48.2171 35.7276 50.2828 32.3524C50.3621 32.223 50.488 31.9815 50.6341 31.702C51.2538 30.515 51.8449 29.4381 52.2667 29.3003C52.5108 29.2197 52.7819 29.2547 53.0294 29.3977C53.3508 29.5831 53.598 29.9251 53.6751 30.2904C53.8067 30.9143 53.5717 31.5551 53.3827 32.0699L52.8969 33.3925C53.8039 32.9412 56.6972 31.5934 57.2028 32.4952C57.21 32.5084 57.2145 32.5228 57.2157 32.5378C57.4082 35.0454 58.5154 38.4314 58.7233 39.0505L60.0157 38.5795C60.0654 38.5612 60.122 38.5844 60.1445 38.6331C61.1547 40.8174 60.9589 43.4911 59.6072 45.9686C59.4811 46.2002 59.322 46.434 59.1683 46.6601C59.1011 46.7587 59.0336 46.8583 58.9676 46.9588C58.5949 47.5277 58.3565 48.0203 58.4035 48.576C58.413 48.6884 58.5935 49.7104 58.8434 51.1248C59.5404 55.0711 60.8376 62.4171 60.797 63.4965C60.756 64.5827 60.5938 65.6665 60.3149 66.717C59.2934 69.2051 57.0151 70.7316 54.3484 70.7316ZM52.5341 29.4632C52.4692 29.4632 52.401 29.4727 52.3303 29.4958C51.9537 29.619 51.2138 31.0359 50.8164 31.7971C50.6625 32.0918 50.5409 32.3246 50.4583 32.4597C48.4246 35.783 48.5367 40.1301 48.8616 43.5459C48.9456 44.4312 48.8127 48.9915 48.6718 53.8197C48.5049 59.5346 48.316 66.012 48.4944 66.4844C49.4216 68.9391 51.6273 70.4874 54.2512 70.5247C56.8762 70.5529 59.123 69.0777 60.1193 66.6513C60.3901 65.6279 60.55 64.5597 60.5903 63.4885C60.6303 62.431 59.3356 55.0991 58.6398 51.1602C58.3798 49.6875 58.208 48.7148 58.1977 48.5928C58.1427 47.9424 58.4521 47.3686 58.7948 46.8455C58.8611 46.7441 58.9293 46.6438 58.9971 46.5439C59.1551 46.3117 59.3041 46.0924 59.4256 45.8697C60.7278 43.4826 60.9338 40.914 59.9959 38.8055L58.6944 39.28C58.6689 39.2891 58.64 39.2883 58.6149 39.2763C58.59 39.2644 58.5708 39.2431 58.5617 39.217C58.5486 39.1784 57.231 35.3582 57.0116 32.5778C56.6203 31.984 54.2038 32.9423 52.7568 33.6941C52.7195 33.7134 52.6732 33.7081 52.6412 33.6801C52.6093 33.6518 52.598 33.6071 52.6124 33.5672L53.1887 31.9986C53.3685 31.5085 53.5925 30.8989 53.473 30.3327C53.4087 30.0277 53.194 29.7307 52.926 29.5759C52.8281 29.5193 52.6913 29.4632 52.5341 29.4632Z" fill="#090909"/>
<path d="M51.9414 35.7531L55.5424 39.3416L58.233 34.1147L57.659 31.7402L52.7692 33.5562L51.9414 35.7531Z" fill="#FFEFDB"/>
<path d="M57.6558 41.1721C56.6924 41.3384 55.7766 40.6922 55.6103 39.7288L53.9841 30.3089C53.8178 29.3455 54.4639 28.4297 55.4273 28.2634C56.3907 28.0971 57.3066 28.7432 57.4728 29.7066L59.099 39.1266C59.2653 40.09 58.6192 41.0056 57.6558 41.1721Z" fill="#FF8D1D"/>
<mask id="path-8-inside-1_2646_1573" fill="white">
<path d="M57.3506 41.3009C56.9676 41.3009 56.5942 41.1833 56.2747 40.9579C55.8659 40.6694 55.5938 40.239 55.5085 39.746L53.8822 30.3262C53.7972 29.8332 53.9092 29.3364 54.1977 28.9277C54.4859 28.5189 54.9163 28.2467 55.4096 28.1617C55.9024 28.0764 56.3993 28.1884 56.8081 28.4769C57.2169 28.7653 57.489 29.1957 57.5741 29.6888L59.2003 39.1087C59.3759 40.1265 58.6906 41.0976 57.673 41.2731C57.5657 41.2916 57.4575 41.3009 57.3506 41.3009ZM55.7318 28.3399C55.6364 28.3399 55.5406 28.3481 55.4448 28.3646C55.0059 28.4404 54.6229 28.6825 54.3662 29.0464C54.1095 29.4102 54.01 29.8523 54.0858 30.2912L55.712 39.711C55.7876 40.1498 56.0299 40.5328 56.3938 40.7895C56.7578 41.0462 57.1991 41.146 57.6386 41.0701C58.5443 40.9138 59.154 40.0497 58.9978 39.1438L57.3716 29.7238C57.296 29.2849 57.0539 28.9019 56.69 28.6452C56.4051 28.4445 56.0728 28.3399 55.7318 28.3399Z"/>
</mask>
<path d="M56.2747 40.9579L55.9709 41.3884L55.9709 41.3885L56.2747 40.9579ZM55.5085 39.746L54.9892 39.8356L54.9892 39.8358L55.5085 39.746ZM53.8822 30.3262L53.3629 30.4158L53.3629 30.4159L53.8822 30.3262ZM54.1977 28.9277L54.6283 29.2315L54.6284 29.2314L54.1977 28.9277ZM55.4096 28.1617L55.4991 28.681L55.4994 28.6809L55.4096 28.1617ZM57.5741 29.6888L57.0548 29.7784L57.0548 29.7784L57.5741 29.6888ZM59.2003 39.1087L59.7197 39.0192L59.7196 39.0191L59.2003 39.1087ZM57.673 41.2731L57.5834 40.7538L57.5833 40.7538L57.673 41.2731ZM55.4448 28.3646L55.3554 27.8452L55.3551 27.8453L55.4448 28.3646ZM54.0858 30.2912L54.6051 30.2015L54.6051 30.2015L54.0858 30.2912ZM55.712 39.711L56.2313 39.6215L56.2313 39.6213L55.712 39.711ZM56.3938 40.7895L56.09 41.2201L56.0901 41.2202L56.3938 40.7895ZM57.6386 41.0701L57.7282 41.5895L57.7283 41.5894L57.6386 41.0701ZM58.9978 39.1438L59.5171 39.0542L59.5171 39.0541L58.9978 39.1438ZM57.3716 29.7238L56.8523 29.8133L56.8523 29.8134L57.3716 29.7238ZM56.69 28.6452L56.9938 28.2146L56.9935 28.2144L56.69 28.6452ZM57.3506 40.7739C57.0768 40.7739 56.8095 40.6902 56.5784 40.5272L55.9709 41.3885C56.379 41.6763 56.8583 41.8279 57.3506 41.8279V40.7739ZM56.5785 40.5273C56.2839 40.3194 56.0892 40.0115 56.0277 39.6561L54.9892 39.8358C55.0983 40.4665 55.448 41.0195 55.9709 41.3884L56.5785 40.5273ZM56.0278 39.6563L54.4015 30.2366L53.3629 30.4159L54.9892 39.8356L56.0278 39.6563ZM54.4015 30.2366C54.3402 29.8813 54.4204 29.5261 54.6283 29.2315L53.7671 28.6238C53.3981 29.1468 53.2541 29.785 53.3629 30.4158L54.4015 30.2366ZM54.6284 29.2314C54.836 28.9369 55.1437 28.7423 55.4991 28.681L55.32 27.6423C54.6889 27.7512 54.1358 28.1009 53.767 28.624L54.6284 29.2314ZM55.4994 28.6809C55.8543 28.6195 56.2097 28.6996 56.5043 28.9075L57.1119 28.0463C56.589 27.6773 55.9504 27.5332 55.3197 27.6424L55.4994 28.6809ZM56.5043 28.9075C56.7989 29.1154 56.9935 29.4232 57.0548 29.7784L58.0934 29.5991C57.9846 28.9683 57.6348 28.4153 57.1119 28.0463L56.5043 28.9075ZM57.0548 29.7784L58.681 39.1984L59.7196 39.0191L58.0934 29.5991L57.0548 29.7784ZM58.681 39.1983C58.8071 39.9294 58.3142 40.6277 57.5834 40.7538L57.7626 41.7924C59.0671 41.5674 59.9446 40.3237 59.7197 39.0192L58.681 39.1983ZM57.5833 40.7538C57.5053 40.7673 57.4272 40.7739 57.3506 40.7739V41.8279C57.4879 41.8279 57.626 41.816 57.7627 41.7924L57.5833 40.7538ZM55.7318 27.8129C55.606 27.8129 55.4803 27.8238 55.3554 27.8452L55.5341 28.8839C55.6009 28.8725 55.6668 28.8669 55.7318 28.8669V27.8129ZM55.3551 27.8453C54.7786 27.9449 54.2729 28.2645 53.9356 28.7425L54.7968 29.3502C54.9729 29.1005 55.2333 28.9359 55.5345 28.8839L55.3551 27.8453ZM53.9356 28.7425C53.5982 29.2207 53.4669 29.8044 53.5665 30.3809L54.6051 30.2015C54.5531 29.9002 54.6208 29.5997 54.7968 29.3502L53.9356 28.7425ZM53.5665 30.3808L55.1927 39.8006L56.2313 39.6213L54.6051 30.2015L53.5665 30.3808ZM55.1927 39.8004C55.2921 40.3773 55.612 40.8829 56.09 41.2201L56.6976 40.3589C56.4478 40.1827 56.2832 39.9223 56.2313 39.6215L55.1927 39.8004ZM56.0901 41.2202C56.5682 41.5573 57.1509 41.6891 57.7282 41.5895L57.549 40.5508C57.2474 40.6029 56.9475 40.5352 56.6975 40.3589L56.0901 41.2202ZM57.7283 41.5894C58.9208 41.3835 59.7227 40.2468 59.5171 39.0542L58.4785 39.2333C58.5852 39.8526 58.1678 40.444 57.549 40.5509L57.7283 41.5894ZM59.5171 39.0541L57.8909 29.6341L56.8523 29.8134L58.4785 39.2334L59.5171 39.0541ZM57.8909 29.6343C57.7916 29.0576 57.4719 28.5519 56.9938 28.2146L56.3862 29.0758C56.6359 29.2519 56.8004 29.5123 56.8523 29.8133L57.8909 29.6343ZM56.9935 28.2144C56.6202 27.9515 56.182 27.8129 55.7318 27.8129V28.8669C55.9635 28.8669 56.19 28.9376 56.3866 29.0761L56.9935 28.2144Z" fill="#FF7500" mask="url(#path-8-inside-1_2646_1573)"/>
<path d="M57.3768 29.7428L54.1131 30.3063C53.4297 30.4243 52.7798 29.9659 52.6618 29.2823L52.5361 28.5548C52.4181 27.8714 52.8765 27.2216 53.5601 27.1035L56.8238 26.54C57.5074 26.422 58.1571 26.8804 58.2751 27.564L58.4008 28.2915C58.5189 28.9749 58.0604 29.6247 57.3768 29.7428Z" fill="#F69E45"/>
<path d="M48.5542 25.3896L47.6034 25.5538C47.1388 25.634 46.6972 25.3224 46.6171 24.8578L46.5868 24.6827C46.5066 24.2181 46.8182 23.7766 47.2828 23.6964L48.2336 23.5322L48.5542 25.3896Z" fill="#FAB159"/>
<path d="M56.4127 18.3269L58.0051 27.5503L53.2773 28.3664C50.984 28.7624 48.8041 27.2241 48.4081 24.931L48.1485 24.9758L48.4081 24.931L48.2495 24.0123C48.2495 24.0123 48.2495 24.0123 48.2495 24.0123C47.8535 21.719 49.3916 19.5391 51.6849 19.1431C51.6849 19.1431 51.6849 19.1431 51.6849 19.1431L56.4127 18.3269Z" fill="#FF7500" stroke="#FF7500" stroke-width="0.526981"/>
<path d="M56.6279 18.0223L58.3098 27.7647C62.1708 27.0982 66.1497 27.6701 69.707 29.4032L77.5807 33.2394L72.9481 6.40332L66.8162 12.6572C64.0457 15.4827 60.489 17.3558 56.6279 18.0223Z" fill="#FAB159"/>
<path d="M77.8828 33.2543C79.6898 32.9424 80.1127 26.653 78.8273 19.2067C77.5419 11.7604 75.035 5.97678 73.228 6.28871C71.4209 6.60065 70.9981 12.89 72.2835 20.3363C73.5688 27.7827 76.0758 33.5662 77.8828 33.2543Z" fill="#F69E45"/>
<path d="M77.4262 30.3499C78.8785 30.0992 79.2184 25.0445 78.1853 19.06C77.1522 13.0754 75.1375 8.42723 73.6852 8.67792C72.233 8.92861 71.8931 13.9833 72.9262 19.9678C73.9592 25.9524 75.974 30.6006 77.4262 30.3499Z" fill="#FAB159"/>
<mask id="mask0_2646_1573" style="mask-type:luminance" maskUnits="userSpaceOnUse" x="72" y="8" width="7" height="23">
<path d="M77.4262 30.3499C78.8785 30.0992 79.2184 25.0445 78.1853 19.06C77.1522 13.0754 75.1375 8.42723 73.6852 8.67792C72.233 8.92861 71.8931 13.9833 72.9262 19.9678C73.9592 25.9524 75.974 30.6006 77.4262 30.3499Z" fill="white"/>
</mask>
<g mask="url(#mask0_2646_1573)">
<path d="M69.9541 18.0788L73.4457 17.4761C74.8717 17.2299 76.2274 18.1863 76.4736 19.6125C76.7198 21.0384 75.7634 22.3941 74.3372 22.6403L70.8456 23.2432L69.9541 18.0788Z" fill="#FF7500" stroke="#FF7500" stroke-width="0.526981" stroke-miterlimit="10" stroke-linecap="round" stroke-linejoin="round"/>
</g>
<path d="M61.2719 33.4562L61.2844 33.4959C61.4828 34.1208 61.134 34.7946 60.5089 34.993L56.9522 36.1226C56.3273 36.321 55.6536 35.9722 55.4552 35.3471L55.4424 35.3074C55.244 34.6825 55.5928 34.0087 56.2179 33.8103L59.7746 32.6807C60.3995 32.4823 61.0733 32.8313 61.2719 33.4562Z" fill="#F8EEE2"/>
<path d="M56.5924 36.2815C56.3876 36.2815 56.1841 36.2323 55.9962 36.135C55.6881 35.9756 55.4609 35.7067 55.3568 35.3783L55.3441 35.3385C55.1279 34.6578 55.5058 33.9282 56.1865 33.7119L59.7435 32.5824C60.4246 32.3661 61.1537 32.7442 61.3701 33.4249L61.3826 33.4647C61.5988 34.1454 61.2209 34.8749 60.5402 35.0913L56.9833 36.2207C56.8551 36.2613 56.7237 36.2815 56.5924 36.2815ZM60.1347 32.7273C60.0257 32.7273 59.9151 32.7437 59.8057 32.7786L56.2487 33.908C55.6764 34.0897 55.3587 34.7033 55.5404 35.2759L55.5532 35.3156C55.6407 35.5917 55.8317 35.8177 56.0909 35.9519C56.3503 36.0862 56.6449 36.1117 56.9208 36.0242L60.4778 34.8947C61.0501 34.713 61.3678 34.0994 61.1863 33.5269L61.1737 33.4871C61.0264 33.0237 60.5966 32.7273 60.1347 32.7273Z" fill="#090909"/>
<path d="M60.5689 31.0529L60.5815 31.0926C60.7799 31.7175 60.4311 32.3913 59.806 32.5899L56.2493 33.7195C55.6244 33.9179 54.9507 33.5691 54.7521 32.944L54.7393 32.9041C54.5409 32.2792 54.8897 31.6054 55.5148 31.407L59.0715 30.2774C59.6968 30.079 60.3705 30.4278 60.5689 31.0529Z" fill="#F8EEE2"/>
<path d="M55.8902 33.8784C55.6854 33.8786 55.482 33.8291 55.2941 33.7319C54.9861 33.5724 54.7589 33.3036 54.6546 32.9751L54.642 32.9352C54.5376 32.6068 54.5681 32.2563 54.7277 31.9483C54.8872 31.6403 55.1559 31.4132 55.4845 31.3088L59.0412 30.1791C59.7219 29.9628 60.4517 30.341 60.6678 31.0215L60.6804 31.0613C60.7849 31.3897 60.7544 31.7404 60.5949 32.0484C60.4354 32.3564 60.1666 32.5835 59.8379 32.6879L56.2812 33.8176C56.1529 33.8584 56.0212 33.8784 55.8902 33.8784ZM59.4323 30.3243C59.3233 30.3243 59.2126 30.3408 59.1032 30.3754L55.5465 31.5051C55.2704 31.5927 55.0446 31.7837 54.9103 32.0428C54.776 32.302 54.7504 32.5967 54.838 32.8727L54.8507 32.9127C54.9383 33.1888 55.1293 33.4146 55.3885 33.5489C55.6481 33.6833 55.9427 33.7088 56.2184 33.6213L59.7751 32.4916C60.0512 32.404 60.2772 32.2128 60.4113 31.9538C60.5457 31.6947 60.5712 31.4 60.4836 31.1239L60.4711 31.0842C60.324 30.6208 59.8942 30.3243 59.4323 30.3243Z" fill="#090909"/>
<path d="M61.2841 35.9185L61.2876 35.9292C61.4837 36.5462 61.1391 37.2115 60.522 37.4077L58.0956 38.1782C57.4785 38.3742 56.813 38.0297 56.6171 37.4124L56.6136 37.4017C56.4176 36.7846 56.7623 36.1193 57.3794 35.9232L59.8054 35.1526C60.4225 34.9567 61.088 35.3012 61.2841 35.9185Z" fill="#F8EEE2"/>
<path d="M57.74 38.3362C57.1969 38.3362 56.6917 37.9878 56.5188 37.4433C56.3017 36.7597 56.6754 36.0384 57.3481 35.8247L59.7739 35.0544C60.0986 34.9511 60.4456 34.9814 60.7497 35.139C61.0544 35.2966 61.2788 35.5624 61.3818 35.8871L61.3853 35.8974C61.4885 36.2226 61.4584 36.5689 61.3008 36.8734C61.143 37.1779 60.8774 37.4023 60.5527 37.5055L58.1265 38.2761C57.9983 38.3169 57.8681 38.3362 57.74 38.3362ZM60.1604 35.2002C60.0519 35.2002 59.9427 35.2169 59.8366 35.2507L57.4107 36.0211C56.8462 36.2003 56.5326 36.8056 56.7119 37.3702C56.8946 37.9454 57.5 38.2588 58.0643 38.0797L60.4905 37.3092C60.7627 37.2228 60.9856 37.0343 61.1181 36.7786C61.2506 36.523 61.2757 36.2322 61.1892 35.9601L61.1857 35.9494C61.0991 35.677 60.9108 35.4543 60.6551 35.3218C60.4994 35.2412 60.3304 35.2002 60.1604 35.2002Z" fill="#090909"/>
<path d="M61.9466 38.1964L61.9591 38.2362C62.1576 38.8611 61.8087 39.5348 61.1836 39.7332L59.9825 40.1148C59.3576 40.3132 58.6839 39.9644 58.4852 39.3393L58.4727 39.2995C58.2743 38.6746 58.6231 38.0009 59.248 37.8025L60.4491 37.4209C61.0744 37.2225 61.748 37.5715 61.9466 38.1964Z" fill="#F8EEE2"/>
<path d="M59.6226 40.2741C59.4178 40.2741 59.2144 40.2248 59.0263 40.1276C58.7183 39.9681 58.4911 39.6992 58.387 39.3708L58.3745 39.3308C58.27 39.0024 58.3005 38.652 58.4602 38.3437C58.6196 38.0357 58.8883 37.8087 59.2169 37.7042L60.4179 37.3227C61.0988 37.1063 61.8284 37.4844 62.0447 38.1651L62.0449 38.1655L62.0575 38.2053C62.1617 38.5333 62.1312 38.884 61.9718 39.192C61.8123 39.5 61.5436 39.7273 61.215 39.8315L60.0138 40.2131C59.8853 40.2539 59.7538 40.2741 59.6226 40.2741ZM60.8091 37.4681C60.7001 37.4681 60.5895 37.4846 60.4801 37.5194L59.2791 37.901C59.0031 37.9885 58.777 38.1797 58.6429 38.4387C58.5086 38.6979 58.483 38.9927 58.5706 39.2686L58.5832 39.3086C58.6707 39.5847 58.8619 39.8105 59.1209 39.9448C59.3805 40.0792 59.6751 40.1047 59.9508 40.0171L61.152 39.6356C61.4281 39.548 61.6539 39.3568 61.7882 39.0978C61.9223 38.8386 61.9479 38.544 61.8603 38.2679L61.8477 38.2282C61.701 37.7646 61.2711 37.4681 60.8091 37.4681Z" fill="#090909"/>
<path d="M52.656 33.8061C52.656 33.8061 53.094 32.5577 53.2862 32.035C53.4898 31.4808 53.6964 30.8901 53.5747 30.3124C53.4529 29.7347 52.8602 29.2153 52.2989 29.3989C51.7468 29.5796 50.7007 31.8684 50.3711 32.4069" fill="#F8EEE2"/>
<path d="M52.7526 33.8397L52.5583 33.7715C52.5583 33.7715 52.997 32.5222 53.1892 31.9991C53.3691 31.5089 53.593 30.8993 53.4735 30.3331C53.4093 30.0282 53.1946 29.7311 52.9265 29.5763C52.7881 29.4962 52.5724 29.4177 52.3307 29.4962C51.9541 29.6194 51.2142 31.0363 50.8168 31.7976C50.6629 32.0922 50.5413 32.325 50.4587 32.4602C50.4286 32.5088 50.3647 32.5234 50.3169 32.4942C50.2683 32.4645 50.2531 32.401 50.2827 32.3524C50.362 32.223 50.4879 31.9815 50.634 31.702C51.2537 30.515 51.8449 29.4381 52.2666 29.3003C52.5107 29.2197 52.7819 29.2547 53.0293 29.3977C53.3507 29.5831 53.598 29.9251 53.675 30.2904C53.8067 30.9143 53.5716 31.5551 53.3827 32.0699C53.1904 32.5924 52.7526 33.8397 52.7526 33.8397Z" fill="#090909"/>
<path d="M51.6811 37.2411C51.6807 37.2411 51.6803 37.2411 51.6799 37.2411C51.623 37.2405 51.5775 37.1937 51.5781 37.1368C51.5907 36.0037 52.522 33.855 52.5615 33.7639C52.5844 33.7118 52.6452 33.6883 52.6971 33.7105C52.7492 33.7332 52.7729 33.794 52.7502 33.8461C52.7408 33.8679 51.7963 36.0473 51.7842 37.1391C51.7835 37.1958 51.7374 37.2411 51.6811 37.2411Z" fill="#090909"/>
<path d="M44.5629 10.3249C44.611 10.2591 44.6536 10.1901 44.6831 10.1133C45.2387 9.48466 45.6083 8.68175 45.6918 7.7818C45.9013 5.52267 44.2397 3.52128 41.9805 3.31174C41.79 3.29402 41.6023 3.29423 41.4162 3.30268C39.4239 1.58231 38.0346 -0.278976 34.5418 0.170585C33.1954 0.343858 31.9439 1.03777 31.1781 2.15879C31.0716 2.31476 30.978 2.48247 30.8927 2.65491C30.8241 2.79378 29.0426 2.99363 28.8056 3.05935C27.1411 3.52004 25.012 4.20571 24.1813 5.85438C23.8139 6.58352 23.6979 7.40538 23.6674 8.22683C22.4121 9.22341 21.9007 10.9868 22.4075 12.5832L23.7163 16.7059C23.9903 16.637 24.2754 16.5965 24.57 16.5965H26.2389C26.3411 16.7706 26.4433 16.9457 26.5438 17.1233C27.0618 18.0387 27.3972 19.0122 27.3574 20.0767C29.516 17.0584 39.8483 17.8454 42.1415 17.8454C44.4346 17.8454 46.2936 15.9864 46.2936 13.6933C46.2934 12.3046 45.6094 11.0787 44.5629 10.3249Z" fill="#090909"/>
<path d="M27.357 20.1797C27.3458 20.1797 27.3347 20.1778 27.3238 20.1741C27.2807 20.1595 27.2523 20.1183 27.254 20.0727C27.2892 19.1357 27.0271 18.1873 26.4535 17.1737C26.3633 17.014 26.2714 16.8562 26.1795 16.6992H24.5698C24.3009 16.6992 24.0223 16.735 23.7409 16.8055C23.6878 16.8187 23.6342 16.7886 23.6175 16.7367L22.3088 12.6138C21.7921 10.9857 22.297 9.20869 23.5658 8.17544C23.5917 7.54024 23.6779 6.6232 24.0889 5.80752C24.8864 4.22437 26.8139 3.50305 28.7778 2.95954C28.8616 2.93626 29.1023 2.90082 29.407 2.85591C29.8522 2.79039 30.6726 2.66925 30.8082 2.59281C30.9022 2.40408 30.9953 2.24276 31.0927 2.10019C31.8499 0.992353 33.102 0.25167 34.5285 0.0678899C37.577 -0.324188 39.0824 1.04736 40.6746 2.50009C40.9258 2.72899 41.185 2.96552 41.4526 3.19772C41.6539 3.1903 41.8264 3.1936 41.9895 3.20884C43.1097 3.31268 44.1224 3.84651 44.8408 4.71205C45.5592 5.57759 45.898 6.671 45.7941 7.79119C45.7119 8.67733 45.3586 9.49878 44.7718 10.1678C44.7537 10.2119 44.7314 10.2553 44.7034 10.3007C45.7653 11.104 46.3964 12.3647 46.3964 13.693C46.3964 16.0393 44.4875 17.9481 42.1412 17.9481C41.8377 17.9481 41.4026 17.9347 40.8514 17.9176C37.3897 17.8101 29.2836 17.56 27.4408 20.1364C27.421 20.1642 27.3895 20.1797 27.357 20.1797ZM24.5698 16.4933H26.2386C26.2753 16.4933 26.3091 16.5127 26.3276 16.5442C26.43 16.7187 26.5324 16.8943 26.6332 17.0723C27.166 18.0139 27.4386 18.9041 27.4618 19.7835C29.6517 17.3657 37.1814 17.5983 40.858 17.7118C41.4073 17.7289 41.841 17.7421 42.1414 17.7421C44.3741 17.7421 46.1905 15.9257 46.1905 13.693C46.1905 12.3974 45.5595 11.1697 44.5029 10.4084C44.4807 10.3923 44.4656 10.368 44.4613 10.3408C44.457 10.3138 44.4638 10.286 44.4801 10.264C44.5301 10.1956 44.5641 10.1358 44.587 10.0763C44.5913 10.0648 44.5979 10.0542 44.6059 10.045C45.1707 9.40648 45.5108 8.62067 45.5893 7.77224C45.688 6.70705 45.3662 5.667 44.6828 4.84391C43.9996 4.02081 43.0364 3.51315 41.9712 3.41446C41.806 3.39901 41.6313 3.39654 41.4211 3.4056C41.3939 3.40787 41.3694 3.39798 41.349 3.38067C41.0684 3.13817 40.7976 2.89135 40.5362 2.65276C38.9125 1.1716 37.511 -0.107855 34.5551 0.272891C33.187 0.448842 31.9873 1.15759 31.2633 2.21701C31.1686 2.35546 31.0777 2.51369 30.9852 2.70056C30.9318 2.80852 30.7114 2.87219 29.4373 3.06009C29.1635 3.10047 28.9047 3.13858 28.8332 3.15857C26.9148 3.68951 25.0348 4.38899 24.2731 5.90064C23.9663 6.50967 23.8064 7.24995 23.7704 8.23066C23.7691 8.26074 23.7551 8.28876 23.7314 8.30751C22.5022 9.28348 22.0098 10.9892 22.5057 12.552L23.7856 16.5836C24.0508 16.5236 24.3145 16.4933 24.5698 16.4933Z" fill="#090909"/>
<path d="M36.4088 10.7338C35.9794 10.5049 35.5494 10.2475 35.0679 10.1771C33.8793 10.0034 32.7906 11.0014 31.5901 10.9689C30.7264 10.9454 29.912 10.3223 29.6631 9.49512C30.3702 13.138 29.5162 17.0573 27.3576 20.0759C27.3974 19.0111 27.0619 18.0378 26.544 17.1224C26.4434 16.9448 26.3412 16.7699 26.239 16.5956H24.5702C24.2754 16.5956 23.9904 16.6362 23.7164 16.705C22.1823 17.0901 21.0361 18.4808 21.0361 20.1296V20.4745C21.0361 22.4182 22.6265 24.0088 24.5702 24.0088H25.5132L24.569 35.8072C24.2929 39.2568 26.8654 42.277 30.315 42.5531L30.9244 42.6019C34.374 42.878 37.3942 40.3055 37.6703 36.8557L38.0261 32.4116C41.144 32.3599 43.6565 29.8203 43.6565 26.6901V12.8806C43.6565 12.2798 43.5589 11.7032 43.3862 11.1594C43.1079 11.3282 42.8135 11.4683 42.5083 11.5732C40.5111 12.259 38.2721 11.7273 36.4088 10.7338Z" fill="#F8EEE2"/>
<path d="M31.4354 42.7252C31.2632 42.7252 31.0903 42.7184 30.9166 42.7044L30.3072 42.6555C28.6116 42.5198 27.07 41.7319 25.9669 40.4368C24.8639 39.1417 24.3311 37.4944 24.4668 35.7986L25.402 24.1115H24.5707C22.5652 24.1115 20.9336 22.4799 20.9336 20.4744V20.1295C20.9336 18.4619 22.0678 17.0124 23.6917 16.6049C23.9895 16.5301 24.2853 16.4924 24.5709 16.4924H26.2397C26.2764 16.4924 26.3102 16.5118 26.3287 16.5433C26.4311 16.7178 26.5335 16.8934 26.6343 17.0714C27.1599 18.0002 27.432 18.8789 27.4617 19.7465C29.4551 16.8023 30.2398 13.0031 29.5626 9.51433C29.5521 9.46056 29.5857 9.40781 29.639 9.39463C29.693 9.38144 29.7468 9.41255 29.7625 9.46488C29.9998 10.254 30.7702 10.843 31.5937 10.8653C32.1423 10.8803 32.6749 10.6685 33.1947 10.4639C33.8007 10.2253 34.4268 9.97893 35.0838 10.0747C35.5274 10.1394 35.9249 10.3543 36.3091 10.5622L36.4583 10.6424C37.6936 11.3012 40.1182 12.2855 42.4761 11.4755C42.7684 11.3752 43.0569 11.2392 43.3338 11.0713C43.3614 11.0548 43.3941 11.0522 43.4236 11.0629C43.4531 11.074 43.4759 11.0981 43.4856 11.1282C43.6684 11.7026 43.7609 12.292 43.7609 12.8805V26.6897C43.7609 29.8177 41.2403 32.41 38.1228 32.512L37.7744 36.8636C37.6388 38.5594 36.851 40.1008 35.5557 41.2041C34.3924 42.1944 32.9459 42.7252 31.4354 42.7252ZM24.5707 16.6984C24.3018 16.6984 24.0232 16.7343 23.7418 16.8048C22.2098 17.1894 21.1394 18.5564 21.1394 20.1295V20.4744C21.1394 22.3664 22.6787 23.9054 24.5705 23.9054H25.5135C25.5423 23.9054 25.5695 23.9174 25.5891 23.9386C25.6087 23.9596 25.6185 23.988 25.6161 24.0167L24.6718 35.8151C24.5406 37.4559 25.0561 39.05 26.1235 40.3031C27.1912 41.5562 28.6826 42.3187 30.3237 42.4499L30.9331 42.4988C32.5736 42.631 34.1678 42.1147 35.4211 41.0473C36.6742 39.9798 37.4367 38.4881 37.5682 36.8471L37.924 32.403C37.9281 32.3503 37.9718 32.3093 38.0249 32.3082C41.0736 32.2575 43.554 29.7372 43.554 26.6897V12.8807C43.554 12.3557 43.4774 11.8295 43.3263 11.3146C43.0719 11.4599 42.8086 11.5794 42.5422 11.6709C40.1108 12.5055 37.6257 11.499 36.3606 10.8247L36.2104 10.7437C35.842 10.5445 35.4609 10.3385 35.0536 10.2789C34.4505 10.1914 33.8771 10.417 33.2697 10.656C32.7308 10.8682 32.1708 11.0868 31.5877 11.0717C30.9131 11.0534 30.2709 10.691 29.8772 10.1493C30.3622 13.6102 29.4726 17.2959 27.4417 20.1355C27.4153 20.1726 27.368 20.1876 27.3249 20.173C27.2818 20.1583 27.2534 20.1171 27.2551 20.0716C27.2903 19.1346 27.0282 18.1862 26.4546 17.1725C26.3644 17.0129 26.2725 16.855 26.1806 16.698H24.5707V16.6984Z" fill="#090909"/>
<path d="M26.3526 24.0168L25.2396 27.0611L24.542 24.0059L26.3526 24.0168Z" fill="#090909"/>
<path d="M25.24 27.1638C25.2377 27.1638 25.2357 27.1636 25.2336 27.1636C25.1879 27.1607 25.1498 27.1282 25.1397 27.0837L24.442 24.0282C24.435 23.9975 24.4424 23.9654 24.4622 23.9409C24.482 23.9164 24.5193 23.904 24.5432 23.9023L26.3538 23.9133C26.3874 23.9135 26.4185 23.93 26.4379 23.9576C26.457 23.9852 26.4613 24.0202 26.45 24.0517L25.337 27.096C25.3218 27.137 25.2831 27.1638 25.24 27.1638ZM24.6718 24.1094L25.2629 26.6984L26.2059 24.1187L24.6718 24.1094Z" fill="#090909"/>
<path d="M24.0781 19.167L25.3743 20.6092L24.1616 21.4" fill="#F8EEE2"/>
<path d="M24.1621 21.5034C24.1285 21.5034 24.0956 21.487 24.0758 21.4567C24.0449 21.4091 24.0581 21.3452 24.1059 21.3141L25.2178 20.5891L24.002 19.2363C23.9639 19.194 23.9674 19.1289 24.0099 19.0908C24.0519 19.0529 24.1172 19.0562 24.1553 19.0986L25.4515 20.5411C25.4717 20.5633 25.4809 20.5934 25.477 20.6233C25.4729 20.6532 25.4562 20.6797 25.4311 20.6962L24.2184 21.487C24.2011 21.4981 24.1815 21.5034 24.1621 21.5034Z" fill="#090909"/>
<path d="M37.9979 22.0579H37.0073C36.9504 22.0579 36.9043 22.0118 36.9043 21.9549C36.9043 21.8981 36.9504 21.8519 37.0073 21.8519H37.9979C38.3243 21.8519 38.6317 21.7085 38.8414 21.4586C39.0514 21.2087 39.1391 20.8809 39.0827 20.5595L38.4708 17.0829C38.4609 17.0271 38.4984 16.9735 38.5542 16.9636C38.6086 16.9533 38.6638 16.991 38.6735 17.0473L39.2854 20.5238C39.3526 20.9054 39.2483 21.2944 38.9992 21.5911C38.7501 21.8878 38.3853 22.0579 37.9979 22.0579Z" fill="#090909"/>
<path d="M41.2379 18.9092C41.3088 19.3004 41.049 19.6752 40.6579 19.7459C40.2667 19.8167 39.8921 19.5571 39.8212 19.1659C39.7504 18.7746 40.01 18.4001 40.4012 18.329C40.7925 18.2583 41.167 18.5179 41.2379 18.9092Z" fill="#090909"/>
<path d="M37.3722 28.6355C37.3401 28.6441 37.3051 28.6419 37.2719 28.6272C37.2387 28.6122 36.4459 28.2642 35.8575 28.887C35.8008 28.9472 35.706 28.9499 35.6457 28.893C35.5855 28.8363 35.5826 28.7414 35.6395 28.6812C36.3781 27.9003 37.3864 28.3501 37.3967 28.3546C37.4715 28.3891 37.5045 28.4776 37.4701 28.5528C37.4509 28.5953 37.4142 28.6243 37.3722 28.6355Z" fill="#090909"/>
<path d="M31.6028 16.2445C31.9616 16.2853 32.3604 16.1215 32.7548 15.9851C33.1493 15.8394 33.5488 15.703 33.9003 15.5967C34.2524 15.49 34.661 15.3812 35.0697 15.2836C35.4736 15.1779 35.8984 15.0919 36.1697 14.8604C36.4331 14.6411 36.4452 14.2379 35.9509 13.8963C35.4824 13.5601 34.4593 13.3499 33.2933 13.7002C32.1305 14.0556 31.4106 14.794 31.2207 15.3297C31.0136 15.8841 31.2582 16.2095 31.6028 16.2445Z" fill="#090909"/>
<path d="M42.7443 15.658C42.4769 15.7087 42.1812 15.5904 41.8885 15.4948C41.5959 15.3916 41.2994 15.2964 41.0384 15.2239C40.7771 15.1512 40.4739 15.0795 40.1702 15.0168C39.8702 14.9474 39.5548 14.8955 39.3543 14.7146C39.1598 14.544 39.1534 14.2084 39.523 13.9004C39.8741 13.5983 40.6366 13.3758 41.5022 13.614C42.3654 13.8567 42.8966 14.4393 43.0344 14.8774C43.185 15.3302 43.001 15.6129 42.7443 15.658Z" fill="#090909"/>
<path d="M34.9719 19.1593C34.9394 19.5932 34.5611 19.9183 34.1272 19.8857C33.6933 19.8532 33.368 19.4749 33.4007 19.0412C33.4335 18.6073 33.8113 18.2822 34.2452 18.3147C34.6793 18.3473 35.0045 18.7254 34.9719 19.1593Z" fill="#090909"/>
<path d="M33.373 19.926C33.373 19.926 34.0764 19.4204 34.7588 20.0231L33.373 19.926Z" fill="#F8EEE2"/>
<path d="M34.7591 20.1258C34.7348 20.1258 34.7105 20.1171 34.6909 20.0998C34.0811 19.5613 33.4595 19.9908 33.4333 20.0094C33.387 20.0423 33.3227 20.0314 33.2897 19.9855C33.2568 19.9391 33.2673 19.875 33.3132 19.8421C33.3208 19.8365 34.0924 19.2961 34.8273 19.9457C34.87 19.9834 34.8741 20.0485 34.8364 20.0912C34.816 20.114 34.7876 20.1258 34.7591 20.1258Z" fill="#090909"/>
<path d="M39.9707 19.8742C39.9707 19.8742 40.6078 19.5888 41.1956 19.8867L39.9707 19.8742Z" fill="#F8EEE2"/>
<path d="M41.1952 19.99C41.1796 19.99 41.1637 19.9865 41.1485 19.9789C40.6113 19.7065 40.0184 19.9657 40.0122 19.9686C39.9603 19.9914 39.8993 19.9686 39.8762 19.9167C39.8529 19.8645 39.8762 19.8038 39.9281 19.7805C39.956 19.7679 40.6165 19.4782 41.2418 19.7953C41.2925 19.8209 41.3129 19.8831 41.2871 19.9338C41.269 19.9694 41.2327 19.99 41.1952 19.99Z" fill="#090909"/>
<path d="M33.1618 22.2181C33.4346 22.0367 33.7972 22.0812 34.0389 22.3025C34.4792 22.7055 35.437 23.4207 36.8094 23.5603C37.1463 23.5948 37.3204 23.9866 37.1757 24.2928C36.8576 24.9661 36.0059 26.0043 34.233 25.173C32.0728 24.1599 32.4508 22.6909 33.1618 22.2181Z" fill="#FFF9F3"/>
<path d="M35.4432 25.5828C35.0868 25.5828 34.6708 25.4928 34.1887 25.2666C32.7963 24.6137 32.5361 23.812 32.5048 23.3921C32.4677 22.8937 32.7032 22.3992 33.1041 22.1324H33.1043C33.4111 21.928 33.8242 21.967 34.1079 22.2268C34.5462 22.6281 35.4813 23.3218 36.8193 23.4582C36.9985 23.4766 37.1541 23.5806 37.2462 23.7438C37.3492 23.9263 37.3575 24.1482 37.268 24.3372C37.1049 24.6837 36.57 25.5828 35.4432 25.5828ZM33.2187 22.3043C32.9601 22.4759 32.6723 22.8601 32.7104 23.3769C32.7586 24.0242 33.3147 24.6291 34.2763 25.0801C36.0607 25.917 36.8329 24.7777 37.0822 24.2494C37.1422 24.1225 37.1364 23.9678 37.0672 23.8452C37.0076 23.7395 36.9122 23.675 36.7987 23.6634C35.4018 23.5211 34.426 22.7975 33.9691 22.379C33.7552 22.1831 33.4468 22.1524 33.2187 22.3043Z" fill="#090909"/>
<path d="M37.9896 32.445C37.9896 32.445 31.5505 32.8605 29.9609 30.252C29.9609 30.252 31.3924 34.5535 37.7011 36.0491L37.9896 32.445Z" fill="#090909"/>
<path d="M37.7015 36.1522C37.6937 36.1522 37.6857 36.1514 37.6778 36.1493C31.386 34.6576 29.8783 30.3281 29.8637 30.2846C29.8472 30.235 29.8705 30.1808 29.9183 30.1587C29.965 30.1373 30.0223 30.1538 30.0495 30.1985C31.5884 32.7238 37.9197 32.3468 37.9836 32.3423C38.0137 32.3408 38.0425 32.3513 38.0637 32.3727C38.0847 32.394 38.0952 32.4234 38.093 32.4533L37.8045 36.0574C37.8021 36.0875 37.7868 36.1147 37.7625 36.1324C37.7444 36.1454 37.7232 36.1522 37.7015 36.1522ZM30.3989 30.934C31.1071 32.2003 33.0699 34.8087 37.6084 35.9208L37.8781 32.5545C37.0484 32.5955 32.3859 32.7401 30.3989 30.934Z" fill="#090909"/>
<path d="M1.77539 76.975L2.34857 62.1389L17.9239 62.6391C17.9184 62.7292 19.4065 51.6185 19.3997 51.7086L17.9239 62.6391L15.8502 62.5751L15.6426 67.5112C15.6426 67.5112 29.7631 60.2902 30.9717 58.8344C30.9717 58.8344 35.0586 54.7591 36.6901 53.6529C36.865 53.5342 37.0466 53.4172 37.2511 53.364C37.4557 53.3109 37.6904 53.3308 37.8534 53.4652C38.0656 53.6401 38.1012 53.9496 38.0891 54.2244C38.0514 55.0776 37.7137 55.878 37.3768 56.6684C37.4759 56.6364 47.7963 53.2175 48.3645 53.0743C49.3421 52.8279 49.2951 54.1776 48.6023 54.9101C47.718 55.8448 43.6083 58.0096 43.3847 58.0617C44.3768 58.0249 45.3255 57.8242 45.5629 59.4401C45.7267 60.5551 44.74 60.865 43.7385 60.9808C44.3702 61.0039 44.9124 61.2151 44.9705 61.9658C45.2194 63.2352 44.1647 63.7501 43.113 63.8801C43.0814 63.884 43.0765 63.9256 43.1059 63.9371C43.9688 64.2752 43.3719 65.8617 42.1018 66.3228L35.0029 69.3162C34.2744 69.645 15.2674 84.1035 15.2674 84.1035C13.0659 85.645 10.5099 85.9887 8.21347 85.403C4.40085 84.4307 1.79064 80.9094 1.77539 76.975Z" fill="#F8EEE2"/>
<path d="M10.3604 85.7793C9.63932 85.7793 8.91141 85.688 8.18701 85.5032C4.36677 84.5289 1.68753 81.0222 1.67188 76.9758C1.67188 76.9743 1.67188 76.9727 1.67188 76.9713L2.24485 62.1349C2.24711 62.0787 2.28976 62.0362 2.35116 62.036L17.8338 62.5334L19.2387 52.1181C19.2542 52.0045 19.2664 51.916 19.2767 51.8463L19.2973 51.6949L19.3039 51.6959C19.3278 51.5972 19.3523 51.6003 19.4102 51.6057C19.4656 51.6114 19.5064 51.6611 19.5021 51.7165L18.9035 56.1501C18.8761 56.3535 18.8485 56.5576 18.8213 56.7612L18.0971 62.1368C18.0769 62.2849 18.0617 62.3974 18.0487 62.4827L18.0256 62.6533C18.0225 62.6766 18.012 62.697 17.9964 62.7124C17.9766 62.7491 17.9529 62.7466 17.9136 62.7425C17.9123 62.7425 17.9111 62.7423 17.9098 62.7421L15.9484 62.6815L15.7525 67.3393C17.3056 66.5415 29.7787 60.11 30.8919 58.769C30.9395 58.7212 35.0109 54.6667 36.6317 53.5679C36.82 53.4404 37.0071 53.3213 37.2245 53.2646C37.4847 53.1975 37.7439 53.2426 37.9184 53.3862C38.1197 53.5525 38.2089 53.8283 38.1914 54.2293C38.156 55.0322 37.8648 55.7786 37.5599 56.4997C37.6211 56.4794 37.6944 56.4552 37.7791 56.4272C46.0898 53.6788 48.1085 53.0326 48.3384 52.9748C48.8049 52.8561 49.0181 53.0823 49.1032 53.2273C49.3585 53.6633 49.1632 54.4666 48.6763 54.9813C47.9575 55.7413 45.0825 57.3408 43.9018 57.9352C44.6972 57.9086 45.4567 58.0145 45.6642 59.4254C45.7204 59.8094 45.6501 60.1333 45.4546 60.3876C45.2045 60.7129 44.7786 60.8847 44.3591 60.9822C44.7992 61.1363 45.0337 61.4591 45.0724 61.9579C45.1637 62.4203 45.0897 62.828 44.8505 63.1579C44.497 63.6455 43.8684 63.859 43.3374 63.9511C43.5206 64.0937 43.6172 64.3149 43.6137 64.592C43.6057 65.2297 43.0509 66.0878 42.1361 66.4198L35.042 69.4115C34.4764 69.6666 21.8996 79.1873 15.3287 84.1859C13.8261 85.2383 12.1148 85.7793 10.3604 85.7793ZM1.87791 76.9772C1.89418 80.9289 4.50914 84.3525 8.2381 85.3036C10.6645 85.9225 13.1402 85.4668 15.2073 84.0198C15.9806 83.4316 34.2288 69.5525 34.9596 69.2228L42.0609 66.2284C42.8856 65.9288 43.4009 65.145 43.4077 64.5898C43.4102 64.3978 43.3531 64.1456 43.0675 64.0337C43.0107 64.0112 42.9763 63.9536 42.9837 63.8934C42.9911 63.8334 43.0387 63.7863 43.0991 63.7782C43.8414 63.6865 44.4039 63.4232 44.6837 63.0371C44.8878 62.7553 44.9503 62.4017 44.8687 61.986C44.8219 61.3934 44.4618 61.1105 43.7336 61.084C43.6799 61.0819 43.6366 61.0388 43.6345 60.9851C43.6325 60.9313 43.6722 60.8849 43.7256 60.8785C44.5431 60.7842 45.0405 60.5882 45.2912 60.2621C45.4536 60.0509 45.5088 59.7868 45.46 59.4553C45.2566 58.0701 44.5452 58.106 43.6413 58.1534C43.5575 58.1575 43.4728 58.162 43.3875 58.1653C43.3315 58.1639 43.2888 58.1284 43.2816 58.0759C43.2744 58.0234 43.3086 57.9741 43.3601 57.9617C43.63 57.8886 47.6686 55.7465 48.5263 54.8398C48.9796 54.3607 49.1109 53.6483 48.925 53.3316C48.8261 53.1629 48.6452 53.1105 48.3885 53.1748C48.1619 53.2319 46.1485 53.8766 37.8434 56.623C37.5756 56.7115 37.419 56.7633 37.4072 56.767C37.3691 56.7795 37.3269 56.7682 37.2997 56.7383C37.2725 56.7085 37.2651 56.6658 37.2809 56.6285C37.6089 55.8594 37.9481 55.0637 37.9854 54.2202C37.9998 53.8883 37.9351 53.6672 37.7869 53.5453C37.6635 53.4435 37.4723 53.4136 37.2762 53.4641C37.0906 53.5123 36.9198 53.6215 36.7471 53.7385C35.1423 54.8264 31.0845 58.867 31.0437 58.9078C29.842 60.356 16.2659 67.3082 15.6886 67.6034C15.6563 67.6197 15.6171 67.6182 15.5862 67.5985C15.5553 67.5787 15.5374 67.5439 15.5388 67.5074L15.7424 62.6727L2.44676 62.2456L1.87791 76.9772Z" fill="#090909"/>
<path d="M15.6711 64.9639L9.54785 70.7358L15.6425 67.6196L15.6711 64.9639Z" fill="#090909"/>
<path d="M37.2871 56.8003L33.4473 58.5905C33.4473 58.5905 37.0475 55.7324 37.7715 55.5039L37.2871 56.8003Z" fill="#090909"/>
<path d="M41.2441 58.7213C41.2441 58.7213 43.5789 57.9472 43.9839 57.9297L41.2441 58.7213Z" fill="#F8EEE2"/>
<path d="M41.2447 58.8239C41.2015 58.8239 41.1613 58.7965 41.1469 58.7532C41.1289 58.6992 41.1584 58.6409 41.2122 58.623C41.308 58.5913 43.5653 57.8446 43.98 57.8263C44.035 57.8236 44.0847 57.8681 44.0873 57.9248C44.0898 57.9814 44.0457 58.0296 43.9889 58.0323C43.6683 58.0461 41.9228 58.6045 41.2771 58.8185C41.2664 58.8225 41.2552 58.8239 41.2447 58.8239Z" fill="#090909"/>
<path d="M41.7789 61.7287C41.7351 61.7287 41.6945 61.7005 41.6805 61.6564C41.6636 61.602 41.6938 61.5443 41.748 61.5272L43.9163 60.8504C43.9717 60.8335 44.0284 60.8638 44.0455 60.918C44.0624 60.9724 44.0319 61.03 43.9779 61.0471L41.8096 61.724C41.7995 61.7273 41.789 61.7287 41.7789 61.7287Z" fill="#090909"/>
<path d="M41.7885 64.3367C41.7435 64.3367 41.7025 64.3072 41.6896 64.2623C41.6739 64.2075 41.7054 64.1504 41.76 64.1347L42.9361 63.7962C42.9917 63.78 43.0477 63.8121 43.0636 63.8667C43.0792 63.9215 43.0477 63.9786 42.9931 63.9942L41.8171 64.3329C41.8074 64.3354 41.7979 64.3367 41.7885 64.3367Z" fill="#090909"/>
</svg>
