<svg width="26" height="26" viewBox="0 0 26 26" fill="none" xmlns="http://www.w3.org/2000/svg">
<path d="M13 0C5.79091 0 0 5.79091 0 13C0 20.2091 5.79091 26 13 26C20.2091 26 26 20.2091 26 13C26 5.79091 20.2091 0 13 0ZM18.9091 15.3636H15.3636V18.9091C15.3636 20.2091 14.3 21.2727 13 21.2727C11.7 21.2727 10.6364 20.2091 10.6364 18.9091V15.3636H7.09091C5.79091 15.3636 4.72727 14.3 4.72727 13C4.72727 11.7 5.79091 10.6364 7.09091 10.6364H10.6364V7.09091C10.6364 5.79091 11.7 4.72727 13 4.72727C14.3 4.72727 15.3636 5.79091 15.3636 7.09091V10.6364H18.9091C20.2091 10.6364 21.2727 11.7 21.2727 13C21.2727 14.3 20.2091 15.3636 18.9091 15.3636Z" fill="#FF7500"/>
</svg>
