<svg width="16" height="16" viewBox="0 0 16 16" fill="none" xmlns="http://www.w3.org/2000/svg">
<path d="M0.235205 12.5317L2.6344 14.9242C2.70857 14.9984 2.79672 15.0573 2.89379 15.0974C2.99086 15.1375 3.09493 15.1581 3.2 15.158L12.8 15.158C12.9051 15.1581 13.0091 15.1375 13.1062 15.0974C13.2033 15.0573 13.2914 14.9984 13.3656 14.9242L15.7648 12.5317C15.8395 12.4577 15.8988 12.3697 15.9392 12.2728C15.9796 12.1758 16.0002 12.0718 16 11.9668L16 1.59563C16 0.715677 15.2824 6.57408e-05 14.4 6.56637e-05L1.6 6.45446e-05C0.717605 6.44675e-05 5.07728e-06 0.715676 5.00035e-06 1.59563L4.09368e-06 11.9668C-0.000236241 12.0718 0.020428 12.1758 0.0608027 12.2728C0.101177 12.3697 0.160459 12.4577 0.235205 12.5317ZM12.4688 13.5624L3.5312 13.5624L2.7312 12.7646L13.2688 12.7646L12.4688 13.5624ZM14.4 1.59563L14.4 11.169L1.6 11.169L1.5984 1.59563L14.4 1.59563Z" fill="#333333" fill-opacity="0.82"/>
<path d="M12 5.58457L9.6 5.58457L9.6 3.19122L6.4 3.19122L6.4 5.58457L4 5.58457L8 9.57349L12 5.58457Z" fill="#333333" fill-opacity="0.82"/>
</svg>
