<svg width="24" height="24" viewBox="0 0 24 24" fill="none" xmlns="http://www.w3.org/2000/svg">
<g clip-path="url(#clip0_67_1257)">
<path d="M7.8116 9.64281L12.3667 16.8746C12.71 17.3985 13.2757 17.7481 13.9417 17.8479C14.6076 17.9477 15.3204 17.7898 15.9263 17.4082C16.5321 17.0266 16.9824 16.4519 17.18 15.8081C17.3776 15.1644 17.3067 14.5032 16.9824 13.9673L11.0069 4.46375C10.7279 4.00686 10.3482 3.61815 9.88987 3.32017C9.4315 3.02219 8.90357 2.82085 8.33669 2.72784C7.76981 2.63482 7.17525 2.65198 6.58748 2.77831C5.99971 2.90464 5.43042 3.13764 4.91262 3.46379C4.39481 3.78994 3.93879 4.20276 3.57098 4.67831C3.20318 5.15387 2.93091 5.6827 2.76995 6.23415C2.609 6.78561 2.56257 7.34871 2.63335 7.89083C2.70413 8.43294 2.89072 8.94328 3.18229 9.39225L9.20558 18.955C10.0226 20.2058 11.3708 21.041 12.9589 21.2801C14.5469 21.5192 16.2472 21.143 17.6922 20.2329C19.1372 19.3227 20.2108 17.9517 20.6811 16.4161C21.1513 14.8806 20.9803 13.3039 20.2051 12.0268L14.5766 3.09068" stroke="#262262" stroke-width="2" stroke-miterlimit="10" stroke-linecap="square"/>
</g>
<defs>
<clipPath id="clip0_67_1257">
<rect width="24" height="24" fill="white"/>
</clipPath>
</defs>
</svg>
