<svg width="19" height="18" viewBox="0 0 19 18" fill="none" xmlns="http://www.w3.org/2000/svg">
<path d="M0.279305 14.8813L3.12835 17.7224C3.21642 17.8106 3.32111 17.8805 3.43638 17.9281C3.55165 17.9757 3.67523 18.0002 3.8 18L15.2 18C15.3248 18.0002 15.4484 17.9757 15.5636 17.9281C15.6789 17.8805 15.7836 17.8106 15.8716 17.7224L18.7207 14.8813C18.8095 14.7935 18.8799 14.689 18.9278 14.5738C18.9757 14.4587 19.0003 14.3352 19 14.2105L19 1.89474C19 0.849789 18.1478 -7.44975e-08 17.1 -1.66103e-07L1.90001 -1.49493e-06C0.852155 -1.58654e-06 5.31402e-06 0.849787 5.22266e-06 1.89474L4.14598e-06 14.2105C-0.000283875 14.3352 0.0242561 14.4587 0.0722011 14.5738C0.120146 14.689 0.190543 14.7935 0.279305 14.8813ZM14.8067 16.1053L4.1933 16.1053L3.2433 15.1579L15.7567 15.1579L14.8067 16.1053ZM17.1 1.89474L17.1 13.2632L1.9 13.2632L1.8981 1.89474L17.1 1.89474Z" fill="white"/>
<path d="M14.25 6.63181L11.4 6.63181L11.4 3.78971L7.6 3.78971L7.6 6.63181L4.75 6.63181L9.5 11.3687L14.25 6.63181Z" fill="white"/>
</svg>
