<svg width="38" height="38" viewBox="0 0 38 38" fill="none" xmlns="http://www.w3.org/2000/svg">
<circle cx="19" cy="19" r="19" fill="#FF7500"/>
<path d="M23.1998 14.2C23.1998 15.3139 22.7573 16.3822 21.9697 17.1698C21.182 17.9575 20.1137 18.4 18.9998 18.4C17.8859 18.4 16.8176 17.9575 16.03 17.1698C15.2423 16.3822 14.7998 15.3139 14.7998 14.2V10H23.1998V14.2Z" stroke="white" stroke-width="1.5" stroke-linecap="round" stroke-linejoin="round"/>
<path d="M11.2002 27.8C11.2002 25.7313 12.022 23.7474 13.4848 22.2846C14.9475 20.8218 16.9315 20 19.0002 20C21.0689 20 23.0528 20.8218 24.5156 22.2846C25.9784 23.7474 26.8002 25.7313 26.8002 27.8" stroke="white" stroke-width="1.5" stroke-linecap="round" stroke-linejoin="round"/>
<path d="M10 10H19H28" stroke="white" stroke-width="1.5" stroke-linecap="round" stroke-linejoin="round"/>
<path d="M14.7998 13.6001H23.1998" stroke="white" stroke-width="1.5" stroke-linecap="round" stroke-linejoin="round"/>
<path d="M15.0098 21.2969L18.9994 24.4001L22.989 21.2969" stroke="white" stroke-width="1.5" stroke-linecap="round" stroke-linejoin="round"/>
</svg>
