<svg width="21" height="24" viewBox="0 0 21 24" fill="none" xmlns="http://www.w3.org/2000/svg">
<g clip-path="url(#clip0_41_1915)">
<path d="M17.625 9.61644V8.82855C17.625 4.50469 14.433 1 10.5 1C6.56703 1 3.37505 4.50469 3.37505 8.82855V9.61644C3.37632 10.5569 3.12282 11.4781 2.64461 12.2707L1.47506 14.1985C0.407903 15.9586 1.22279 18.3513 3.0795 18.9079C7.93091 20.364 13.0691 20.364 17.9205 18.9079C19.7772 18.3513 20.5921 15.9586 19.5249 14.1996L18.3554 12.2718C17.8768 11.4793 17.6229 10.5582 17.6239 9.61756L17.625 9.61644Z" stroke="#333333" stroke-width="1.125"/>
<path d="M6 20C6.72778 21.748 8.69111 23 11 23C13.3089 23 15.2722 21.748 16 20" stroke="#333333" stroke-width="1.125" stroke-linecap="round"/>
</g>
<defs>
<clipPath id="clip0_41_1915">
<rect width="21" height="24" fill="white"/>
</clipPath>
</defs>
</svg>
