<svg width="20" height="20" viewBox="0 0 20 20" fill="none" xmlns="http://www.w3.org/2000/svg">
<path d="M18.5714 0C18.3371 0 17.7793 0.145 17.1429 0.301429L2.705 3.65714C2.47214 3.185 1.99071 2.85714 1.42857 2.85714C0.64 2.85714 0 3.49714 0 4.28571V12.8571C0 13.6457 0.64 14.2857 1.42857 14.2857C1.99071 14.2857 2.47214 13.9579 2.705 13.4857L4.28571 13.8536V18.5714C4.28571 19.36 4.92571 20 5.71429 20H11.4286C12.2171 20 12.8571 19.36 12.8571 18.5714V15.8457L17.1429 16.8421C17.7793 16.9979 18.3371 17.1429 18.5714 17.1429C19.3529 17.1429 20 16.5064 20 15.7143V1.42857C20 0.636429 19.3529 0 18.5714 0ZM10 17.1429H7.14286V14.5171L10 15.1814V17.1429ZM17.1429 13.9086L2.85714 10.5879V6.555L17.1429 3.235V13.9086Z" fill="white"/>
</svg>
