<svg width="15" height="16" viewBox="0 0 15 16" fill="none" xmlns="http://www.w3.org/2000/svg">
<path d="M1 12.5684V3.76636" stroke="#333333" stroke-opacity="0.95" stroke-width="2" stroke-linecap="round"/>
<path d="M12.655 1.49436L1.65501 5.53752C1.26151 5.68215 1 6.05689 1 6.47613V10.057C1 10.5019 1.29399 10.8933 1.72132 11.0173L12.7213 14.2093C13.361 14.3949 14 13.915 14 13.2489V2.43297C14 1.73754 13.3077 1.25445 12.655 1.49436Z" stroke="#333333" stroke-opacity="0.95" stroke-width="1.5" stroke-linecap="round"/>
<path d="M4.64941 14.0833V12.3169C4.64941 12.0686 4.89165 11.8925 5.12786 11.9691L7.83511 12.8471C8.24739 12.9809 8.52661 13.3649 8.52661 13.7984V14.0833C8.52661 14.6356 8.07889 15.0833 7.52661 15.0833H5.64941C5.09713 15.0833 4.64941 14.6356 4.64941 14.0833Z" stroke="#333333" stroke-opacity="0.95" stroke-width="1.5" stroke-linecap="round"/>
</svg>
