<svg width="19" height="19" viewBox="0 0 19 19" fill="none" xmlns="http://www.w3.org/2000/svg">
<mask id="mask0_253_1643" style="mask-type:alpha" maskUnits="userSpaceOnUse" x="0" y="0" width="19" height="19">
<rect width="19" height="19" fill="#D9D9D9"/>
</mask>
<g mask="url(#mask0_253_1643)">
<path d="M9.49967 17.4168C8.40454 17.4168 7.37537 17.209 6.41217 16.7934C5.44898 16.3778 4.61113 15.8137 3.89863 15.1012C3.18613 14.3887 2.62207 13.5509 2.20645 12.5877C1.79082 11.6245 1.58301 10.5953 1.58301 9.50016C1.58301 8.40502 1.79082 7.37586 2.20645 6.41266C2.62207 5.44947 3.18613 4.61162 3.89863 3.89912C4.61113 3.18662 5.44898 2.62256 6.41217 2.20693C7.37537 1.79131 8.40454 1.5835 9.49967 1.5835C10.5948 1.5835 11.624 1.79131 12.5872 2.20693C13.5504 2.62256 14.3882 3.18662 15.1007 3.89912C15.8132 4.61162 16.3773 5.44947 16.7929 6.41266C17.2085 7.37586 17.4163 8.40502 17.4163 9.50016C17.4163 10.5953 17.2085 11.6245 16.7929 12.5877C16.3773 13.5509 15.8132 14.3887 15.1007 15.1012C14.3882 15.8137 13.5504 16.3778 12.5872 16.7934C11.624 17.209 10.5948 17.4168 9.49967 17.4168ZM9.49967 15.8335C10.2122 15.8335 10.8983 15.718 11.558 15.4871C12.2177 15.2562 12.8247 14.9231 13.3788 14.4877L4.51217 5.621C4.07676 6.17516 3.7436 6.78211 3.5127 7.44183C3.28179 8.10155 3.16634 8.78766 3.16634 9.50016C3.16634 11.2682 3.77988 12.7658 5.00697 13.9929C6.23405 15.22 7.73162 15.8335 9.49967 15.8335ZM14.4872 13.3793C14.9226 12.8252 15.2557 12.2182 15.4867 11.5585C15.7176 10.8988 15.833 10.2127 15.833 9.50016C15.833 7.73211 15.2195 6.23454 13.9924 5.00745C12.7653 3.78037 11.2677 3.16683 9.49967 3.16683C8.78717 3.16683 8.10106 3.28228 7.44134 3.51318C6.78162 3.74409 6.17467 4.07725 5.62051 4.51266L14.4872 13.3793Z" fill="#FF1A1A"/>
</g>
</svg>
