<svg width="22" height="24" viewBox="0 0 22 24" fill="none" xmlns="http://www.w3.org/2000/svg">
<g clip-path="url(#clip0_399_909)">
<path d="M5.02669 0.0305367C5.08451 0.0302691 5.14232 0.0300015 5.20188 0.0297258C5.36057 0.0291425 5.51923 0.0292163 5.67791 0.029585C5.84975 0.0298216 6.02158 0.0291971 6.19342 0.0286897C6.52938 0.0278384 6.86534 0.0277933 7.2013 0.0280543C7.4746 0.0282557 7.7479 0.0281827 8.0212 0.0279178C8.06021 0.0278806 8.09922 0.0278434 8.13941 0.0278051C8.21867 0.027729 8.29793 0.0276525 8.37719 0.0275758C9.11932 0.0268947 9.86145 0.0271633 10.6036 0.027734C11.2812 0.0282273 11.9588 0.0275847 12.6364 0.0263957C13.3336 0.0251815 14.0308 0.0247069 14.7281 0.0250368C15.1189 0.0252099 15.5098 0.0251026 15.9006 0.0242293C16.2334 0.023495 16.5661 0.0234698 16.8989 0.0243322C17.0684 0.0247529 17.2378 0.0247579 17.4073 0.0241011C18.5342 0.0200685 19.4425 0.0955161 20.2976 0.909078C20.951 1.61331 21.0837 2.42918 21.0816 3.35331C21.0818 3.43085 21.082 3.5084 21.0823 3.58594C21.0829 3.798 21.0829 4.01006 21.0828 4.22212C21.0828 4.45123 21.0833 4.68035 21.0838 4.90946C21.0846 5.35798 21.0849 5.8065 21.0849 6.25502C21.085 6.61979 21.0852 6.98455 21.0855 7.34932C21.0864 8.38449 21.0868 9.41965 21.0868 10.4548C21.0868 10.5106 21.0868 10.5663 21.0868 10.6238C21.0868 10.6796 21.0867 10.7355 21.0867 10.793C21.0867 11.6974 21.0877 12.6018 21.0891 13.5063C21.0905 14.4359 21.0912 15.3655 21.0911 16.2952C21.091 16.8167 21.0913 17.3382 21.0924 17.8597C21.0933 18.3038 21.0935 18.7479 21.0928 19.192C21.0925 19.4184 21.0925 19.6447 21.0934 19.871C21.0942 20.0787 21.094 20.2864 21.0931 20.4941C21.093 20.5687 21.0932 20.6434 21.0937 20.718C21.1004 21.6695 20.8775 22.4789 20.2085 23.1798C19.5854 23.7596 18.8445 23.9579 18.0157 23.9577C17.9582 23.9579 17.9007 23.9581 17.8414 23.9583C17.6822 23.9587 17.5229 23.959 17.3637 23.9591C17.1917 23.9593 17.0198 23.9598 16.8478 23.9602C16.4328 23.9612 16.0177 23.9617 15.6026 23.9621C15.4068 23.9623 15.211 23.9626 15.0153 23.9629C14.3639 23.9637 13.7126 23.9644 13.0613 23.9648C12.8924 23.9649 12.7235 23.965 12.5546 23.9651C12.5126 23.9651 12.4707 23.9651 12.4274 23.9652C11.7482 23.9656 11.069 23.9668 10.3898 23.9684C9.69155 23.9701 8.99326 23.971 8.29496 23.9711C7.9033 23.9713 7.51164 23.9717 7.11998 23.973C6.78625 23.974 6.45253 23.9744 6.1188 23.974C5.94883 23.9737 5.77886 23.9738 5.60889 23.9748C4.48341 23.9802 3.57451 23.9239 2.7143 23.1181C2.0509 22.4127 1.90525 21.6349 1.92548 20.7051C1.92648 20.6242 1.92739 20.5434 1.9282 20.4626C1.93036 20.267 1.93378 20.0714 1.93791 19.8759C1.89255 19.8767 1.84718 19.8775 1.80045 19.8783C1.63144 19.8808 1.46246 19.8827 1.29344 19.8841C1.22042 19.8848 1.1474 19.8858 1.0744 19.8871C0.969176 19.889 0.863986 19.8898 0.758753 19.8904C0.695521 19.8912 0.632289 19.892 0.567141 19.8928C0.384015 19.8745 0.293571 19.8386 0.149087 19.7268C0.0197258 19.5182 -0.0171044 19.3887 0.0248637 19.1461C0.0817318 18.94 0.158409 18.8413 0.347845 18.733C0.862292 18.6044 1.40763 18.6833 1.93791 18.6833C1.93791 17.4699 1.93791 16.2565 1.93791 15.0063C1.42958 15.0063 0.921261 15.0063 0.397535 15.0063C0.0994403 14.8275 0.0994403 14.8275 0.0188466 14.6106C-0.0167233 14.4195 0.0145772 14.236 0.0993979 14.0622C0.347845 13.8635 0.347845 13.8635 1.93791 13.8635C1.93791 12.65 1.93791 11.4366 1.93791 10.1864C1.49517 10.1864 1.05244 10.1864 0.596292 10.1864C0.18234 10.0682 0.18234 10.0682 0.0497084 9.83862C-0.00870317 9.62834 -0.0070367 9.51431 0.0559196 9.30446C0.149087 9.14297 0.149087 9.14297 0.397535 8.9939C0.905857 8.9939 1.41418 8.9939 1.93791 8.9939C1.93791 7.78048 1.93791 6.56707 1.93791 5.31688C1.46238 5.31688 0.986851 5.31688 0.496913 5.31688C0.138774 5.13781 0.138774 5.13781 0.0497084 4.96905C-0.00181439 4.77032 -0.0127779 4.65749 0.0559196 4.46284C0.158943 4.30831 0.241899 4.22574 0.397535 4.12433C0.567141 4.10177 0.567141 4.10177 0.758753 4.10492C0.809511 4.10535 0.809511 4.10535 0.861295 4.10578C0.968649 4.10688 1.07592 4.10938 1.18325 4.11191C1.25633 4.11291 1.3294 4.11382 1.40248 4.11463C1.58099 4.11681 1.75944 4.12024 1.93791 4.12433C1.93687 4.0768 1.93583 4.02926 1.93475 3.98029C1.9311 3.80045 1.92885 3.62061 1.92699 3.44074C1.926 3.36355 1.92466 3.28636 1.92291 3.20918C1.90235 2.27365 2.11473 1.55388 2.76865 0.857448C3.38433 0.249148 4.17627 0.0257318 5.02669 0.0305367ZM3.41306 1.93179C3.08253 2.36934 3.11207 2.83454 3.12114 3.35415C3.12189 3.42894 3.12257 3.50373 3.12317 3.57853C3.12481 3.76048 3.12737 3.9424 3.13045 4.12433C3.17431 4.12532 3.21817 4.1263 3.26335 4.12732C3.42681 4.13121 3.59025 4.13552 3.75369 4.1401C3.82429 4.142 3.8949 4.14373 3.96551 4.1453C4.06728 4.14758 4.16903 4.15046 4.27079 4.15345C4.36251 4.15579 4.36251 4.15579 4.45609 4.15818C4.61593 4.17352 4.72819 4.19839 4.86958 4.2734C4.97506 4.47477 4.98474 4.65467 4.94975 4.87472C4.89846 5.03349 4.7991 5.11672 4.67083 5.2175C4.1827 5.38021 3.64465 5.29852 3.13045 5.31688C3.13045 6.5303 3.13045 7.74371 3.13045 8.9939C3.62238 9.0103 4.1143 9.02669 4.62114 9.04359C4.86958 9.19266 4.86958 9.19266 4.93791 9.30135C4.98026 9.49196 4.97784 9.65159 4.91927 9.83862C4.75605 10.0517 4.69284 10.0827 4.42238 10.1368C3.99604 10.1532 3.56971 10.1696 3.13045 10.1864C3.13045 11.3999 3.13045 12.6133 3.13045 13.8635C3.63878 13.8799 4.1471 13.8963 4.67083 13.9132C4.9583 14.2006 4.9583 14.2006 4.97595 14.4599C4.96477 14.6187 4.90707 14.7265 4.81989 14.8573C4.34951 15.1708 3.69549 14.9881 3.13045 15.0063C3.13045 16.2197 3.13045 17.4332 3.13045 18.6833C3.79455 18.7079 3.79455 18.7079 4.47207 18.733C4.81989 18.8821 4.81989 18.8821 4.91927 19.0156C4.98575 19.2358 4.97356 19.3534 4.91927 19.5778C4.82515 19.6962 4.75529 19.7591 4.62114 19.8262C4.50935 19.8339 4.39735 19.8386 4.28534 19.8419C4.23592 19.8435 4.23592 19.8435 4.18551 19.8451C4.0802 19.8483 3.9749 19.8512 3.86958 19.8541C3.79822 19.8563 3.72686 19.8585 3.65549 19.8607C3.48049 19.866 3.30547 19.871 3.13045 19.8759C3.12549 20.0932 3.12191 20.3106 3.11954 20.5279C3.11854 20.6017 3.11719 20.6754 3.11546 20.7491C3.10101 21.3792 3.17105 21.8402 3.62017 22.3118C4.0506 22.7086 4.47614 22.7728 5.04374 22.7715C5.10104 22.7718 5.15834 22.772 5.21737 22.7723C5.37577 22.7729 5.53415 22.7731 5.69255 22.7731C5.86364 22.7731 6.03473 22.7738 6.20583 22.7744C6.57963 22.7755 6.95344 22.7759 7.32725 22.7761C7.56085 22.7763 7.79446 22.7766 8.02806 22.777C8.67543 22.778 9.32279 22.7788 9.97016 22.7789C10.0322 22.7789 10.0322 22.7789 10.0956 22.7789C10.1795 22.779 10.2634 22.779 10.3473 22.779C10.4098 22.779 10.4098 22.779 10.4735 22.779C10.5152 22.779 10.5569 22.779 10.5999 22.779C11.2754 22.7792 11.9508 22.7806 12.6263 22.7824C13.3206 22.7843 14.0148 22.7853 14.7091 22.7853C15.0985 22.7853 15.488 22.7857 15.8775 22.7872C16.2092 22.7884 16.5409 22.7888 16.8726 22.788C17.0417 22.7877 17.2107 22.7878 17.3797 22.7888C17.5635 22.7898 17.7472 22.7893 17.931 22.7884C17.9837 22.7891 18.0364 22.7897 18.0908 22.7904C18.571 22.7851 19.047 22.6371 19.4024 22.3008C19.7046 21.9445 19.8879 21.5569 19.8887 21.0871C19.8889 21.0552 19.8891 21.0232 19.8893 20.9903C19.8898 20.8833 19.8896 20.7764 19.8894 20.6695C19.8896 20.592 19.8899 20.5145 19.8902 20.4369C19.8909 20.224 19.891 20.0112 19.891 19.7983C19.8911 19.5686 19.8917 19.3389 19.8923 19.1093C19.8934 18.6072 19.8938 18.105 19.8941 17.6029C19.8942 17.2893 19.8945 16.9756 19.8949 16.662C19.8959 15.7935 19.8967 14.9249 19.8968 14.0564C19.8968 13.973 19.8968 13.973 19.8969 13.888C19.8969 13.7753 19.8969 13.6626 19.8969 13.55C19.8969 13.494 19.8969 13.4381 19.8969 13.3805C19.8969 13.3245 19.897 13.2685 19.897 13.2108C19.8971 12.3037 19.8985 11.3965 19.9003 10.4894C19.9022 9.55774 19.9032 8.6261 19.9032 7.69445C19.9032 7.17148 19.9037 6.64852 19.9051 6.12556C19.9063 5.6802 19.9067 5.23486 19.9059 4.78951C19.9056 4.56239 19.9056 4.3353 19.9067 4.10819C19.9078 3.89999 19.9076 3.69182 19.9066 3.48363C19.9064 3.40859 19.9067 3.33355 19.9074 3.25852C19.9124 2.68896 19.8263 2.14558 19.4185 1.71576C18.9521 1.31934 18.5079 1.22734 17.914 1.22906C17.8569 1.22883 17.7997 1.22861 17.7408 1.22838C17.5828 1.22786 17.4248 1.22778 17.2668 1.2279C17.0961 1.22792 16.9254 1.22737 16.7547 1.2269C16.4205 1.22608 16.0864 1.2258 15.7522 1.22575C15.4806 1.2257 15.2089 1.22549 14.9372 1.22518C14.1663 1.2243 13.3955 1.22385 12.6246 1.22392C12.5623 1.22393 12.5623 1.22393 12.4988 1.22393C12.4364 1.22394 12.4364 1.22394 12.3728 1.22394C11.699 1.22398 11.0253 1.22303 10.3515 1.22163C9.65915 1.2202 8.96682 1.21952 8.27448 1.2196C7.88599 1.21964 7.4975 1.21937 7.10902 1.21829C6.77825 1.21739 6.44749 1.21717 6.11672 1.21785C5.94808 1.21817 5.77947 1.21807 5.61084 1.21732C5.42769 1.21655 5.24459 1.21701 5.06145 1.21778C5.00861 1.21727 4.95577 1.21675 4.90134 1.21623C4.29844 1.22178 3.79143 1.45766 3.41306 1.93179Z" fill="white"/>
<path d="M14.1427 13.6273C15.0821 14.4291 15.6262 15.4992 15.7402 16.7231C15.765 17.0388 15.7611 17.2583 15.6023 17.5404C15.4109 17.6858 15.269 17.7082 15.0314 17.7087C14.9662 17.7092 14.901 17.7097 14.8338 17.7102C14.7619 17.71 14.69 17.7098 14.618 17.7095C14.542 17.7098 14.466 17.7102 14.39 17.7106C14.1839 17.7115 13.9778 17.7114 13.7716 17.7111C13.5995 17.711 13.4273 17.7113 13.2552 17.7116C12.8491 17.7123 12.443 17.7122 12.037 17.7116C11.6181 17.711 11.1992 17.7117 10.7803 17.7131C10.4205 17.7142 10.0608 17.7145 9.70102 17.7142C9.4862 17.714 9.27138 17.7142 9.05656 17.715C8.85458 17.7158 8.65263 17.7156 8.45066 17.7147C8.37657 17.7145 8.30247 17.7146 8.22838 17.7151C8.12719 17.7158 8.026 17.7151 7.92481 17.7144C7.8682 17.7143 7.81159 17.7143 7.75326 17.7143C7.56918 17.684 7.48719 17.6185 7.35388 17.4907C7.14918 17.1969 7.23493 16.7436 7.27935 16.4094C7.49858 15.2173 8.07521 14.1363 9.08957 13.4362C10.6365 12.4209 12.6741 12.4688 14.1427 13.6273ZM9.29177 14.8572C9.26429 14.8829 9.23681 14.9086 9.2085 14.9352C9.02282 15.1264 8.9043 15.3554 8.78245 15.5901C8.76547 15.622 8.74849 15.654 8.73099 15.6869C8.58351 15.9838 8.56062 16.1952 8.49674 16.5466C10.4808 16.5466 12.4649 16.5466 14.5092 16.5466C14.2907 15.5998 13.9231 14.8725 13.0961 14.3354C11.8065 13.597 10.3302 13.8242 9.29177 14.8572Z" fill="white"/>
<path d="M13.2038 6.86077C13.772 7.35331 14.2125 7.97222 14.2675 8.74125C14.3148 9.61282 14.1243 10.3154 13.5557 10.9906C13.0397 11.5422 12.3567 11.8245 11.6118 11.885C10.8874 11.9057 10.1719 11.6438 9.61883 11.1783C9.07604 10.6628 8.75349 9.98897 8.6955 9.24217C8.68761 8.41748 8.93102 7.70959 9.49208 7.09932C10.5026 6.13688 12.0816 6.00823 13.2038 6.86077ZM10.6831 7.7018C10.6521 7.71922 10.6211 7.73665 10.5891 7.7546C10.2173 7.98739 10.0188 8.3623 9.91134 8.77828C9.82501 9.20849 9.94345 9.60736 10.1707 9.97509C10.4291 10.3372 10.7794 10.5507 11.2048 10.6676C11.6196 10.7195 11.9753 10.6464 12.3384 10.4409C12.6829 10.1685 12.9507 9.86863 13.0682 9.44093C13.1234 8.89898 13.0551 8.46078 12.7079 8.0341C12.4211 7.73004 12.0812 7.52878 11.6604 7.48635C11.2861 7.48215 11.0052 7.50596 10.6831 7.7018Z" fill="white"/>
</g>
<defs>
<clipPath id="clip0_399_909">
<rect width="21.118" height="24" fill="white"/>
</clipPath>
</defs>
</svg>
