<svg width="25" height="24" viewBox="0 0 25 24" fill="none" xmlns="http://www.w3.org/2000/svg">
<mask id="mask0_598_2552" style="mask-type:alpha" maskUnits="userSpaceOnUse" x="0" y="0" width="25" height="24">
<rect x="0.463867" width="24" height="24" fill="#D9D9D9"/>
</mask>
<g mask="url(#mask0_598_2552)">
<path d="M9.46387 18C8.91387 18 8.44303 17.8042 8.05137 17.4125C7.6597 17.0208 7.46387 16.55 7.46387 16V4C7.46387 3.45 7.6597 2.97917 8.05137 2.5875C8.44303 2.19583 8.91387 2 9.46387 2H18.4639C19.0139 2 19.4847 2.19583 19.8764 2.5875C20.268 2.97917 20.4639 3.45 20.4639 4V16C20.4639 16.55 20.268 17.0208 19.8764 17.4125C19.4847 17.8042 19.0139 18 18.4639 18H9.46387ZM9.46387 16H18.4639V4H9.46387V16ZM5.46387 22C4.91387 22 4.44303 21.8042 4.05137 21.4125C3.6597 21.0208 3.46387 20.55 3.46387 20V6H5.46387V20H16.4639V22H5.46387Z" fill="white"/>
</g>
</svg>
