<svg width="17" height="20" viewBox="0 0 17 20" fill="none" xmlns="http://www.w3.org/2000/svg">
<path d="M6 15.9998C5.45 15.9998 4.97917 15.8039 4.5875 15.4123C4.19583 15.0206 4 14.5498 4 13.9998V1.99976C4 1.44976 4.19583 0.978923 4.5875 0.587256C4.97917 0.195589 5.45 -0.000244141 6 -0.000244141H15C15.55 -0.000244141 16.0208 0.195589 16.4125 0.587256C16.8042 0.978923 17 1.44976 17 1.99976V13.9998C17 14.5498 16.8042 15.0206 16.4125 15.4123C16.0208 15.8039 15.55 15.9998 15 15.9998H6ZM6 13.9998H15V1.99976H6V13.9998ZM2 19.9998C1.45 19.9998 0.979167 19.8039 0.5875 19.4123C0.195833 19.0206 0 18.5498 0 17.9998V3.99976H2V17.9998H13V19.9998H2Z" fill="white"/>
</svg>
