<svg width="28" height="38" viewBox="0 0 28 38" fill="none" xmlns="http://www.w3.org/2000/svg">
<path d="M19.8604 15.8335H12.9854V19.0002H19.8604V15.8335Z" fill="#FF7500"/>
<path d="M11.4591 15.8335H7.63965V19.0002H11.4591V15.8335Z" fill="#FF7500"/>
<path d="M19.8604 20.5835H12.9854V23.7502H19.8604V20.5835Z" fill="#FF7500"/>
<path d="M27.2708 8.15417L19.6319 0.2375C19.4909 0.0883387 19.2987 0.00297433 19.0972 0L3.05556 0C2.24517 0 1.46798 0.33363 0.894951 0.927495C0.321924 1.52136 0 2.32681 0 3.16667V34.8333C0 35.6732 0.321924 36.4786 0.894951 37.0725C1.46798 37.6664 2.24517 38 3.05556 38H24.4444C25.2548 38 26.032 37.6664 26.605 37.0725C27.1781 36.4786 27.5 35.6732 27.5 34.8333V8.70833C27.4971 8.49952 27.4148 8.30033 27.2708 8.15417ZM21.3889 29.2917C21.3889 29.5016 21.3084 29.703 21.1652 29.8515C21.0219 29.9999 20.8276 30.0833 20.625 30.0833H6.875C6.6724 30.0833 6.47811 29.9999 6.33485 29.8515C6.19159 29.703 6.11111 29.5016 6.11111 29.2917V15.0417C6.11111 14.8317 6.19159 14.6303 6.33485 14.4819C6.47811 14.3334 6.6724 14.25 6.875 14.25H20.625C20.8276 14.25 21.0219 14.3334 21.1652 14.4819C21.3084 14.6303 21.3889 14.8317 21.3889 15.0417V29.2917ZM21.3889 7.91667C20.9837 7.91667 20.5951 7.74985 20.3086 7.45292C20.0221 7.15599 19.8611 6.75326 19.8611 6.33333V2.7075L24.8875 7.91667H21.3889Z" fill="#FF7500"/>
<path d="M11.4591 20.5835H7.63965V23.7502H11.4591V20.5835Z" fill="#FF7500"/>
<path d="M19.8604 25.3335H12.9854V28.5002H19.8604V25.3335Z" fill="#FF7500"/>
<path d="M11.4591 25.3335H7.63965V28.5002H11.4591V25.3335Z" fill="#FF7500"/>
</svg>
