<svg width="20" height="20" viewBox="0 0 20 20" fill="none" xmlns="http://www.w3.org/2000/svg">
<path d="M10 0C8.02219 0 6.08879 0.58649 4.4443 1.6853C2.79981 2.78412 1.51809 4.3459 0.761209 6.17316C0.00433288 8.00043 -0.1937 10.0111 0.192152 11.9509C0.578004 13.8907 1.53041 15.6725 2.92894 17.0711C4.32746 18.4696 6.10929 19.422 8.0491 19.8078C9.98891 20.1937 11.9996 19.9957 13.8268 19.2388C15.6541 18.4819 17.2159 17.2002 18.3147 15.5557C19.4135 13.9112 20 11.9778 20 10C20 7.34783 18.9464 4.8043 17.0711 2.92893C15.1957 1.05357 12.6522 0 10 0ZM14.2791 12.9936C14.3659 13.0775 14.4352 13.1778 14.4828 13.2887C14.5305 13.3996 14.5555 13.5189 14.5566 13.6396C14.5576 13.7603 14.5346 13.88 14.4889 13.9918C14.4432 14.1035 14.3757 14.205 14.2904 14.2904C14.205 14.3757 14.1035 14.4432 13.9918 14.4889C13.8801 14.5346 13.7603 14.5576 13.6396 14.5566C13.5189 14.5555 13.3996 14.5305 13.2887 14.4828C13.1778 14.4352 13.0775 14.3659 12.9936 14.2791L10 11.2855L7.00637 14.2791C6.92251 14.3659 6.82219 14.4352 6.71128 14.4828C6.60037 14.5305 6.48108 14.5555 6.36037 14.5566C6.23966 14.5576 6.11995 14.5346 6.00823 14.4889C5.8965 14.4432 5.795 14.3757 5.70964 14.2904C5.62429 14.205 5.55678 14.1035 5.51107 13.9918C5.46536 13.88 5.44236 13.7603 5.44341 13.6396C5.44446 13.5189 5.46954 13.3996 5.51718 13.2887C5.56483 13.1778 5.63408 13.0775 5.72091 12.9936L8.71455 10L5.72091 7.00636C5.63408 6.9225 5.56483 6.82219 5.51718 6.71128C5.46954 6.60036 5.44446 6.48107 5.44341 6.36036C5.44236 6.23966 5.46536 6.11995 5.51107 6.00822C5.55678 5.8965 5.62429 5.795 5.70964 5.70964C5.795 5.62428 5.8965 5.55678 6.00823 5.51107C6.11995 5.46536 6.23966 5.44236 6.36037 5.44341C6.48108 5.44446 6.60037 5.46954 6.71128 5.51718C6.82219 5.56482 6.92251 5.63408 7.00637 5.72091L10 8.71454L12.9936 5.72091C13.0775 5.63408 13.1778 5.56482 13.2887 5.51718C13.3996 5.46954 13.5189 5.44446 13.6396 5.44341C13.7603 5.44236 13.8801 5.46536 13.9918 5.51107C14.1035 5.55678 14.205 5.62428 14.2904 5.70964C14.3757 5.795 14.4432 5.8965 14.4889 6.00822C14.5346 6.11995 14.5576 6.23966 14.5566 6.36036C14.5555 6.48107 14.5305 6.60036 14.4828 6.71128C14.4352 6.82219 14.3659 6.9225 14.2791 7.00636L11.2855 10L14.2791 12.9936Z" fill="#FF7500"/>
</svg>
