<svg width="28" height="24" viewBox="0 0 28 24" fill="none" xmlns="http://www.w3.org/2000/svg">
<g clip-path="url(#clip0_41_1905)">
<path d="M14.388 0.568989C14.4242 0.580841 14.4605 0.592692 14.4978 0.604903C15.6949 1.00278 16.8027 1.65196 17.75 2.48278C17.8159 2.54009 17.8159 2.54009 17.883 2.59856C17.9266 2.63716 17.9702 2.67577 18.0151 2.71554C18.0799 2.77285 18.0799 2.77285 18.1461 2.83131C18.2673 2.9483 18.2673 2.9483 18.3594 3.07013C18.6933 3.49247 19.153 3.53844 19.6527 3.6492C21.1795 3.99085 22.5807 4.827 23.75 5.84485C23.7797 5.87069 23.8094 5.89652 23.84 5.92314C24.1611 6.20509 24.4629 6.49593 24.7328 6.82761C24.78 6.88391 24.8272 6.94022 24.8744 6.99652C25.2506 7.45035 25.5763 7.92061 25.8707 8.43106C25.9029 8.4862 25.9029 8.4862 25.9358 8.54246C26.8052 10.0497 27.2362 11.7429 27.2319 13.4767C27.2317 13.6121 27.2329 13.7474 27.2342 13.8828C27.2394 15.2536 26.9516 16.6736 26.3342 17.9057C26.3173 17.9397 26.3003 17.9738 26.2828 18.0089C26.2363 18.0999 26.1877 18.1899 26.1391 18.2799C25.9799 18.7611 26.204 19.2966 26.336 19.7672C26.3727 19.8983 26.4089 20.0296 26.4448 20.1609C26.5472 20.5338 26.6505 20.9065 26.7543 21.279C26.818 21.5079 26.8811 21.7369 26.9437 21.966C26.9675 22.0527 26.9916 22.1392 27.016 22.2257C27.3363 23.3619 27.3363 23.3619 27.1612 23.6872C27.0717 23.8003 26.9829 23.8836 26.8535 23.9483C26.3699 23.9973 25.9511 23.8517 25.4941 23.7122C25.2527 23.639 25.0101 23.57 24.7677 23.5002C24.461 23.4115 24.1549 23.3218 23.8498 23.2279C22.5187 22.7542 22.5187 22.7542 21.1848 22.9698C21.0581 23.0428 20.9369 23.1196 20.8163 23.2024C20.6135 23.3287 20.3912 23.3997 20.1649 23.4731C20.1188 23.4881 20.0726 23.5031 20.0251 23.5186C19.0321 23.8347 18.0018 23.9604 16.9645 23.9612C16.9255 23.9613 16.8865 23.9613 16.8463 23.9613C14.421 23.9579 12.033 23.1262 10.1983 21.5173C10.1544 21.4791 10.1106 21.4409 10.0654 21.4015C10.0218 21.3629 9.97816 21.3243 9.93323 21.2845C9.86842 21.2272 9.86842 21.2272 9.8023 21.1687C9.68108 21.0517 9.68108 21.0517 9.58894 20.9299C9.25507 20.5076 8.79556 20.4616 8.29584 20.351C8.00998 20.2871 7.73709 20.2054 7.4634 20.1013C7.43 20.0888 7.39659 20.0763 7.36217 20.0634C7.15969 19.9857 6.96658 19.9038 6.77722 19.7977C6.24914 19.5102 5.89138 19.4621 5.31354 19.6253C5.22532 19.6524 5.13712 19.6795 5.04894 19.7067C4.95575 19.733 4.86248 19.7589 4.76914 19.7847C4.52603 19.8524 4.28416 19.9238 4.04237 19.9961C3.79536 20.0692 3.54735 20.1388 3.29941 20.2087C2.90009 20.3217 2.50145 20.4367 2.10357 20.5547C1.2911 20.7951 1.2911 20.7951 0.994047 20.6355C0.849956 20.5169 0.744852 20.4153 0.718997 20.2272C0.699673 19.7244 0.84751 19.2653 0.981722 18.7862C1.00731 18.6927 1.03282 18.5991 1.05826 18.5056C1.125 18.2607 1.19253 18.0161 1.2603 17.7715C1.36892 17.3793 1.47663 16.9868 1.58377 16.5942C1.62123 16.4575 1.6592 16.321 1.69724 16.1845C1.72027 16.1006 1.74328 16.0167 1.76627 15.9328C1.78223 15.8763 1.78223 15.8763 1.79852 15.8187C1.9057 15.4237 1.88118 15.1919 1.69293 14.8352C1.22873 13.8987 0.92962 12.8787 0.784524 11.8449C0.775506 11.7813 0.766488 11.7177 0.757197 11.6522C0.729375 11.426 0.723593 11.2021 0.722293 10.9744C0.72193 10.9319 0.721568 10.8893 0.721195 10.8455C0.720293 10.7088 0.71996 10.5721 0.719869 10.4354C0.719834 10.3887 0.719799 10.3421 0.719763 10.2941C0.720559 9.62617 0.738092 8.98109 0.887972 8.32761C0.896848 8.28616 0.905724 8.24472 0.91487 8.20201C1.26248 6.59317 1.96062 5.01338 3.06039 3.77589C3.09499 3.73568 3.1296 3.69547 3.16525 3.65405C5.95907 0.464831 10.3374 -0.78006 14.388 0.568989ZM4.99762 3.65708C4.88713 3.76053 4.77395 3.8573 4.65737 3.95369C4.40174 4.17658 4.19984 4.44069 3.99142 4.70692C3.94915 4.75873 3.90688 4.81053 3.86332 4.86391C3.52424 5.28388 3.25636 5.72802 3.00866 6.20692C2.99066 6.24131 2.97266 6.2757 2.95411 6.31113C2.03885 8.08056 1.70109 10.3075 2.18108 12.2586C2.1977 12.3352 2.21427 12.4118 2.23078 12.4884C2.41571 13.2987 2.72149 14.1257 3.16303 14.8318C3.29666 15.1282 3.26555 15.3859 3.18294 15.6917C3.17336 15.7279 3.16378 15.7641 3.15392 15.8014C3.12237 15.92 3.08987 16.0384 3.05736 16.1567C3.03518 16.2395 3.01308 16.3222 2.99103 16.4049C2.93304 16.622 2.87425 16.8388 2.81526 17.0556C2.74355 17.3196 2.6727 17.5839 2.60182 17.8482C2.54672 18.0536 2.49145 18.259 2.43569 18.4643C2.41564 18.5384 2.3956 18.6125 2.37556 18.6866C2.35794 18.7515 2.34033 18.8163 2.32218 18.8831C2.28036 19.0252 2.28036 19.0252 2.28452 19.138C2.80048 19.0227 3.31168 18.8935 3.8217 18.7543C3.87951 18.7385 3.93732 18.7227 3.99688 18.7065C4.23716 18.6409 4.4774 18.575 4.71753 18.5088C4.89513 18.46 5.07284 18.4115 5.25058 18.3631C5.30425 18.3482 5.35792 18.3333 5.41322 18.3179C6.26036 18.0881 6.26036 18.0881 6.60834 18.2692C6.68345 18.3069 6.68345 18.3069 6.76008 18.3453C6.81082 18.3722 6.86156 18.3991 6.91383 18.4267C7.26299 18.6061 7.59773 18.7658 7.97418 18.8793C7.91311 18.7146 7.84084 18.5583 7.76203 18.4015C7.26939 17.4164 6.91471 16.3979 6.7328 15.3104C6.7212 15.245 6.7096 15.1797 6.69764 15.1124C6.45996 13.504 6.63487 11.8296 7.14659 10.2931C7.15844 10.2569 7.1703 10.2206 7.18251 10.1833C7.57138 9.01325 8.20297 7.91534 9.00866 6.98278C9.04393 6.94184 9.0792 6.9009 9.11554 6.85872C9.23297 6.72554 9.35285 6.59518 9.47418 6.46554C9.54179 6.39283 9.54179 6.39283 9.61076 6.31865C11.4403 4.3961 14.059 3.4529 16.6638 3.31037C15.4898 2.04357 13.3171 1.42979 11.6563 1.33341C11.4558 1.32737 11.2557 1.32518 11.055 1.32545C11.0016 1.3255 11.0016 1.3255 10.9471 1.32554C8.76377 1.33339 6.59381 2.15423 4.99762 3.65708ZM10.7402 7.0115C10.659 7.09098 10.5768 7.1693 10.4945 7.24767C9.91735 7.80399 9.46129 8.40717 9.06039 9.10347C9.02638 9.16175 8.99238 9.22002 8.95734 9.28006C8.45548 10.1638 8.16308 11.1089 7.97418 12.1035C7.96144 12.1666 7.94871 12.2298 7.93559 12.2948C7.55379 14.5619 8.18075 16.9982 9.50186 18.8614C9.77078 19.2264 10.0732 19.5637 10.3861 19.8912C10.4548 19.9633 10.5225 20.0361 10.5903 20.109C12.0548 21.6393 14.2977 22.6134 16.4133 22.6675C18.0639 22.6939 19.5808 22.4264 21.0608 21.6706C21.0949 21.6536 21.129 21.6366 21.1642 21.6191C21.2577 21.5722 21.3505 21.5238 21.4433 21.4752C21.9088 21.3216 22.4379 21.5486 22.8948 21.6743C22.9716 21.6951 23.0483 21.7159 23.1251 21.7367C23.3259 21.791 23.5266 21.8458 23.7273 21.9007C24.0497 21.9888 24.3722 22.0763 24.6948 22.1638C24.8073 22.1944 24.9198 22.2252 25.0322 22.256C25.1008 22.2746 25.1693 22.2933 25.2379 22.3119C25.2978 22.3283 25.3578 22.3447 25.4195 22.3616C25.5529 22.4007 25.5529 22.4007 25.6638 22.3966C25.5932 21.9997 25.4917 21.6139 25.3834 21.2258C25.3329 21.044 25.2834 20.8619 25.2337 20.6799C25.1708 20.4498 25.1076 20.2197 25.0433 19.99C24.9909 19.8029 24.9396 19.6155 24.889 19.4278C24.8696 19.3569 24.8499 19.2861 24.8298 19.2155C24.6793 18.6856 24.6488 18.3306 24.9064 17.8378C24.9299 17.7915 24.9534 17.7452 24.9776 17.6975C25.0024 17.649 25.0273 17.6006 25.0528 17.5507C25.337 16.9739 25.5552 16.3985 25.7156 15.7759C25.7271 15.7315 25.7386 15.6871 25.7505 15.6413C26.302 13.3985 25.8381 10.9288 24.6781 8.95881C24.5668 8.77641 24.4455 8.60307 24.319 8.43106C24.2804 8.37778 24.2418 8.32451 24.202 8.26962C23.7287 7.62859 23.196 7.0518 22.5604 6.56899C22.4881 6.51188 22.4881 6.51188 22.4143 6.45362C19.0077 3.81114 13.8568 3.95582 10.7402 7.0115Z" fill="#333333"/>
<path d="M11.979 14.5148C12.0227 14.5146 12.0665 14.5143 12.1116 14.5141C12.2581 14.5135 12.4047 14.514 12.5513 14.5145C12.6564 14.5142 12.7615 14.514 12.8666 14.5136C13.152 14.5129 13.4374 14.5132 13.7229 14.5137C14.0215 14.5141 14.32 14.5137 14.6186 14.5135C15.1201 14.5132 15.6215 14.5136 16.1229 14.5143C16.7028 14.5152 17.2827 14.5149 17.8626 14.514C18.3603 14.5133 18.858 14.5132 19.3557 14.5136C19.653 14.5139 19.9504 14.5139 20.2477 14.5134C20.5272 14.5129 20.8068 14.5132 21.0863 14.5141C21.1889 14.5144 21.2916 14.5143 21.3942 14.514C21.5342 14.5135 21.6742 14.5141 21.8142 14.5148C21.8549 14.5145 21.8957 14.5141 21.9376 14.5138C22.2246 14.5169 22.3847 14.5835 22.5992 14.7673C22.7333 14.9283 22.7302 15.1086 22.7265 15.3106C22.7099 15.4673 22.6625 15.5533 22.5604 15.6725C22.3111 15.8281 22.0948 15.8498 21.808 15.8473C21.7642 15.8476 21.7204 15.8478 21.6752 15.8481C21.5288 15.8487 21.3825 15.8482 21.236 15.8477C21.1309 15.8479 21.0258 15.8482 20.9207 15.8485C20.6355 15.8492 20.3503 15.849 20.0651 15.8485C19.7666 15.8481 19.4682 15.8485 19.1697 15.8487C18.6686 15.849 18.1675 15.8486 17.6663 15.8479C17.0868 15.847 16.5073 15.8473 15.9278 15.8482C15.4303 15.8489 14.9328 15.849 14.4354 15.8486C14.1382 15.8483 13.841 15.8483 13.5439 15.8488C13.2646 15.8492 12.9853 15.8489 12.7059 15.848C12.6034 15.8478 12.5008 15.8479 12.3982 15.8482C12.2584 15.8486 12.1185 15.8481 11.9786 15.8473C11.9379 15.8477 11.8972 15.848 11.8553 15.8484C11.6209 15.8459 11.4708 15.8174 11.2845 15.6725C11.1437 15.505 11.0828 15.3985 11.0518 15.1811C11.0888 14.9221 11.1878 14.765 11.3941 14.6045C11.5899 14.5126 11.7671 14.513 11.979 14.5148Z" fill="#333333"/>
<path d="M11.823 11.4048C11.9234 11.4039 11.9234 11.4039 12.0258 11.403C12.0996 11.4034 12.1734 11.4038 12.2472 11.4043C12.3252 11.404 12.4032 11.4036 12.4813 11.4032C12.6929 11.4022 12.9044 11.4026 13.116 11.4033C13.3376 11.4038 13.5592 11.4033 13.7808 11.403C14.153 11.4026 14.5251 11.4031 14.8973 11.4041C15.3273 11.4052 15.7573 11.4048 16.1873 11.4037C16.5566 11.4028 16.926 11.4026 17.2954 11.4032C17.516 11.4035 17.7365 11.4035 17.957 11.4029C18.1644 11.4023 18.3718 11.4027 18.5792 11.4039C18.6552 11.4041 18.7312 11.4041 18.8072 11.4036C18.9112 11.403 19.0152 11.4039 19.1191 11.4048C19.1772 11.4049 19.2353 11.4049 19.2952 11.405C19.4967 11.4374 19.6086 11.5119 19.7674 11.638C19.9144 11.8584 19.897 12.0517 19.8709 12.3104C19.7997 12.4961 19.7461 12.5511 19.5752 12.652C19.3927 12.7296 19.2709 12.7437 19.0736 12.7439C18.9751 12.7445 18.9751 12.7445 18.8745 12.7452C18.8024 12.7449 18.7302 12.7446 18.6581 12.7442C18.5816 12.7445 18.5051 12.7447 18.4286 12.7451C18.2214 12.7458 18.0142 12.7455 17.807 12.745C17.5899 12.7446 17.3728 12.745 17.1557 12.7452C16.7911 12.7455 16.4266 12.7451 16.0621 12.7444C15.6409 12.7435 15.2198 12.7438 14.7986 12.7447C14.4367 12.7454 14.0748 12.7455 13.7128 12.7451C13.4968 12.7448 13.2808 12.7448 13.0648 12.7453C12.8617 12.7458 12.6586 12.7454 12.4555 12.7446C12.381 12.7443 12.3066 12.7444 12.2322 12.7447C12.1304 12.7452 12.0286 12.7445 11.9268 12.7439C11.8699 12.7438 11.8129 12.7437 11.7543 12.7437C11.531 12.7163 11.3584 12.6351 11.1909 12.4849C11.0959 12.295 11.0717 12.1081 11.0778 11.8966C11.2151 11.5534 11.4621 11.4053 11.823 11.4048Z" fill="#333333"/>
</g>
<defs>
<clipPath id="clip0_41_1905">
<rect width="26.6379" height="24" fill="white" transform="translate(0.681152)"/>
</clipPath>
</defs>
</svg>
