<svg width="6" height="24" viewBox="0 0 6 24" fill="none" xmlns="http://www.w3.org/2000/svg">
<path d="M0.20874 21.3392C0.20874 20.7165 0.4561 20.1193 0.896403 19.679C1.33671 19.2387 1.93388 18.9913 2.55657 18.9913C3.17925 18.9913 3.77643 19.2387 4.21673 19.679C4.65703 20.1193 4.90439 20.7165 4.90439 21.3392C4.90439 21.9619 4.65703 22.559 4.21673 22.9993C3.77643 23.4396 3.17925 23.687 2.55657 23.687C1.93388 23.687 1.33671 23.4396 0.896403 22.9993C0.4561 22.559 0.20874 21.9619 0.20874 21.3392ZM0.20874 11.9479C0.20874 11.3252 0.4561 10.728 0.896403 10.2877C1.33671 9.8474 1.93388 9.60004 2.55657 9.60004C3.17925 9.60004 3.77643 9.8474 4.21673 10.2877C4.65703 10.728 4.90439 11.3252 4.90439 11.9479C4.90439 12.5706 4.65703 13.1677 4.21673 13.608C3.77643 14.0483 3.17925 14.2957 2.55657 14.2957C1.93388 14.2957 1.33671 14.0483 0.896403 13.608C0.4561 13.1677 0.20874 12.5706 0.20874 11.9479ZM0.20874 2.55657C0.20874 1.93388 0.4561 1.33671 0.896403 0.896403C1.33671 0.4561 1.93388 0.20874 2.55657 0.20874C3.17925 0.20874 3.77643 0.4561 4.21673 0.896403C4.65703 1.33671 4.90439 1.93388 4.90439 2.55657C4.90439 3.17925 4.65703 3.77643 4.21673 4.21673C3.77643 4.65703 3.17925 4.90439 2.55657 4.90439C1.93388 4.90439 1.33671 4.65703 0.896403 4.21673C0.4561 3.77643 0.20874 3.17925 0.20874 2.55657Z" fill="#333333"/>
</svg>
