<svg width="19" height="26" viewBox="0 0 19 26" fill="none" xmlns="http://www.w3.org/2000/svg">
<path fill-rule="evenodd" clip-rule="evenodd" d="M16.7647 26H2.23529C1.00085 26 0 24.9877 0 23.7391V2.26087C0 1.0123 1.00085 0 2.23529 0H12.8379C12.839 0 12.8406 0 12.8418 0H12.8529C13.0318 0 13.1843 0.091 13.2866 0.223261L18.7793 5.77878C18.9106 5.88222 19 6.03652 19 6.21739V6.22926C19 6.23039 19 6.23096 19 6.23209V23.7391C19 24.9877 17.9991 26 16.7647 26ZM13.4118 1.911V5.65217H17.1106L13.4118 1.911ZM17.8824 6.78261H12.8529C12.5439 6.78261 12.2941 6.52939 12.2941 6.21739V1.13043H2.23529C1.61835 1.13043 1.11765 1.63687 1.11765 2.26087V23.7391C1.11765 24.3631 1.61835 24.8696 2.23529 24.8696H16.7647C17.3816 24.8696 17.8824 24.3631 17.8824 23.7391V6.78261ZM14.5294 21.4783H4.47059C4.16156 21.4783 3.91176 21.2256 3.91176 20.913C3.91176 20.601 4.16156 20.3478 4.47059 20.3478H14.5294C14.8384 20.3478 15.0882 20.601 15.0882 20.913C15.0882 21.2256 14.8384 21.4783 14.5294 21.4783ZM14.5294 16.9565H4.47059C4.16156 16.9565 3.91176 16.7039 3.91176 16.3913C3.91176 16.0793 4.16156 15.8261 4.47059 15.8261H14.5294C14.8384 15.8261 15.0882 16.0793 15.0882 16.3913C15.0882 16.7039 14.8384 16.9565 14.5294 16.9565ZM14.5294 12.4348H4.47059C4.16156 12.4348 3.91176 12.1821 3.91176 11.8696C3.91176 11.5576 4.16156 11.3043 4.47059 11.3043H14.5294C14.8384 11.3043 15.0882 11.5576 15.0882 11.8696C15.0882 12.1821 14.8384 12.4348 14.5294 12.4348Z" fill="white"/>
</svg>
