<svg width="29" height="32" viewBox="0 0 29 32" fill="none" xmlns="http://www.w3.org/2000/svg">
<path d="M28.1443 11.9797H24.4737C24.0323 10.2738 23.167 8.73947 21.99 7.49625L23.9456 4.77818C24.2218 4.39462 24.1345 3.85981 23.7509 3.58405C23.367 3.30788 22.833 3.39562 22.5568 3.77876L20.7061 6.35111C19.203 5.2171 17.3847 4.48445 15.4025 4.31889V0.855694C15.4025 0.38314 15.0193 0 14.5468 0C14.0742 0 13.6911 0.38314 13.6911 0.855694V4.31858C11.6833 4.48513 9.84132 5.23423 8.32515 6.39452L6.44319 3.77876C6.16659 3.3952 5.6322 3.30662 5.24906 3.58405C4.86551 3.85981 4.77818 4.39462 5.05436 4.77818L7.04913 7.55073C5.897 8.78439 5.04814 10.2983 4.61246 11.9797H0.855694C0.38314 11.9797 0 12.3629 0 12.8354C0 13.308 0.38314 13.6911 0.855694 13.6911H4.31774C4.29435 13.973 4.27445 14.2559 4.27445 14.5437V23.1781C4.55334 23.131 4.83793 23.1008 5.12998 23.1008H23.9552C24.2474 23.1008 24.5321 23.131 24.8111 23.1781V14.5437C24.8111 14.2559 24.7913 13.973 24.7679 13.6911H28.1443C28.6169 13.6911 29 13.308 29 12.8354C29 12.3629 28.6169 11.9797 28.1443 11.9797ZM12.8354 10.2683C11.4198 10.2683 10.2683 11.4198 10.2683 12.8354C10.2683 13.308 9.88519 13.6911 9.41263 13.6911C8.94008 13.6911 8.55694 13.308 8.55694 12.8354C8.55694 10.4764 10.4764 8.55694 12.8354 8.55694C13.308 8.55694 13.6911 8.94008 13.6911 9.41263C13.6911 9.88519 13.308 10.2683 12.8354 10.2683Z" fill="#FF7500"/>
<path d="M23.9551 24.812H5.12981C3.24732 24.812 1.70703 26.3523 1.70703 28.2348C1.70703 30.1259 3.24732 31.6576 5.12981 31.6576H23.9551C25.8462 31.6576 27.3778 30.1259 27.3778 28.2348C27.3778 26.3523 25.8462 24.812 23.9551 24.812Z" fill="#FF7500"/>
</svg>
