<svg width="22" height="23" viewBox="0 0 22 23" fill="none" xmlns="http://www.w3.org/2000/svg">
<path d="M20.4477 8.70362H17.7808C17.4602 7.46423 16.8315 6.34949 15.9764 5.44625L17.3972 3.47149C17.5979 3.19283 17.5344 2.80427 17.2558 2.60392C16.9768 2.40327 16.5889 2.46702 16.3882 2.74538L15.0436 4.61427C13.9515 3.79038 12.6305 3.25809 11.1904 3.13781V0.621687C11.1904 0.278363 10.912 0 10.5687 0C10.2254 0 9.947 0.278363 9.947 0.621687V3.13758C8.48829 3.25858 7.15001 3.80283 6.04847 4.64581L4.68117 2.74538C4.48022 2.46671 4.09197 2.40236 3.8136 2.60392C3.53494 2.80427 3.47149 3.19283 3.67214 3.47149L5.12141 5.48583C4.28435 6.38212 3.66763 7.48199 3.35109 8.70362H0.621687C0.278363 8.70362 0 8.98199 0 9.32531C0 9.66863 0.278363 9.947 0.621687 9.947H3.13697C3.11997 10.1518 3.10551 10.3574 3.10551 10.5664V16.8396C3.30814 16.8054 3.5149 16.7834 3.72709 16.7834H17.4042C17.6165 16.7834 17.8233 16.8054 18.026 16.8396V10.5664C18.026 10.3574 18.0116 10.1518 17.9946 9.947H20.4477C20.791 9.947 21.0694 9.66863 21.0694 9.32531C21.0694 8.98199 20.791 8.70362 20.4477 8.70362ZM9.32531 7.46025C8.29685 7.46025 7.46025 8.29685 7.46025 9.32531C7.46025 9.66863 7.18188 9.947 6.83856 9.947C6.49524 9.947 6.21687 9.66863 6.21687 9.32531C6.21687 7.61142 7.61142 6.21687 9.32531 6.21687C9.66863 6.21687 9.947 6.49524 9.947 6.83856C9.947 7.18188 9.66863 7.46025 9.32531 7.46025Z" fill="#333333"/>
<path d="M17.4041 18.0265H3.72698C2.3593 18.0265 1.24023 19.1455 1.24023 20.5132C1.24023 21.8872 2.3593 23 3.72698 23H17.4041C18.778 23 19.8909 21.8872 19.8909 20.5132C19.8909 19.1455 18.778 18.0265 17.4041 18.0265Z" fill="#333333"/>
</svg>
