<svg width="33" height="36" viewBox="0 0 33 36" fill="none" xmlns="http://www.w3.org/2000/svg">
<path fill-rule="evenodd" clip-rule="evenodd" d="M16.5019 0C13.6765 0 11.3584 2.31807 11.3584 5.14351C11.3584 5.14608 11.3584 5.14865 11.3584 5.15122C11.3635 6.02135 11.5876 6.87679 12.0139 7.63759C12.0963 7.78505 12.207 7.91483 12.3396 8.01951C12.4722 8.12419 12.6241 8.20173 12.7867 8.24767C12.9492 8.29362 13.1192 8.30708 13.287 8.2873C13.4548 8.26751 13.617 8.21487 13.7644 8.13236C13.9119 8.04995 14.0417 7.93928 14.1463 7.80669C14.251 7.6741 14.3285 7.52218 14.3745 7.35962C14.4204 7.19705 14.4339 7.02703 14.4141 6.85926C14.3943 6.69149 14.3417 6.52926 14.2592 6.38185C14.0472 6.00357 13.9336 5.57666 13.9302 5.14119C13.9314 3.70682 15.0672 2.57193 16.5019 2.57193C17.9366 2.57193 19.0723 3.70682 19.0737 5.14119C19.0698 5.57219 18.9594 5.9952 18.7497 6.37181C18.5841 6.6696 18.5434 7.02095 18.6366 7.3487C18.7299 7.67645 18.9494 7.95378 19.247 8.11979C19.5448 8.28543 19.8961 8.32609 20.2239 8.23285C20.5516 8.13961 20.8289 7.9201 20.995 7.62252C21.4159 6.86655 21.6402 6.01645 21.6454 5.15122C21.6454 5.14865 21.6454 5.14608 21.6454 5.14351C21.6454 2.31807 19.3274 0 16.5019 0Z" fill="white"/>
<path fill-rule="evenodd" clip-rule="evenodd" d="M16.5018 5.14349C10.1255 5.14349 4.92892 10.3401 4.92892 16.7164V24.4317C2.81404 24.4317 1.07129 26.1744 1.07129 28.2893C1.07129 30.4042 2.81404 32.1469 4.92892 32.1469H28.0747C30.1896 32.1469 31.9324 30.4042 31.9324 28.2893C31.9324 26.1744 30.1896 24.4317 28.0747 24.4317V16.7164C28.0747 10.3401 22.8781 5.14349 16.5018 5.14349ZM16.5018 7.71525C21.4882 7.71525 25.503 11.73 25.503 16.7164V25.7175C25.503 26.0586 25.6385 26.3856 25.8797 26.6268C26.1208 26.8679 26.4478 27.0034 26.7889 27.0034H28.0747C28.8093 27.0034 29.3606 27.5547 29.3606 28.2893C29.3606 29.0239 28.8093 29.5752 28.0747 29.5752H4.92892C4.19434 29.5752 3.64305 29.0239 3.64305 28.2893C3.64305 27.5547 4.19434 27.0034 4.92892 27.0034H6.2148C6.55583 27.0034 6.88286 26.8679 7.124 26.6268C7.36514 26.3856 7.50064 26.0586 7.50068 25.7175V16.7164C7.50068 11.73 11.5154 7.71525 16.5018 7.71525Z" fill="white"/>
<path fill-rule="evenodd" clip-rule="evenodd" d="M10.072 33.4329C9.73097 33.4329 9.40393 33.5683 9.16278 33.8095C8.92163 34.0506 8.78613 34.3777 8.78613 34.7187C8.78613 35.0598 8.92163 35.3868 9.16278 35.628C9.40393 35.8691 9.73097 36.0046 10.072 36.0046H22.9308C23.2718 36.0046 23.5989 35.8691 23.84 35.628C24.0812 35.3868 24.2167 35.0598 24.2167 34.7187C24.2167 34.3777 24.0812 34.0506 23.84 33.8095C23.5989 33.5683 23.2718 33.4329 22.9308 33.4329H10.072Z" fill="white"/>
<path fill-rule="evenodd" clip-rule="evenodd" d="M27.5238 4.19434C27.3972 4.08246 27.2498 3.99664 27.09 3.94177C26.9302 3.8869 26.7611 3.86406 26.5925 3.87455C26.4238 3.88505 26.2589 3.92868 26.1072 4.00294C25.9554 4.07721 25.8198 4.18065 25.708 4.30736C25.5961 4.43398 25.5103 4.5814 25.4554 4.7412C25.4006 4.901 25.3777 5.07006 25.3882 5.23869C25.3987 5.40732 25.4424 5.57224 25.5166 5.724C25.5909 5.87577 25.6943 6.0114 25.821 6.12316C28.2108 8.23131 29.8934 11.1206 30.4472 14.3659C30.4755 14.5324 30.5363 14.6918 30.6262 14.8349C30.7162 14.978 30.8334 15.1019 30.9712 15.1996C31.1091 15.2974 31.2648 15.367 31.4296 15.4045C31.5944 15.442 31.7649 15.4466 31.9315 15.4182C32.2675 15.3605 32.5668 15.1717 32.7637 14.8934C32.9605 14.615 33.0388 14.2699 32.9813 13.9339C32.325 10.0879 30.3391 6.67786 27.5238 4.19434Z" fill="white"/>
<path fill-rule="evenodd" clip-rule="evenodd" d="M6.42264 3.86524C6.25399 3.85457 6.08489 3.87725 5.92501 3.93198C5.76513 3.98671 5.61761 4.07241 5.49088 4.18419C2.66872 6.66883 0.675035 10.0839 0.0183628 13.9363C-0.0100938 14.1028 -0.00543671 14.2734 0.0320583 14.4381C0.0695532 14.6029 0.139131 14.7587 0.236862 14.8965C0.334592 15.0344 0.458547 15.1516 0.601615 15.2415C0.744683 15.3314 0.904078 15.3923 1.07067 15.4206C1.23724 15.449 1.40777 15.4444 1.57254 15.4069C1.7373 15.3694 1.89307 15.2998 2.03092 15.202C2.16877 15.1043 2.28602 14.9804 2.37594 14.8373C2.46586 14.6942 2.52668 14.5348 2.55496 14.3682C3.10907 11.1176 4.79319 8.22449 7.18864 6.11552C7.31554 6.00394 7.41917 5.86844 7.49367 5.71677C7.56816 5.56509 7.61204 5.40022 7.62277 5.23158C7.63351 5.06294 7.61092 4.89385 7.55626 4.73395C7.5016 4.57406 7.41597 4.4265 7.30425 4.29972C7.07952 4.04388 6.76242 3.88763 6.42264 3.86524Z" fill="white"/>
</svg>
