<svg width="38" height="38" viewBox="0 0 38 38" fill="none" xmlns="http://www.w3.org/2000/svg">
<path fill-rule="evenodd" clip-rule="evenodd" d="M19 38C29.4934 38 38 29.4934 38 19C38 8.50659 29.4934 0 19 0C8.50659 0 0 8.50659 0 19C0 29.4934 8.50659 38 19 38Z" fill="#FF7500"/>
<path fill-rule="evenodd" clip-rule="evenodd" d="M12 16.3077C12 20.344 19.3077 29.7841 19.3077 29.5277C19.3077 29.2714 26.6154 20.344 26.6154 16.3077C26.6154 12.2714 23.3415 9 19.3077 9C15.2738 9 12 12.2714 12 16.3077ZM15.6538 15.5769C15.6538 17.5951 17.2908 19.2308 19.3077 19.2308C21.3246 19.2308 22.9615 17.5951 22.9615 15.5769C22.9615 13.5588 21.3246 11.9231 19.3077 11.9231C17.2908 11.9231 15.6538 13.5588 15.6538 15.5769Z" fill="white"/>
</svg>
