<svg width="24" height="24" viewBox="0 0 24 24" fill="none" xmlns="http://www.w3.org/2000/svg">
<g clip-path="url(#clip0_637_1214)">
<path d="M0.8086 22.0013C0.725548 22.0129 0.641286 22.0129 0.558233 22.0013C0.389561 21.9465 0.243603 21.8378 0.142887 21.6918C0.0421714 21.5458 -0.0077018 21.3707 0.000965605 21.1936V20.3858C0.00128505 16.7358 1.30234 13.2053 3.67062 10.4281C6.0389 7.65095 9.31933 5.80889 12.9231 5.23257V1.80774C12.9231 1.65774 12.9649 1.51069 13.0437 1.38309C13.1226 1.25548 13.2354 1.15236 13.3696 1.08528C13.5037 1.01819 13.6539 0.989793 13.8033 1.00326C13.9527 1.01674 14.0953 1.07154 14.2153 1.16155L23.9069 8.43123C24.0073 8.50647 24.0887 8.60403 24.1447 8.71619C24.2008 8.82835 24.23 8.95202 24.23 9.07742C24.23 9.20282 24.2008 9.32649 24.1447 9.43865C24.0887 9.55081 24.0073 9.64838 23.9069 9.72361L14.2153 16.9933C14.0953 17.0833 13.9527 17.1381 13.8033 17.1516C13.6539 17.165 13.5037 17.1367 13.3696 17.0696C13.2354 17.0025 13.1226 16.8994 13.0437 16.7718C12.9649 16.6442 12.9231 16.4971 12.9231 16.3471V13.3181C9.01225 13.9564 5.51013 16.1096 3.17497 19.3115L1.46278 21.6701C1.3876 21.773 1.28913 21.8567 1.17543 21.9142C1.06174 21.9718 0.936033 22.0016 0.8086 22.0013ZM14.5384 3.42323V5.94338C14.5396 6.14307 14.4668 6.33612 14.3341 6.48529C14.2013 6.63446 14.018 6.72916 13.8196 6.75112C10.7743 7.08341 7.92752 8.42474 5.7323 10.5617C3.53707 12.6987 2.11948 15.5085 1.70507 18.5442L1.8343 18.3745C3.21637 16.4766 4.98299 14.8913 7.01891 13.7222C9.05484 12.5531 11.3143 11.8264 13.65 11.5895C13.7626 11.579 13.8761 11.5923 13.9832 11.6285C14.0903 11.6646 14.1887 11.7229 14.2719 11.7995C14.3555 11.875 14.4225 11.9672 14.4684 12.0702C14.5143 12.1731 14.5381 12.2845 14.5384 12.3972V14.7316L22.0736 9.07742L14.5384 3.42323Z" fill="white"/>
</g>
<defs>
<clipPath id="clip0_637_1214">
<rect width="24" height="24" fill="white"/>
</clipPath>
</defs>
</svg>
