<svg width="34" height="24" viewBox="0 0 34 24" fill="none" xmlns="http://www.w3.org/2000/svg">
<g clip-path="url(#clip0_26_378)">
<path d="M22.8643 12.6798C23.1223 12.9054 23.1223 12.9054 23.426 13.049C23.5703 12.9916 23.5703 12.9916 23.7129 12.885C24.6173 12.3067 25.6953 11.975 26.7702 11.9342C26.8593 11.9303 26.8593 11.9303 26.9501 11.9263C28.6421 11.8881 30.188 12.4446 31.4916 13.508C31.531 13.5383 31.5705 13.5685 31.6112 13.5997C32.804 14.5327 33.5893 16.158 33.7866 17.6391C33.8097 18.0871 33.8072 18.5364 33.8096 18.9848C33.8107 19.1312 33.8125 19.2776 33.815 19.4239C33.8186 19.6362 33.82 19.8484 33.821 20.0608C33.8224 20.1257 33.8239 20.1906 33.8255 20.2574C33.824 20.743 33.7014 21.0614 33.3618 21.4111C32.9609 21.7675 32.6101 21.7892 32.0983 21.7852C32.0023 21.7852 32.0023 21.7852 31.9043 21.7852C31.6932 21.7851 31.4821 21.7841 31.271 21.7831C31.1245 21.7828 30.9779 21.7827 30.8314 21.7825C30.446 21.782 30.0606 21.7807 29.6752 21.7793C29.2818 21.7779 28.8884 21.7773 28.495 21.7767C27.7234 21.7753 26.9517 21.773 26.1801 21.7703C26.1804 21.8535 26.1807 21.9367 26.181 22.0225C26.1833 22.6542 25.9972 23.0541 25.5607 23.5082C25.1273 23.9049 24.6502 23.9634 24.0913 23.9596C24.0281 23.96 23.9649 23.9603 23.8998 23.9607C23.6891 23.9616 23.4784 23.9612 23.2677 23.9607C23.1162 23.9611 22.9648 23.9615 22.8133 23.9621C22.4025 23.9633 21.9917 23.9632 21.5809 23.9628C21.2377 23.9626 20.8946 23.963 20.5514 23.9634C19.6953 23.9644 18.8393 23.9641 17.9833 23.9633C17.2408 23.9627 16.4984 23.9635 15.756 23.9651C14.9926 23.9667 14.2292 23.9673 13.4658 23.9669C13.0376 23.9667 12.6095 23.9668 12.1813 23.968C11.7786 23.969 11.3759 23.9687 10.9732 23.9675C10.8257 23.9672 10.6781 23.9674 10.5306 23.9681C10.3286 23.969 10.1268 23.9682 9.92488 23.9671C9.86693 23.9677 9.80899 23.9683 9.74928 23.969C9.21994 23.9628 8.74776 23.8207 8.35221 23.4588C7.98758 23.0555 7.8817 22.6922 7.81942 22.1637C7.73791 22.1646 7.65639 22.1655 7.5724 22.1664C6.80255 22.1744 6.03271 22.1803 5.26282 22.1841C4.86705 22.1862 4.47132 22.1889 4.07557 22.1934C3.69334 22.1977 3.31113 22.2 2.92888 22.2011C2.78336 22.2018 2.63785 22.2032 2.49235 22.2053C1.11585 22.2247 1.11585 22.2247 0.647403 21.8754C0.355495 21.5877 0.2064 21.3015 0.20126 20.8865C0.200418 20.8271 0.199575 20.7677 0.198708 20.7065C0.198224 20.6422 0.19774 20.5779 0.197241 20.5116C0.196447 20.4112 0.196448 20.4112 0.195638 20.3087C0.19473 20.1664 0.194027 20.0241 0.193511 19.8817C0.192762 19.738 0.191431 19.5943 0.189477 19.4506C0.16119 17.3694 0.730557 15.7318 2.18418 14.1965C3.59348 12.8184 5.37861 12.3613 7.29765 12.3794C8.42216 12.4037 9.46002 12.7776 10.4424 13.3113C10.4821 13.267 10.4821 13.267 10.5225 13.2219C13.7236 9.83053 19.3564 9.80246 22.8643 12.6798ZM10.8932 14.508C9.62548 15.9914 8.98183 17.8232 8.97772 19.7682C8.97729 19.8419 8.97685 19.9156 8.9764 19.9916C8.97574 20.1456 8.97543 20.2997 8.97545 20.4538C8.97516 20.6896 8.97276 20.9253 8.97029 21.1612C8.96991 21.3116 8.96965 21.4621 8.96953 21.6125C8.96858 21.6827 8.96764 21.7529 8.96667 21.8253C8.96844 22.212 8.96844 22.212 9.11639 22.5629C9.33197 22.7485 9.50336 22.8357 9.78901 22.8363C9.86755 22.837 9.86755 22.837 9.94767 22.8376C10.0048 22.8374 10.062 22.8372 10.1208 22.837C10.1818 22.8373 10.2428 22.8376 10.3057 22.8379C10.5106 22.8387 10.7154 22.8386 10.9203 22.8385C11.067 22.8389 11.2137 22.8394 11.3604 22.8399C11.7593 22.841 12.1581 22.8413 12.557 22.8414C12.8898 22.8415 13.2225 22.842 13.5553 22.8425C14.2954 22.8435 15.0355 22.8439 15.7756 22.8438C15.8422 22.8438 15.8422 22.8438 15.9102 22.8438C15.9769 22.8438 15.9769 22.8438 16.0449 22.8438C16.7655 22.8437 17.4861 22.845 18.2067 22.8468C18.9466 22.8487 19.6866 22.8496 20.4265 22.8495C20.842 22.8494 21.2573 22.8498 21.6727 22.8512C22.0634 22.8525 22.454 22.8525 22.8447 22.8515C22.9881 22.8514 23.1315 22.8517 23.275 22.8525C23.4707 22.8535 23.6663 22.8529 23.862 22.8519C23.9189 22.8526 23.9757 22.8532 24.0343 22.8539C24.3868 22.8499 24.5902 22.7935 24.8686 22.5572C25.0096 22.3456 25.0165 22.2878 25.0178 22.0438C25.0184 21.9794 25.019 21.9149 25.0197 21.8486C25.0196 21.7787 25.0195 21.7088 25.0195 21.6368C25.0199 21.5279 25.0199 21.5279 25.0203 21.4168C25.0207 21.2624 25.0207 21.108 25.0205 20.9536C25.0202 20.7213 25.0218 20.4891 25.0234 20.2568C25.0264 19.2077 24.9837 18.1754 24.6309 17.176C24.6144 17.1282 24.5979 17.0804 24.5809 17.0311C23.8206 14.9243 22.2004 13.3228 20.1948 12.3802C16.9302 10.9251 13.2667 11.9779 10.8932 14.508ZM24.2129 13.9014C24.2129 14.1731 24.3565 14.3231 24.5079 14.5367C25.6827 16.2472 26.0374 18.0542 26.1489 20.0889C26.1534 20.1708 26.1534 20.1708 26.158 20.2544C26.1654 20.3881 26.1727 20.5218 26.1801 20.6555C26.9878 20.6601 27.7955 20.6636 28.6032 20.6657C28.9782 20.6667 29.3532 20.6681 29.7283 20.6704C30.0901 20.6725 30.4519 20.6737 30.8137 20.6742C30.9519 20.6746 31.09 20.6753 31.2282 20.6763C31.4214 20.6778 31.6147 20.678 31.808 20.6779C31.8653 20.6786 31.9226 20.6793 31.9816 20.68C32.2126 20.6788 32.3685 20.6766 32.5763 20.5701C32.7343 20.3862 32.7079 20.1742 32.7044 19.9434C32.7045 19.8922 32.7046 19.841 32.7047 19.7882C32.7046 19.6792 32.7038 19.5703 32.7025 19.4614C32.7006 19.2982 32.7011 19.1351 32.702 18.9719C32.6997 17.2704 32.1781 15.8356 30.967 14.6227C30.919 14.5741 30.8711 14.5254 30.8217 14.4752C29.7288 13.4331 28.2664 13.0616 26.7933 13.0946C25.8447 13.1355 25.0476 13.471 24.2129 13.9014ZM3.09811 14.9506C3.03155 15.0078 3.03155 15.0078 2.96363 15.0661C1.95631 15.9967 1.37383 17.3704 1.30887 18.7296C1.30074 18.9951 1.29991 19.2604 1.30197 19.526C1.30305 19.6909 1.30197 19.8557 1.30072 20.0205C1.30085 20.126 1.30111 20.2314 1.30149 20.3369C1.3011 20.3859 1.3007 20.4348 1.30029 20.4853C1.2998 20.7411 1.2998 20.7411 1.41116 20.9635C1.54867 21.0674 1.61613 21.0733 1.78698 21.0726C1.84022 21.0729 1.89346 21.0732 1.94831 21.0735C2.00647 21.0727 2.06462 21.072 2.12454 21.0713C2.18597 21.0713 2.2474 21.0714 2.31069 21.0714C2.51401 21.0713 2.71729 21.0697 2.9206 21.0682C3.06146 21.0678 3.20232 21.0675 3.34317 21.0673C3.71412 21.0666 4.08506 21.0647 4.45601 21.0625C4.83445 21.0605 5.21288 21.0596 5.59132 21.0586C6.33403 21.0565 7.07673 21.0531 7.81942 21.049C7.82277 20.9774 7.82612 20.9059 7.82958 20.8321C7.84228 20.5633 7.85552 20.2944 7.86893 20.0256C7.87462 19.9098 7.88017 19.7941 7.88557 19.6784C7.92439 18.8489 7.98625 18.0484 8.21287 17.2457C8.23047 17.181 8.23047 17.181 8.24844 17.1149C8.53622 16.0832 9.06058 15.1762 9.65549 14.2949C7.78055 12.7737 4.7496 13.5038 3.09811 14.9506Z" fill="#333333"/>
<path d="M19.8848 1.04935C20.97 1.91528 21.674 3.07644 21.852 4.45918C21.9862 5.89062 21.5661 7.18413 20.6678 8.29883C19.8292 9.28243 18.6717 9.87983 17.393 10.033C15.9171 10.1254 14.5221 9.7503 13.3807 8.77476C12.4435 7.88409 11.827 6.67721 11.7537 5.37721C11.7502 5.32438 11.7467 5.27155 11.7432 5.21712C11.6965 3.85668 12.2119 2.64692 13.0856 1.62312C14.8632 -0.272735 17.8089 -0.465631 19.8848 1.04935ZM14.0487 2.29525C13.2895 3.10076 12.8993 4.05794 12.9109 5.15818C12.9475 6.29753 13.4423 7.16129 14.2455 7.93459C14.9877 8.59812 15.945 8.91695 16.934 8.9182C17.8255 8.85818 18.5975 8.55505 19.2946 8.00016C19.3596 7.94945 19.4245 7.89873 19.4914 7.84648C20.1164 7.32052 20.4995 6.48925 20.6717 5.70508C20.7677 4.57496 20.5846 3.56318 19.8825 2.6454C19.2304 1.88294 18.3516 1.35433 17.35 1.212C16.1188 1.11816 14.9612 1.42339 14.0487 2.29525Z" fill="#333333"/>
<path d="M9.13111 4.39327C9.91886 4.99618 10.5755 5.84028 10.7543 6.83948C10.8623 8.02168 10.717 9.04893 9.97435 10.0193C9.31176 10.7838 8.43594 11.3943 7.4014 11.4896C6.15364 11.5479 5.1421 11.3253 4.1598 10.5039C3.33819 9.73134 2.95176 8.72192 2.90417 7.61074C2.88429 6.70435 3.21594 5.89812 3.75406 5.18015C3.78128 5.14136 3.8085 5.10256 3.83654 5.06258C5.07243 3.44557 7.5268 3.35328 9.13111 4.39327ZM4.67056 5.87354C4.16817 6.49011 4.00627 7.21954 4.08193 7.99983C4.19153 8.53847 4.36604 8.97023 4.73767 9.37687C4.78771 9.43368 4.83775 9.49048 4.88931 9.54901C5.47962 10.0707 6.19165 10.4227 6.99843 10.381C7.85618 10.2747 8.52795 9.94308 9.08398 9.27083C9.54037 8.63812 9.71229 7.98799 9.62497 7.21396C9.49335 6.46683 9.12754 5.87493 8.53711 5.39942C7.24814 4.50725 5.73488 4.75469 4.67056 5.87354Z" fill="#333333"/>
<path d="M29.5248 4.1966C30.3105 4.78716 30.7963 5.60863 31.033 6.55726C31.1873 7.75618 30.9818 8.78872 30.2461 9.77037C30.2189 9.80917 30.1916 9.84797 30.1636 9.88795C29.6141 10.6069 28.6926 11.0515 27.8199 11.213C26.671 11.3148 25.6187 11.117 24.681 10.4169C23.9537 9.78465 23.32 8.92292 23.2297 7.93431C23.1571 6.7269 23.3545 5.70586 24.1723 4.76218C25.614 3.25703 27.7955 2.99543 29.5248 4.1966ZM24.9039 5.6943C24.457 6.3247 24.2887 6.9702 24.3752 7.73656C24.5068 8.4837 24.8726 9.0756 25.463 9.55111C26.1165 10.0034 26.8298 10.1944 27.6154 10.0678C28.379 9.90275 28.9655 9.52379 29.4592 8.91792C29.8882 8.24296 30.0334 7.51686 29.8731 6.72914C29.7464 6.27342 29.5816 5.92285 29.2625 5.57365C29.1874 5.48845 29.1874 5.48845 29.1108 5.40152C28.5029 4.86424 27.7829 4.52786 26.9554 4.5652C26.1207 4.67749 25.4375 5.04107 24.9039 5.6943Z" fill="#333333"/>
</g>
<defs>
<clipPath id="clip0_26_378">
<rect width="33.7049" height="24" fill="white" transform="translate(0.147461)"/>
</clipPath>
</defs>
</svg>
