<svg width="26" height="26" viewBox="0 0 26 26" fill="none" xmlns="http://www.w3.org/2000/svg">
<path d="M13.4641 21.357C14.2334 21.357 14.857 20.7334 14.857 19.9641C14.857 19.1949 14.2334 18.5713 13.4641 18.5713C12.6949 18.5713 12.0713 19.1949 12.0713 19.9641C12.0713 20.7334 12.6949 21.357 13.4641 21.357Z" fill="#333333"/>
<path d="M13 0C10.4288 0 7.91543 0.762437 5.77759 2.19089C3.63975 3.61935 1.97351 5.64967 0.989572 8.02511C0.00563268 10.4006 -0.251811 13.0144 0.249797 15.5362C0.751405 18.0579 1.98953 20.3743 3.80762 22.1924C5.6257 24.0105 7.94208 25.2486 10.4638 25.7502C12.9856 26.2518 15.5994 25.9944 17.9749 25.0104C20.3503 24.0265 22.3806 22.3602 23.8091 20.2224C25.2376 18.0846 26 15.5712 26 13C26 9.55218 24.6304 6.24558 22.1924 3.80761C19.7544 1.36964 16.4478 0 13 0ZM13 24.1429C10.7962 24.1429 8.6418 23.4893 6.80936 22.2649C4.97693 21.0405 3.54872 19.3003 2.70535 17.2642C1.86197 15.2281 1.64131 12.9876 2.07126 10.8261C2.5012 8.66463 3.56246 6.67917 5.12081 5.12081C6.67917 3.56245 8.66464 2.5012 10.8261 2.07125C12.9876 1.6413 15.2281 1.86197 17.2642 2.70534C19.3003 3.54872 21.0406 4.97693 22.2649 6.80936C23.4893 8.64179 24.1429 10.7961 24.1429 13C24.1429 15.9553 22.9689 18.7895 20.8792 20.8792C18.7895 22.9689 15.9553 24.1429 13 24.1429Z" fill="#333333"/>
<path d="M13.9289 5.5713H12.536C11.9869 5.57008 11.443 5.67732 10.9355 5.88688C10.428 6.09644 9.96684 6.40418 9.57858 6.79244C9.19032 7.1807 8.88257 7.64183 8.67301 8.14935C8.46345 8.65687 8.35621 9.20079 8.35743 9.74987V10.2142H10.2146V9.74987C10.2146 9.13419 10.4592 8.54372 10.8945 8.10837C11.3299 7.67302 11.9203 7.42844 12.536 7.42844H13.9289C14.5445 7.42844 15.135 7.67302 15.5704 8.10837C16.0057 8.54372 16.2503 9.13419 16.2503 9.74987C16.2503 10.3656 16.0057 10.956 15.5704 11.3914C15.135 11.8267 14.5445 12.0713 13.9289 12.0713H12.0717V16.2499H13.9289V13.9284C15.0371 13.9284 16.0999 13.4882 16.8836 12.7046C17.6672 11.9209 18.1074 10.8581 18.1074 9.74987C18.1074 8.64164 17.6672 7.57881 16.8836 6.79517C16.0999 6.01154 15.0371 5.5713 13.9289 5.5713Z" fill="#333333"/>
</svg>
