<svg width="25" height="21" viewBox="0 0 25 21" fill="none" xmlns="http://www.w3.org/2000/svg">
<path d="M24.2667 4.16C24.2667 1.872 22.4467 0 20.2222 0H4.04444C1.82 0 0 1.872 0 4.16V16.64C0 18.928 1.82 20.8 4.04444 20.8H20.2222C22.4467 20.8 24.2667 18.928 24.2667 16.64V4.16ZM6.06667 4.16C7.17889 4.16 8.08889 5.096 8.08889 6.24C8.08889 7.384 7.17889 8.32 6.06667 8.32C4.95444 8.32 4.04444 7.384 4.04444 6.24C4.04444 5.096 4.95444 4.16 6.06667 4.16ZM22.2444 16.64C22.2444 17.784 21.3344 18.72 20.2222 18.72H4.44889C3.53889 18.72 3.13444 17.576 3.74111 16.952L7.38111 13.208C7.78556 12.792 8.39222 12.792 8.79667 13.208L9.40333 13.832C9.80778 14.248 10.4144 14.248 10.8189 13.832L17.4922 6.968C17.8967 6.552 18.5033 6.552 18.9078 6.968L21.9411 10.088C22.1433 10.296 22.2444 10.504 22.2444 10.816V16.64Z" fill="white"/>
</svg>
