<svg width="26" height="26" viewBox="0 0 26 26" fill="none" xmlns="http://www.w3.org/2000/svg">
<g clip-path="url(#clip0_450_710)">
<path d="M20.3125 26C20.1012 26 19.8932 25.9171 19.7381 25.7619L15.1011 21.125H2.4375C2.22219 21.125 2.015 21.0397 1.86306 20.8869L0.238063 19.2619C0.0853125 19.11 0 18.9036 0 18.6875V2.4375C0 2.22137 0.0853125 2.015 0.238063 1.86306L1.86306 0.238063C2.015 0.0853125 2.22219 0 2.4375 0H23.5625C23.7778 0 23.985 0.0853125 24.1369 0.238063L25.7619 1.86306C25.9147 2.015 26 2.22137 26 2.4375V18.6875C26 18.9036 25.9147 19.11 25.7619 19.2619L24.1369 20.8869C23.985 21.0397 23.7778 21.125 23.5625 21.125H21.125V25.1875C21.125 25.5158 20.9268 25.8131 20.6237 25.9382C20.5229 25.9805 20.4173 26 20.3125 26ZM2.77387 19.5H15.4375C15.6528 19.5 15.86 19.5853 16.0119 19.7381L19.5 23.2261V20.3125C19.5 19.8632 19.864 19.5 20.3125 19.5H23.2261L24.375 18.3511V2.77387L23.2261 1.625H2.77387L1.625 2.77387V18.3511L2.77387 19.5Z" fill="#333333"/>
<path d="M10.5625 10.5625C9.21862 10.5625 8.125 9.46887 8.125 8.125C8.125 6.78112 9.21862 5.6875 10.5625 5.6875C11.9064 5.6875 13 6.78112 13 8.125C13 9.46887 11.9064 10.5625 10.5625 10.5625ZM10.5625 7.3125C10.1148 7.3125 9.75 7.6765 9.75 8.125C9.75 8.5735 10.1148 8.9375 10.5625 8.9375C11.0102 8.9375 11.375 8.5735 11.375 8.125C11.375 7.6765 11.0102 7.3125 10.5625 7.3125Z" fill="#333333"/>
<path d="M14.625 15.4375H13V14.1489L11.8511 13H9.27387L8.125 14.1489V15.4375H6.5V13.4761L8.60113 11.375H12.5239L14.625 13.4761V15.4375Z" fill="#333333"/>
<path d="M19.5 8.9375H14.625V10.5625H19.5V8.9375Z" fill="#333333"/>
<path d="M17.875 7.3125H16.25V12.1875H17.875V7.3125Z" fill="#333333"/>
</g>
<defs>
<clipPath id="clip0_450_710">
<rect width="26" height="26" fill="white"/>
</clipPath>
</defs>
</svg>
