<svg width="25" height="24" viewBox="0 0 25 24" fill="none" xmlns="http://www.w3.org/2000/svg">
<path d="M12.4639 10.167L12.4639 18.7524" stroke="white" stroke-width="2" stroke-linecap="round"/>
<path d="M23.4639 12C23.4639 18.0751 18.539 23 12.4639 23C6.38873 23 1.46387 18.0751 1.46387 12C1.46387 5.92487 6.38873 1 12.4639 1C18.539 1 23.4639 5.92487 23.4639 12ZM3.01477 12C3.01477 17.2186 7.24528 21.4491 12.4639 21.4491C17.6825 21.4491 21.913 17.2186 21.913 12C21.913 6.78141 17.6825 2.55091 12.4639 2.55091C7.24528 2.55091 3.01477 6.78141 3.01477 12Z" fill="white"/>
<circle cx="12.4626" cy="6.41667" r="1.16667" fill="white" stroke="white" stroke-width="0.5"/>
</svg>
