<svg width="34" height="34" viewBox="0 0 34 34" fill="none" xmlns="http://www.w3.org/2000/svg">
<path fill-rule="evenodd" clip-rule="evenodd" d="M16.1993 11.5708C13.2171 8.58866 8.38206 8.58865 5.39986 11.5708C2.41767 14.553 2.41768 19.3881 5.39986 22.3703C8.38206 25.3525 13.2171 25.3525 16.1993 22.3703C16.5788 21.9908 16.9107 21.5804 17.1943 21.147H20.5081L21.599 20.0561L23.1418 21.5989L24.6846 20.0561L26.2274 21.5989L27.7702 20.0561L29.3129 21.5989L33.9413 16.9706L29.7648 12.7941L17.1942 12.7941C16.9107 12.3607 16.5789 11.9504 16.1993 11.5708ZM23.1418 18.5133L21.599 16.9706L19.6044 18.9652L15.9204 18.9652L15.6121 19.5416C15.3656 20.0026 15.0475 20.4366 14.6565 20.8275C12.5264 22.9576 9.07276 22.9576 6.94264 20.8275C4.81251 18.6974 4.81253 15.2437 6.94264 13.1136C9.07276 10.9835 12.5264 10.9835 14.6565 13.1136C15.0475 13.5046 15.3656 13.9385 15.6121 14.3995L15.9204 14.9759L28.8611 14.9759L30.8557 16.9706L29.3129 18.5133L27.7702 16.9706L26.2274 18.5133L24.6846 16.9706L23.1418 18.5133Z" fill="#333333"/>
<path d="M10.8008 15.4292L9.25029 16.9797L10.7931 18.5225L12.3436 16.972L10.8008 15.4292Z" fill="#333333"/>
</svg>
