<svg width="20" height="24" viewBox="0 0 20 24" fill="none" xmlns="http://www.w3.org/2000/svg">
<path d="M10 0C6.55912 0 3.75 2.69676 3.75 6V9.6C1.44297 9.6 0 11.4255 0 12.9984V20.5992C0 22.4621 1.60201 24 3.54248 24H16.4575C18.398 24 20 22.4621 20 20.5992V12.9984C20 10.7385 18.0982 9.6 16.25 9.6V6C16.25 2.69676 13.4409 0 10 0ZM10 2.4C12.0991 2.4 13.75 3.98484 13.75 6V9.6H6.25V6C6.25 3.98484 7.90088 2.4 10 2.4ZM3.54248 12H16.4575C17.0562 12 17.5 12.4237 17.5 12.9984V20.5992C17.5 21.174 17.0562 21.6 16.4575 21.6H3.54248C2.94378 21.6 2.5 21.174 2.5 20.5992V12.9984C2.5 12.4237 2.94378 12 3.54248 12Z" fill="#333333"/>
</svg>
