<svg width="27" height="27" viewBox="0 0 27 27" fill="none" xmlns="http://www.w3.org/2000/svg">
<path fill-rule="evenodd" clip-rule="evenodd" d="M13.5 0C6.075 0 0 6.075 0 13.5C0 20.925 6.075 27 13.5 27C20.925 27 27 20.925 27 13.5C27 6.075 20.925 0 13.5 0ZM22.815 8.1H18.9C18.495 6.345 17.82 4.86 17.01 3.24C19.44 4.185 21.6 5.805 22.815 8.1ZM13.5 2.7C14.58 4.32 15.525 6.075 16.065 8.1H10.935C11.475 6.21 12.42 4.32 13.5 2.7ZM3.105 16.2C2.835 15.39 2.7 14.445 2.7 13.5C2.7 12.555 2.835 11.61 3.105 10.8H7.695C7.56 11.745 7.56 12.555 7.56 13.5C7.56 14.445 7.695 15.255 7.695 16.2H3.105ZM4.185 18.9H8.1C8.505 20.655 9.18 22.14 9.99 23.76C7.56 22.815 5.4 21.195 4.185 18.9ZM8.1 8.1H4.185C5.535 5.805 7.56 4.185 9.99 3.24C9.18 4.86 8.505 6.345 8.1 8.1ZM13.5 24.3C12.42 22.68 11.475 20.925 10.935 18.9H16.065C15.525 20.79 14.58 22.68 13.5 24.3ZM16.605 16.2H10.395C10.26 15.255 10.125 14.445 10.125 13.5C10.125 12.555 10.26 11.745 10.395 10.8H16.74C16.875 11.745 17.01 12.555 17.01 13.5C17.01 14.445 16.74 15.255 16.605 16.2ZM17.01 23.76C17.82 22.275 18.495 20.655 18.9 18.9H22.815C21.6 21.195 19.44 22.815 17.01 23.76ZM19.44 16.2C19.575 15.255 19.575 14.445 19.575 13.5C19.575 12.555 19.44 11.745 19.44 10.8H24.03C24.3 11.61 24.435 12.555 24.435 13.5C24.435 14.445 24.3 15.39 24.03 16.2H19.44Z" fill="#333333"/>
</svg>
