<svg width="21" height="20" viewBox="0 0 21 20" fill="none" xmlns="http://www.w3.org/2000/svg">
<path d="M18.5513 0H2.4447C1.09608 0 0 0.918273 0 2.05033V19.554C0 19.8974 0.44293 20.1111 0.797271 19.9395L4.52182 18.1373C5.25694 17.7817 6.09255 17.5934 6.94403 17.5934H18.5527C19.9052 17.5934 21 16.6762 21 15.5442V2.05033C21 0.918273 19.9039 0 18.5513 0ZM13.9885 13.3997L12.8026 14.3911H3.46805L2.44733 13.5359V11.7149H9.22345L9.92552 11.1932V9.90825H2.44733V4.27567L3.76157 3.17906H12.8581L13.9885 4.12502V13.3997ZM18.55 14.3911H16.2296L15.0714 13.4207V4.10397L16.1794 3.17795H18.55V14.3911Z" fill="#FF7500"/>
<rect x="1" y="0.75" width="19" height="14" fill="#FF7500"/>
<rect x="3" y="5" width="15" height="3" fill="white"/>
<rect x="7" y="10" width="11" height="3" fill="white"/>
</svg>
