<svg width="38" height="38" viewBox="0 0 38 38" fill="none" xmlns="http://www.w3.org/2000/svg">
<path d="M11.9678 27.7085C13.284 33.8172 15.9356 38.0002 18.9988 38.0002C22.0621 38.0002 24.7137 33.8172 26.0299 27.7085H11.9678Z" fill="#FF7500"/>
<path d="M29.2513 10.2922H35.8749C33.7691 6.22085 30.2397 3.01668 25.9395 1.32666C27.4588 3.69664 28.5667 6.82465 29.2513 10.2922Z" fill="#FF7500"/>
<path d="M26.5721 13.4585H11.4272C11.2046 15.2123 11.083 17.0716 11.083 19.0002C11.083 20.9287 11.2046 22.788 11.4272 24.5418H26.5721C26.7948 22.788 26.9163 20.9287 26.9163 19.0002C26.9163 17.0716 26.7948 15.2123 26.5721 13.4585Z" fill="#FF7500"/>
<path d="M30.0832 19.0002C30.0832 20.863 29.9651 22.7258 29.749 24.5418H37.1734C37.7076 22.788 37.9999 20.9287 37.9999 19.0002C37.9999 17.0716 37.7076 15.2123 37.1734 13.4585H29.749C29.9651 15.2745 30.0832 17.1373 30.0832 19.0002Z" fill="#FF7500"/>
<path d="M26.0299 10.2917C24.7137 4.18292 22.0621 0 18.9988 0C15.9356 0 13.284 4.18292 11.9678 10.2917H26.0299Z" fill="#FF7500"/>
<path d="M8.74864 27.7085H2.125C4.23076 31.7799 7.76021 34.9841 12.0605 36.6741C10.5411 34.3041 9.43323 31.1761 8.74864 27.7085Z" fill="#FF7500"/>
<path d="M7.91667 19.0002C7.91667 17.1373 8.03476 15.2745 8.25084 13.4585H0.826457C0.292236 15.2123 0 17.0716 0 19.0002C0 20.9287 0.292236 22.788 0.826457 24.5418H8.25084C8.03476 22.7258 7.91667 20.863 7.91667 19.0002Z" fill="#FF7500"/>
<path d="M29.2513 27.7085C28.5667 31.1761 27.4588 34.3041 25.9395 36.6741C30.2397 34.9841 33.7691 31.7799 35.8749 27.7085H29.2513Z" fill="#FF7500"/>
<path d="M8.74864 10.2922C9.43323 6.82465 10.5411 3.69664 12.0605 1.32666C7.76021 3.01668 4.23076 6.22085 2.125 10.2922H8.74864Z" fill="#FF7500"/>
<rect x="3" y="14.3252" width="31" height="9.3" fill="white"/>
<path d="M11.5901 22H10.2881L7.34004 17.5453V22H6.03804V15.4993H7.34004L10.2881 19.9633V15.4993H11.5901V22ZM13.9205 16.5595V18.187H16.106V19.2193H13.9205V20.9398H16.385V22H12.6185V15.4993H16.385V16.5595H13.9205ZM25.9867 15.5086L24.1732 22H22.6387L21.4204 17.3779L20.1463 22L18.6211 22.0093L16.8727 15.5086H18.2677L19.4116 20.5492L20.7322 15.5086H22.183L23.4292 20.5213L24.5824 15.5086H25.9867ZM28.8199 22.0651C28.3673 22.0651 27.9581 21.9876 27.5923 21.8326C27.2327 21.6776 26.9475 21.4544 26.7367 21.163C26.5259 20.8716 26.4174 20.5275 26.4112 20.1307H27.8062C27.8248 20.3973 27.9178 20.6081 28.0852 20.7631C28.2588 20.9181 28.4944 20.9956 28.792 20.9956C29.0958 20.9956 29.3345 20.9243 29.5081 20.7817C29.6817 20.6329 29.7685 20.4407 29.7685 20.2051C29.7685 20.0129 29.7096 19.8548 29.5918 19.7308C29.474 19.6068 29.3252 19.5107 29.1454 19.4425C28.9718 19.3681 28.73 19.2875 28.42 19.2007C27.9984 19.0767 27.6543 18.9558 27.3877 18.838C27.1273 18.714 26.901 18.5311 26.7088 18.2893C26.5228 18.0413 26.4298 17.7127 26.4298 17.3035C26.4298 16.9191 26.5259 16.5843 26.7181 16.2991C26.9103 16.0139 27.18 15.7969 27.5272 15.6481C27.8744 15.4931 28.2712 15.4156 28.7176 15.4156C29.3872 15.4156 29.9297 15.5799 30.3451 15.9085C30.7667 16.2309 30.9992 16.6835 31.0426 17.2663H29.6104C29.598 17.0431 29.5019 16.8602 29.3221 16.7176C29.1485 16.5688 28.916 16.4944 28.6246 16.4944C28.3704 16.4944 28.1658 16.5595 28.0108 16.6897C27.862 16.8199 27.7876 17.009 27.7876 17.257C27.7876 17.4306 27.8434 17.5763 27.955 17.6941C28.0728 17.8057 28.2154 17.8987 28.3828 17.9731C28.5564 18.0413 28.7982 18.1219 29.1082 18.2149C29.5298 18.3389 29.8739 18.4629 30.1405 18.5869C30.4071 18.7109 30.6365 18.8969 30.8287 19.1449C31.0209 19.3929 31.117 19.7184 31.117 20.1214C31.117 20.4686 31.0271 20.791 30.8473 21.0886C30.6675 21.3862 30.404 21.6249 30.0568 21.8047C29.7096 21.9783 29.2973 22.0651 28.8199 22.0651Z" fill="#FF7500"/>
</svg>
