<svg width="25" height="27" viewBox="0 0 25 27" fill="none" xmlns="http://www.w3.org/2000/svg">
<path d="M24.4958 17.357C24.3039 17.1968 24.0754 17.085 23.8299 17.0312C23.5843 16.9774 23.3293 16.9834 23.0866 17.0484C21.9905 13.577 21.5208 10.9542 21.2859 8.09993C20.8162 3.62568 17.2149 0 12.5958 0C7.82022 0 4.21892 3.70283 3.82748 8.17707C3.59261 11.0313 3.04459 13.6542 1.94854 17.0484C1.70587 16.9834 1.45077 16.9774 1.20526 17.0312C0.959754 17.085 0.731206 17.1968 0.53934 17.357C0.241021 17.6277 0.0527275 17.9961 0.0095201 18.3934C-0.0336873 18.7908 0.0711365 19.1901 0.304473 19.517C0.774207 20.057 1.94854 20.8284 3.12288 21.137L6.25444 21.9084C6.32393 23.2901 6.93322 24.5917 7.95473 25.5408C8.97624 26.4898 10.3308 27.0126 11.7347 26.9998H13.3004C14.7006 26.9998 16.0478 26.4727 17.0665 25.5262C18.0852 24.5798 18.6984 23.2856 18.7807 21.9084C20.1116 21.677 21.1294 21.4455 21.9122 21.137C22.6353 20.8987 23.3205 20.5611 23.9478 20.1341C24.1826 19.9798 24.4958 19.8255 24.7306 19.517C25.1221 18.8227 25.1221 17.897 24.4958 17.357ZM6.95904 8.4085C7.27219 5.39995 9.62087 3.08569 12.5958 3.08569C15.4925 3.08569 17.9195 5.32281 18.1544 8.33136C18.4675 11.5713 19.0155 14.5027 20.2682 18.437C18.7807 18.8227 16.3537 19.2856 12.5176 19.2856C8.6814 19.2856 6.25444 18.8227 4.76695 18.437C6.09786 14.5799 6.72417 11.5713 6.95904 8.4085ZM13.3004 23.9141H11.7347C10.7169 23.9141 9.77744 23.2198 9.54258 22.2941C10.3255 22.3712 11.3432 22.3712 12.5176 22.3712C13.6136 22.3712 14.6314 22.3712 15.5708 22.2941C15.4157 22.7665 15.1121 23.1781 14.704 23.4693C14.2959 23.7605 13.8043 23.9163 13.3004 23.9141Z" fill="#333333"/>
</svg>
