<svg width="36" height="36" viewBox="0 0 36 36" fill="none" xmlns="http://www.w3.org/2000/svg">
<path d="M33.7686 18L35.7581 14.5614C35.9972 14.1477 36.0623 13.656 35.9389 13.1944C35.8156 12.7327 35.5139 12.339 35.1003 12.0997L31.6583 10.1101V6.14533C31.6583 5.66737 31.4685 5.20898 31.1305 4.87101C30.7925 4.53304 30.3342 4.34317 29.8562 4.34317H25.8934L23.9057 0.902835C23.6656 0.489989 23.2726 0.188286 22.8118 0.0630262C22.5832 0.00106038 22.3446 -0.0149178 22.1098 0.0160178C21.875 0.0469534 21.6487 0.124188 21.444 0.243243L18.002 2.23283L14.5599 0.241441C14.146 0.00246928 13.6541 -0.0622908 13.1925 0.0614059C12.7308 0.185103 12.3372 0.487125 12.0983 0.901033L10.1087 4.34317H6.14589C5.66794 4.34317 5.20957 4.53304 4.87161 4.87101C4.53365 5.20898 4.34378 5.66737 4.34378 6.14533V10.1083L0.901757 12.0979C0.696375 12.216 0.51636 12.3736 0.372054 12.5615C0.227749 12.7494 0.121997 12.964 0.0608744 13.193C-0.000247952 13.4219 -0.015536 13.6606 0.0158886 13.8955C0.0473131 14.1303 0.124831 14.3566 0.243988 14.5614L2.23351 18L0.243988 21.4385C0.00608978 21.8526 -0.0584559 22.344 0.0644234 22.8054C0.187303 23.2669 0.487641 23.6611 0.899955 23.9021L4.34198 25.8917V29.8546C4.34198 30.3326 4.53184 30.791 4.86981 31.1289C5.20777 31.4669 5.66614 31.6568 6.14409 31.6568H10.1087L12.0983 35.0989C12.2578 35.3717 12.4856 35.5982 12.7592 35.7562C13.0329 35.9142 13.3429 35.9982 13.6589 36C13.9724 36 14.2842 35.9171 14.5617 35.7567L18.0002 33.7671L21.4422 35.7567C21.856 35.9953 22.3475 36.0601 22.809 35.9368C23.2705 35.8135 23.6642 35.5122 23.9039 35.0989L25.8916 31.6568H29.8544C30.3324 31.6568 30.7907 31.4669 31.1287 31.1289C31.4667 30.791 31.6565 30.3326 31.6565 29.8546V25.8917L35.0985 23.9021C35.3036 23.7836 35.4832 23.6258 35.6273 23.4379C35.7713 23.2499 35.8769 23.0354 35.938 22.8066C35.9991 22.5778 36.0145 22.3392 35.9833 22.1045C35.9521 21.8697 35.875 21.6434 35.7563 21.4385L33.7686 18ZM13.4949 8.97113C14.212 8.97137 14.8997 9.2565 15.4067 9.76379C15.9136 10.2711 16.1983 10.959 16.198 11.6762C16.1978 12.3934 15.9127 13.0811 15.4054 13.588C14.8981 14.095 14.2102 14.3797 13.4931 14.3794C12.7759 14.3792 12.0882 14.0941 11.5813 13.5868C11.0743 13.0795 10.7897 12.3916 10.7899 11.6744C10.7902 10.9572 11.0753 10.2695 11.5826 9.76252C12.0898 9.25556 12.7777 8.97089 13.4949 8.97113ZM14.0355 26.2719L11.1521 24.1111L21.9648 9.6938L24.8482 11.8546L14.0355 26.2719ZM22.5054 26.9928C22.1503 26.9927 21.7987 26.9226 21.4707 26.7866C21.1427 26.6506 20.8446 26.4513 20.5936 26.2001C20.3426 25.9489 20.1435 25.6508 20.0077 25.3226C19.872 24.9945 19.8021 24.6428 19.8023 24.2877C19.8024 23.9326 19.8724 23.581 20.0084 23.253C20.1444 22.9249 20.3437 22.6269 20.5949 22.3759C20.8461 22.1249 21.1442 21.9258 21.4724 21.79C21.8005 21.6542 22.1521 21.5844 22.5072 21.5845C23.2244 21.5847 23.9121 21.8698 24.419 22.3771C24.926 22.8844 25.2106 23.5723 25.2104 24.2895C25.2101 25.0067 24.925 25.6944 24.4177 26.2014C23.9105 26.7083 23.2226 26.993 22.5054 26.9928Z" fill="#FF7500"/>
</svg>
