<svg width="19" height="17" viewBox="0 0 19 17" fill="none" xmlns="http://www.w3.org/2000/svg">
<path d="M7.5 8.83203C9.706 8.83203 11.5 7.03803 11.5 4.83203C11.5 2.62603 9.706 0.832031 7.5 0.832031C5.294 0.832031 3.5 2.62603 3.5 4.83203C3.5 7.03803 5.294 8.83203 7.5 8.83203ZM9 9.83203H6C2.691 9.83203 0 12.523 0 15.832V16.832H15V15.832C15 12.523 12.309 9.83203 9 9.83203Z" fill="white"/>
<path d="M14.6046 7.88C15.2136 6.84209 15.4766 5.63731 15.3556 4.44C15.1766 2.656 14.1806 1.079 12.5526 0L11.4476 1.666C12.5666 2.408 13.2476 3.465 13.3656 4.64C13.42 5.1861 13.352 5.73746 13.1666 6.25398C12.9811 6.77051 12.6829 7.23921 12.2936 7.626L11.1016 8.818L12.7196 9.293C16.9516 10.533 17.0006 14.789 17.0006 14.832H19.0006C19.0006 13.043 18.0446 9.547 14.6046 7.88Z" fill="white"/>
</svg>
