<svg width="16" height="20" viewBox="0 0 16 20" fill="none" xmlns="http://www.w3.org/2000/svg">
<path d="M12.9817 12.8423C14.744 14.246 15.7649 16.1197 15.9787 18.2625C16.0253 18.8154 16.018 19.1996 15.7201 19.6935C15.3609 19.9481 15.0947 19.9873 14.6489 19.9882C14.5266 19.9891 14.4043 19.9899 14.2782 19.9908C14.1433 19.9905 14.0084 19.9901 13.8735 19.9896C13.7309 19.9901 13.5883 19.9907 13.4457 19.9914C13.059 19.993 12.6722 19.9929 12.2855 19.9924C11.9625 19.9921 11.6396 19.9927 11.3166 19.9932C10.5548 19.9944 9.79297 19.9943 9.03114 19.9933C8.24524 19.9923 7.45938 19.9935 6.67349 19.9958C5.99856 19.9978 5.32364 19.9984 4.64871 19.9978C4.24568 19.9975 3.84267 19.9978 3.43964 19.9993C3.06072 20.0006 2.68184 20.0003 2.30292 19.9986C2.16392 19.9983 2.02491 19.9986 1.88591 19.9995C1.69607 20.0006 1.50622 19.9994 1.31639 19.9981C1.21018 19.9981 1.10397 19.9981 0.994547 19.998C0.649189 19.9449 0.495371 19.8302 0.245271 19.6065C-0.138771 19.0922 0.0221024 18.2984 0.105438 17.7132C0.516744 15.6261 1.59855 13.7335 3.50156 12.5077C6.40368 10.73 10.2265 10.8139 12.9817 12.8423ZM3.88091 14.9956C3.82936 15.0406 3.77781 15.0857 3.7247 15.1322C3.37635 15.4669 3.15399 15.868 2.92539 16.2788C2.89353 16.3348 2.86167 16.3907 2.82885 16.4484C2.55217 16.9681 2.50923 17.3383 2.38937 17.9535C6.11171 17.9535 9.83405 17.9535 13.6692 17.9535C13.2593 16.2958 12.5696 15.0225 11.0182 14.0821C8.59884 12.7892 5.82917 13.187 3.88091 14.9956Z" fill="white"/>
<path d="M11.2201 0.994989C12.2861 1.85736 13.1125 2.94098 13.2157 4.28744C13.3044 5.81343 12.947 7.04359 11.8803 8.22575C10.9122 9.1914 9.63085 9.6858 8.23338 9.79173C6.87422 9.8279 5.53194 9.36942 4.49431 8.55437C3.476 7.65179 2.87087 6.47201 2.76207 5.16447C2.74727 3.72055 3.20393 2.48115 4.25653 1.41265C6.15241 -0.272428 9.11463 -0.497688 11.2201 0.994989ZM6.49093 2.46751C6.43277 2.49802 6.37461 2.52852 6.31469 2.55995C5.61711 2.96754 5.24479 3.62395 5.04308 4.35226C4.88112 5.10549 5.10334 5.80387 5.52958 6.44771C6.01444 7.08164 6.67172 7.45544 7.46976 7.66025C8.24802 7.75104 8.91528 7.62312 9.59638 7.26332C10.2427 6.78637 10.7451 6.26131 10.9656 5.51247C11.0692 4.5636 10.9411 3.79636 10.2897 3.04932C9.75155 2.51696 9.114 2.16458 8.32441 2.09029C7.62232 2.08294 7.09524 2.12462 6.49093 2.46751Z" fill="white"/>
</svg>
