<svg width="25" height="24" viewBox="0 0 25 24" fill="none" xmlns="http://www.w3.org/2000/svg">
<g clip-path="url(#clip0_637_1216)">
<path d="M23.4251 22.0021C23.5082 22.0137 23.5925 22.0137 23.6756 22.0021C23.8443 21.9473 23.9902 21.8385 24.091 21.6925C24.1917 21.5465 24.2416 21.3715 24.2329 21.1943V20.3865C24.2326 16.7363 22.9313 13.2058 20.5626 10.4285C18.194 7.6512 14.913 5.80907 11.3086 5.23273V1.80777C11.3086 1.65776 11.2668 1.51071 11.1879 1.3831C11.1091 1.25549 10.9962 1.15237 10.862 1.08528C10.7279 1.01819 10.5777 0.989792 10.4283 1.00326C10.2788 1.01674 10.1361 1.07155 10.0161 1.16155L0.322868 8.4315C0.222546 8.50674 0.141121 8.60431 0.0850389 8.71647C0.0289572 8.82864 -0.000240513 8.95232 -0.000240513 9.07772C-0.000240513 9.20312 0.0289572 9.3268 0.0850389 9.43897C0.141121 9.55113 0.222546 9.6487 0.322868 9.72394L10.0161 16.9939C10.1361 17.0839 10.2788 17.1387 10.4283 17.1522C10.5777 17.1656 10.7279 17.1372 10.862 17.0702C10.9962 17.0031 11.1091 16.8999 11.1879 16.7723C11.2668 16.6447 11.3086 16.4977 11.3086 16.3477V13.3185C15.2201 13.9569 18.7228 16.1102 21.0584 19.3122L22.7709 21.6709C22.8461 21.7738 22.9445 21.8574 23.0583 21.915C23.172 21.9726 23.2977 22.0024 23.4251 22.0021ZM9.69302 3.42332V5.94356C9.69181 6.14326 9.76461 6.33632 9.89738 6.48549C10.0301 6.63467 10.2135 6.72937 10.4119 6.75134C13.4578 7.08363 16.305 8.42502 18.5006 10.5621C20.6962 12.6991 22.114 15.5091 22.5285 18.5448L22.3993 18.3752C21.017 16.4771 19.25 14.8918 17.2138 13.7227C15.1775 12.5535 12.9176 11.8268 10.5816 11.5899C10.469 11.5794 10.3554 11.5927 10.2483 11.6289C10.1411 11.665 10.0428 11.7233 9.95959 11.7999C9.87591 11.8754 9.80896 11.9676 9.76305 12.0706C9.71714 12.1735 9.69329 12.2849 9.69302 12.3977V14.7321L2.15651 9.07772L9.69302 3.42332Z" fill="white"/>
</g>
<defs>
<clipPath id="clip0_637_1216">
<rect width="24" height="24" fill="white" transform="matrix(-1 0 0 1 24.4639 0)"/>
</clipPath>
</defs>
</svg>
