<svg width="13" height="13" viewBox="0 0 13 13" fill="none" xmlns="http://www.w3.org/2000/svg">
<path d="M4.4472 4.18127C4.4472 4.18127 1.98754 4.46687 0.346729 4.65782C0.198838 4.67659 0.0680709 4.78022 0.0190333 4.93772C-0.0300043 5.09521 0.0190332 5.25923 0.128006 5.36286C1.34694 6.52895 3.17845 8.27522 3.17845 8.27522C3.1769 8.27522 2.67562 10.8155 2.34248 12.5103C2.31446 12.6638 2.36739 12.8261 2.49504 12.9233C2.62192 13.0204 2.78538 13.022 2.91381 12.9461C4.34913 12.0909 6.499 10.8049 6.499 10.8049C6.499 10.8049 8.64965 12.0909 10.0826 12.9469C10.2134 13.022 10.3769 13.0204 10.5037 12.9233C10.6314 12.8261 10.6843 12.6638 10.6555 12.5112C10.3224 10.8155 9.82188 8.27522 9.82188 8.27522C9.82188 8.27522 11.6534 6.52895 12.8723 5.36531C12.9813 5.25841 13.0296 5.09439 12.9813 4.93772C12.933 4.78104 12.8023 4.67741 12.6544 4.65945C11.0136 4.46687 8.55313 4.18127 8.55313 4.18127C8.55313 4.18127 7.53346 1.81645 6.85394 0.239909C6.79011 0.0987381 6.65623 0 6.499 0C6.34177 0 6.20711 0.0995541 6.1464 0.239909C5.4661 1.81645 4.4472 4.18127 4.4472 4.18127Z" fill="#FF7500"/>
</svg>
