<svg width="17" height="17" viewBox="0 0 17 17" fill="none" xmlns="http://www.w3.org/2000/svg">
<path d="M4.34961 8.1001L7.56389 10.7787L11.8496 5.42153M8.09961 15.6001C7.1147 15.6001 6.13943 15.4061 5.22948 15.0292C4.31954 14.6523 3.49275 14.0998 2.79631 13.4034C2.09987 12.707 1.54742 11.8802 1.17051 10.9702C0.793603 10.0603 0.599609 9.08501 0.599609 8.1001C0.599609 7.11518 0.793603 6.13991 1.17051 5.22997C1.54742 4.32003 2.09987 3.49324 2.79631 2.7968C3.49275 2.10036 4.31954 1.54791 5.22948 1.171C6.13943 0.794091 7.1147 0.600098 8.09961 0.600098C10.0887 0.600098 11.9964 1.39027 13.4029 2.7968C14.8094 4.20332 15.5996 6.11097 15.5996 8.1001C15.5996 10.0892 14.8094 11.9969 13.4029 13.4034C11.9964 14.8099 10.0887 15.6001 8.09961 15.6001Z" stroke="#333333" stroke-width="1.2"/>
</svg>
