<svg width="25" height="24" viewBox="0 0 25 24" fill="none" xmlns="http://www.w3.org/2000/svg">
<path d="M18.1763 21.0946C18.0533 21.095 17.9321 21.0652 17.8232 21.0078L12.4639 18.1894L7.10356 21.0078C6.97863 21.0732 6.83793 21.1023 6.69733 21.092C6.55672 21.0817 6.42179 21.0322 6.30777 20.9493C6.19375 20.8664 6.10516 20.7533 6.05199 20.6227C5.99883 20.4921 5.9832 20.3493 6.00688 20.2103L7.03092 14.2416L2.6926 10.0142C2.59143 9.91571 2.51986 9.79083 2.48597 9.65373C2.45209 9.51664 2.45724 9.37279 2.50086 9.23847C2.54448 9.10415 2.62482 8.98471 2.73279 8.89368C2.84076 8.80265 2.97205 8.74364 3.11181 8.72335L9.10524 7.85266L11.7854 2.42169C11.8479 2.29511 11.9446 2.18853 12.0645 2.11401C12.1844 2.03949 12.3227 2 12.4639 2C12.6051 2 12.7434 2.03949 12.8633 2.11401C12.9832 2.18853 13.0799 2.29511 13.1424 2.42169L15.8226 7.85266L21.8155 8.72335C21.9553 8.74357 22.0866 8.80251 22.1947 8.89351C22.3027 8.98452 22.3831 9.10394 22.4268 9.23828C22.4705 9.37261 22.4757 9.51649 22.4418 9.65362C22.4079 9.79076 22.3364 9.91568 22.2352 10.0142L17.8969 14.2416L18.9209 20.2103C18.9395 20.3189 18.9342 20.4302 18.9053 20.5365C18.8763 20.6428 18.8246 20.7415 18.7536 20.8257C18.6826 20.9099 18.5941 20.9776 18.4942 21.024C18.3943 21.0705 18.2855 21.0946 18.1753 21.0946H18.1763ZM4.84663 10.0006L8.37025 13.4355C8.45787 13.5209 8.52347 13.6263 8.56142 13.7426C8.59938 13.8589 8.60856 13.9827 8.58817 14.1034L7.75633 18.9532L12.1108 16.665C12.2196 16.6076 12.3408 16.5775 12.4639 16.5775C12.587 16.5775 12.7082 16.6076 12.817 16.665L17.1725 18.9547L16.3396 14.1034C16.3189 13.9825 16.3279 13.8584 16.3658 13.7418C16.4036 13.6252 16.4693 13.5196 16.557 13.434L20.0812 10.0006L15.2117 9.29439C15.0903 9.27675 14.9751 9.22988 14.8759 9.15782C14.7767 9.08576 14.6964 8.99067 14.6421 8.88074L12.4639 4.46827L10.2862 8.88074C10.2318 8.99074 10.1515 9.08587 10.0522 9.15793C9.95291 9.22999 9.83757 9.27682 9.71613 9.29439L4.84663 10.0006Z" fill="white"/>
</svg>
