<svg width="14" height="15" viewBox="0 0 14 15" fill="none" xmlns="http://www.w3.org/2000/svg">
<path d="M7.18143 5.33557C6.80267 5.29816 6.42161 5.37874 6.09041 5.56627C5.75922 5.7538 5.49409 6.03912 5.33131 6.38316C5.16854 6.7272 5.11608 7.11314 5.18113 7.48814C5.24617 7.86314 5.42553 8.20887 5.69466 8.478C5.96378 8.74712 6.30951 8.92649 6.68452 8.99153C7.05952 9.05657 7.44546 9.00412 7.7895 8.84134C8.13354 8.67857 8.41885 8.41343 8.60638 8.08224C8.79391 7.75105 8.87449 7.36998 8.83709 6.99123C8.79444 6.56663 8.6063 6.16984 8.30456 5.8681C8.00282 5.56635 7.60602 5.37822 7.18143 5.33557ZM11.6263 7.17266C11.6251 7.37331 11.6104 7.57366 11.5822 7.77233L12.8862 8.79514C12.943 8.84221 12.9813 8.90789 12.9942 8.9805C13.0072 9.05311 12.9939 9.12796 12.9569 9.19175L11.7232 11.3262C11.6858 11.3894 11.6272 11.4373 11.5579 11.4615C11.4885 11.4858 11.4129 11.4847 11.3442 11.4586L10.0491 10.9371C9.9777 10.9087 9.90034 10.8984 9.82397 10.9072C9.74761 10.916 9.67462 10.9436 9.61155 10.9876C9.4139 11.1237 9.2062 11.2446 8.99025 11.3493C8.92236 11.3823 8.86363 11.4315 8.81926 11.4926C8.77489 11.5536 8.74624 11.6247 8.73584 11.6995L8.54172 13.0808C8.52897 13.1538 8.49128 13.22 8.43509 13.2683C8.37891 13.3165 8.30771 13.3437 8.23367 13.3453H5.76633C5.69351 13.3441 5.6233 13.318 5.56725 13.2715C5.5112 13.225 5.47266 13.1608 5.45799 13.0895L5.26416 11.7101C5.25327 11.6345 5.22388 11.5628 5.17859 11.5013C5.1333 11.4398 5.07352 11.3905 5.00456 11.3577C4.78887 11.2535 4.58187 11.1323 4.38556 10.9951C4.32271 10.9514 4.24996 10.9239 4.17388 10.9153C4.0978 10.9067 4.02076 10.9172 3.94973 10.9458L2.65491 11.467C2.58629 11.4931 2.51066 11.4942 2.44132 11.47C2.37199 11.4459 2.31341 11.398 2.2759 11.3349L1.04223 9.2004C1.00514 9.13663 0.99189 9.06177 1.00483 8.98914C1.01777 8.91651 1.05607 8.85083 1.1129 8.80379L2.21504 7.93847C2.27542 7.89054 2.32288 7.82828 2.3531 7.75736C2.38332 7.68644 2.39535 7.60909 2.3881 7.53234C2.37772 7.41206 2.37137 7.29207 2.37137 7.17179C2.37137 7.05151 2.37743 6.93325 2.3881 6.81556C2.39456 6.73928 2.38194 6.66259 2.35137 6.59239C2.32081 6.5222 2.27326 6.46072 2.21302 6.41348L1.11146 5.54815C1.05555 5.50087 1.01806 5.43543 1.00556 5.36328C0.993061 5.29114 1.00635 5.21689 1.0431 5.15356L2.27677 3.01909C2.31423 2.95592 2.37279 2.908 2.44213 2.88378C2.51147 2.85956 2.58713 2.86059 2.65578 2.8867L3.95088 3.4082C4.0223 3.43664 4.09966 3.44691 4.17603 3.4381C4.25239 3.42929 4.32538 3.40167 4.38845 3.35772C4.5861 3.22161 4.7938 3.1007 5.00975 2.99602C5.07764 2.96302 5.13637 2.91381 5.18074 2.85274C5.22511 2.79167 5.25376 2.72062 5.26416 2.64585L5.45828 1.2645C5.47103 1.19155 5.50872 1.12529 5.56491 1.07704C5.62109 1.0288 5.69229 1.00157 5.76633 1H8.23367C8.30648 1.00126 8.3767 1.02729 8.43275 1.07379C8.4888 1.1203 8.52734 1.18451 8.54201 1.25585L8.73584 2.63518C8.74673 2.71077 8.77612 2.7825 8.82141 2.84399C8.8667 2.90548 8.92648 2.95483 8.99544 2.98765C9.21113 3.09177 9.41813 3.21301 9.61444 3.35022C9.67729 3.39396 9.75004 3.42136 9.82612 3.42997C9.9022 3.43858 9.97924 3.42813 10.0503 3.39955L11.3451 2.87833C11.4137 2.8522 11.4893 2.85113 11.5587 2.87529C11.628 2.89946 11.6866 2.94732 11.7241 3.01044L12.9578 5.14491C12.9949 5.20868 13.0081 5.28354 12.9952 5.35617C12.9822 5.4288 12.9439 5.49448 12.8871 5.54152L11.785 6.40684C11.7243 6.45462 11.6766 6.5168 11.6461 6.58773C11.6156 6.65866 11.6034 6.73609 11.6105 6.81297C11.62 6.93238 11.6263 7.05237 11.6263 7.17266Z" stroke="#333333" stroke-width="1.5" stroke-linecap="round" stroke-linejoin="round"/>
</svg>
