<svg width="23" height="24" viewBox="0 0 23 24" fill="none" xmlns="http://www.w3.org/2000/svg">
<path d="M21.4079 15.4L19.2239 13.84C19.5839 12.544 19.6079 11.14 19.2239 9.73602L21.4079 8.20002L19.6679 5.20002L17.2319 6.30402C16.2839 5.34402 15.0839 4.60002 13.6799 4.25202L13.4399 1.60002H9.9599L9.7199 4.25202C8.3159 4.60002 7.1159 5.34402 6.1679 6.30402L3.7319 5.20002L1.9919 8.20002L4.1759 9.73602C3.7919 11.14 3.8159 12.544 4.1759 13.84L1.9919 15.4L3.7319 18.4L6.1679 17.284C7.1159 18.232 8.3159 18.952 9.7199 19.324L9.9599 22H13.4399L13.6799 19.324C15.0839 18.952 16.2839 18.232 17.2319 17.284L19.6679 18.4L21.4079 15.4ZM14.0999 0.400024C14.4239 0.400024 14.6999 0.640024 14.6999 0.952024L14.9159 3.40002C15.8279 3.73602 16.6439 4.22802 17.3759 4.81602L19.5959 3.77202C19.8719 3.62802 20.2199 3.72402 20.3879 4.00002L22.7879 8.20002C22.9559 8.45202 22.8599 8.80002 22.5959 8.98002L20.5919 10.384C20.7479 11.344 20.7359 12.292 20.5919 13.216L22.5959 14.62C22.8599 14.8 22.9559 15.148 22.7879 15.4L20.3879 19.6C20.2199 19.852 19.8719 19.948 19.5959 19.804L17.3759 18.772C16.6439 19.36 15.8279 19.84 14.9159 20.2L14.6999 22.6C14.6999 22.948 14.4239 23.2 14.0999 23.2H9.2999C9.14077 23.2 8.98816 23.1368 8.87564 23.0243C8.76311 22.9118 8.6999 22.7592 8.6999 22.6L8.4839 20.2C7.5719 19.84 6.7559 19.36 6.0239 18.772L3.8039 19.804C3.5279 19.948 3.1799 19.852 3.0119 19.6L0.611899 15.4C0.443899 15.148 0.539899 14.8 0.803899 14.62L2.8079 13.216C2.6639 12.292 2.6519 11.344 2.8079 10.384L0.803899 8.98002C0.539899 8.80002 0.443899 8.45202 0.611899 8.20002L3.0119 4.00002C3.1799 3.72402 3.5279 3.62802 3.8039 3.77202L6.0239 4.81602C6.7559 4.22802 7.5719 3.73602 8.4839 3.40002L8.6999 0.952024C8.6999 0.640024 8.9759 0.400024 9.2999 0.400024H14.0999ZM11.6999 7.60002C12.8138 7.60002 13.8821 8.04252 14.6697 8.83018C15.4574 9.61783 15.8999 10.6861 15.8999 11.8C15.8999 12.9139 15.4574 13.9822 14.6697 14.7699C13.8821 15.5575 12.8138 16 11.6999 16C10.586 16 9.5177 15.5575 8.73005 14.7699C7.9424 13.9822 7.4999 12.9139 7.4999 11.8C7.4999 10.6861 7.9424 9.61783 8.73005 8.83018C9.5177 8.04252 10.586 7.60002 11.6999 7.60002ZM11.6999 8.80002C10.9042 8.80002 10.1412 9.11609 9.57858 9.6787C9.01597 10.2413 8.6999 11.0044 8.6999 11.8C8.6999 12.5957 9.01597 13.3587 9.57858 13.9213C10.1412 14.484 10.9042 14.8 11.6999 14.8C12.4955 14.8 13.2586 14.484 13.8212 13.9213C14.3838 13.3587 14.6999 12.5957 14.6999 11.8C14.6999 11.0044 14.3838 10.2413 13.8212 9.6787C13.2586 9.11609 12.4955 8.80002 11.6999 8.80002Z" fill="#333333"/>
</svg>
