<svg width="18" height="17" viewBox="0 0 18 17" fill="none" xmlns="http://www.w3.org/2000/svg">
<path d="M6.86493 3.556C7.81518 1.852 8.28993 1 9.00018 1C9.71043 1 10.1852 1.852 11.1354 3.556L11.3814 3.997C11.6514 4.4815 11.7864 4.72375 11.9964 4.8835C12.2064 5.04325 12.4689 5.1025 12.9939 5.221L13.4709 5.329C15.3159 5.74675 16.2377 5.95525 16.4574 6.661C16.6764 7.366 16.0479 8.10175 14.7902 9.5725L14.4647 9.95275C14.1077 10.3705 13.9284 10.5797 13.8482 10.8377C13.7679 11.0965 13.7949 11.3755 13.8489 11.9327L13.8984 12.4405C14.0882 14.4032 14.1834 15.3843 13.6089 15.82C13.0344 16.2565 12.1704 15.8582 10.4439 15.0632L9.99618 14.8577C9.50568 14.6312 9.26043 14.5187 9.00018 14.5187C8.73993 14.5187 8.49468 14.6312 8.00418 14.8577L7.55718 15.0632C5.82993 15.8582 4.96593 16.2557 4.39218 15.8207C3.81693 15.3842 3.91218 14.4032 4.10193 12.4405L4.15143 11.9335C4.20543 11.3755 4.23243 11.0965 4.15143 10.8385C4.07193 10.5798 3.89268 10.3705 3.53568 9.9535L3.21018 9.5725C1.95243 8.1025 1.32393 7.36675 1.54293 6.661C1.76268 5.95525 2.68518 5.746 4.53018 5.329L5.00718 5.221C5.53143 5.1025 5.79318 5.04325 6.00393 4.8835C6.21393 4.72375 6.34893 4.4815 6.61893 3.997L6.86493 3.556Z" stroke="#333333" stroke-width="1.125"/>
</svg>
