<svg width="29" height="29" viewBox="0 0 29 29" fill="none" xmlns="http://www.w3.org/2000/svg">
<path d="M27.2881 25.0388L21.2926 19.0433C22.7361 17.1217 23.5153 14.7827 23.5127 12.3794C23.5127 6.24052 18.5182 1.24609 12.3794 1.24609C6.24052 1.24609 1.24609 6.24052 1.24609 12.3794C1.24609 18.5182 6.24052 23.5127 12.3794 23.5127C14.7827 23.5153 17.1217 22.7361 19.0433 21.2926L25.0388 27.2881C25.3423 27.5594 25.7381 27.7042 26.145 27.6928C26.5519 27.6814 26.939 27.5147 27.2269 27.2269C27.5147 26.939 27.6814 26.5519 27.6928 26.145C27.7042 25.7381 27.5594 25.3423 27.2881 25.0388ZM4.42703 12.3794C4.42703 10.8066 4.89343 9.26905 5.76724 7.96129C6.64106 6.65353 7.88304 5.63426 9.33614 5.03237C10.7892 4.43047 12.3882 4.27299 13.9308 4.57983C15.4734 4.88668 16.8904 5.64406 18.0025 6.75622C19.1147 7.86837 19.8721 9.28535 20.1789 10.8279C20.4858 12.3706 20.3283 13.9695 19.7264 15.4226C19.1245 16.8757 18.1052 18.1177 16.7975 18.9915C15.4897 19.8653 13.9522 20.3317 12.3794 20.3317C10.2711 20.3292 8.24982 19.4905 6.75901 17.9997C5.26821 16.5089 4.42956 14.4877 4.42703 12.3794Z" fill="black"/>
</svg>
