<svg width="21" height="21" viewBox="0 0 21 21" fill="none" xmlns="http://www.w3.org/2000/svg">
<path fill-rule="evenodd" clip-rule="evenodd" d="M0.5601 7.52417C3.21064 7.21572 7.18395 6.75436 7.18395 6.75436C7.18395 6.75436 8.82985 2.93427 9.92879 0.387545C10.0269 0.160818 10.2444 0 10.4984 0C10.7524 0 10.9686 0.1595 11.0717 0.387545C12.1694 2.93427 13.8166 6.75436 13.8166 6.75436C13.8166 6.75436 17.7912 7.21572 20.4417 7.52681C20.6806 7.55581 20.8918 7.72322 20.9698 7.97631C21.0477 8.2294 20.9698 8.49435 20.7938 8.66704C18.8247 10.5468 15.8661 13.3677 15.8661 13.3677C15.8661 13.3677 16.6746 17.4712 17.2128 20.2103C17.2593 20.4568 17.1738 20.7192 16.9676 20.876C16.7626 21.0329 16.4986 21.0355 16.2873 20.9142C13.9725 19.5315 10.4984 17.454 10.4984 17.454C10.4984 17.454 7.02552 19.5315 4.70692 20.9129C4.49945 21.0355 4.2354 21.0329 4.03045 20.876C3.82424 20.7192 3.73874 20.4568 3.78401 20.209C4.32216 17.4712 5.13191 13.3677 5.13443 13.3677C5.13443 13.3677 2.17583 10.5468 0.206778 8.66308C0.0307459 8.49567 -0.0484685 8.23072 0.0307461 7.97631C0.109961 7.7219 0.321199 7.55449 0.5601 7.52417ZM3.04508 8.26813C5.03298 8.03679 8.01296 7.69077 8.01296 7.69077C8.01296 7.69077 9.24739 4.8257 10.0716 2.91566C10.1452 2.74561 10.3083 2.625 10.4988 2.625C10.6893 2.625 10.8515 2.74463 10.9288 2.91566C11.7521 4.8257 12.9874 7.69077 12.9874 7.69077C12.9874 7.69077 15.9684 8.03679 17.9563 8.27011C18.1354 8.29186 18.2939 8.41741 18.3523 8.60723C18.4108 8.79705 18.3523 8.99577 18.2203 9.12528C16.7435 10.5351 14.5246 12.6508 14.5246 12.6508C14.5246 12.6508 15.131 15.7284 15.5346 17.7828C15.5695 17.9676 15.5053 18.1644 15.3507 18.282C15.197 18.3997 14.9989 18.4016 14.8405 18.3107C13.1044 17.2736 10.4988 15.7155 10.4988 15.7155C10.4988 15.7155 7.89414 17.2736 6.15519 18.3097C5.99959 18.4016 5.80155 18.3997 5.64784 18.282C5.49318 18.1644 5.42906 17.9676 5.46301 17.7818C5.86662 15.7284 6.47393 12.6508 6.47582 12.6508C6.47582 12.6508 4.25687 10.5351 2.78008 9.12231C2.64806 8.99675 2.58865 8.79804 2.64806 8.60723C2.70747 8.41642 2.8659 8.29087 3.04508 8.26813Z" fill="white"/>
</svg>
