<svg width="24" height="24" viewBox="0 0 24 24" fill="none" xmlns="http://www.w3.org/2000/svg">
<path d="M11.9996 1.99902C17.5233 1.99902 22.0012 6.47687 22.0012 12.0006C22.0012 17.5243 17.5233 22.0021 11.9996 22.0021C6.4759 22.0021 1.99805 17.5243 1.99805 12.0006C1.99805 6.47687 6.4759 1.99902 11.9996 1.99902ZM11.9996 3.49902C7.30433 3.49902 3.49805 7.3053 3.49805 12.0006C3.49805 16.6959 7.30433 20.5021 11.9996 20.5021C16.6949 20.5021 20.5012 16.6959 20.5012 12.0006C20.5012 7.3053 16.6949 3.49902 11.9996 3.49902ZM8.46134 14.7839C9.31048 15.8616 10.6015 16.5021 11.9996 16.5021C13.3958 16.5021 14.6853 15.8633 15.5346 14.7881C15.7913 14.463 16.2629 14.4076 16.588 14.6644C16.913 14.9211 16.9684 15.3927 16.7117 15.7178C15.5809 17.1495 13.8598 18.0021 11.9996 18.0021C10.137 18.0021 8.41372 17.1472 7.28312 15.7122C7.02677 15.3869 7.08271 14.9153 7.40807 14.6589C7.73343 14.4026 8.205 14.4585 8.46134 14.7839ZM9.00005 8.75121C9.69002 8.75121 10.2494 9.31054 10.2494 10.0005C10.2494 10.6905 9.69002 11.2498 9.00005 11.2498C8.31009 11.2498 7.75076 10.6905 7.75076 10.0005C7.75076 9.31054 8.31009 8.75121 9.00005 8.75121ZM15.0001 8.75121C15.69 8.75121 16.2494 9.31054 16.2494 10.0005C16.2494 10.6905 15.69 11.2498 15.0001 11.2498C14.3101 11.2498 13.7508 10.6905 13.7508 10.0005C13.7508 9.31054 14.3101 8.75121 15.0001 8.75121Z" fill="#262262"/>
</svg>
