<svg width="34" height="27" viewBox="0 0 34 27" fill="none" xmlns="http://www.w3.org/2000/svg">
<path d="M26.3372 2H6.86743C4.19034 2 2 4.19034 2 6.86743V19.036C2 21.7131 4.19034 23.9034 6.86743 23.9034H26.3372C29.0143 23.9034 31.2046 21.7131 31.2046 19.036V6.86743C31.2046 4.19034 29.0143 2 26.3372 2ZM28.2841 9.05778L18.671 15.5071C18.0625 15.8722 17.3324 16.1156 16.6023 16.1156C15.8722 16.1156 15.1421 15.8722 14.5336 15.5071L4.92046 9.05778C4.43372 8.69272 4.31203 7.96261 4.67709 7.35418C5.04215 6.86743 5.77226 6.74575 6.38069 7.1108L15.9939 13.5602C16.3589 13.8035 16.9674 13.8035 17.3324 13.5602L26.9456 7.1108C27.554 6.74575 28.2841 6.86743 28.6492 7.47586C28.8926 7.96261 28.7709 8.69272 28.2841 9.05778Z" fill="#FF7500"/>
<path d="M20.0738 17.3011L20.0738 17.301L20.0665 17.3019C19.6557 17.3517 19.2785 17.6299 19.1369 18.0637C18.9941 18.5011 19.1397 18.9508 19.4463 19.23C20.0172 19.7509 20.7313 20.4013 21.3025 20.9213L21.9854 21.5426C21.937 21.7758 21.8718 22.0907 21.7979 22.4476C21.6414 23.204 21.4461 24.1495 21.2901 24.9064L21.2901 24.9064L21.2881 24.9167C21.2115 25.3169 21.3542 25.7621 21.7257 26.0325C22.0995 26.3051 22.5711 26.3012 22.9277 26.1002L22.9301 26.0989C23.6023 25.7168 24.4416 25.2387 25.1127 24.8561L25.9154 24.3984L26.7181 24.8562C27.389 25.2388 28.2277 25.717 28.8985 26.0992L28.8985 26.0993L28.9096 26.1054C29.2618 26.2982 29.7298 26.3064 30.1053 26.0328C30.4765 25.763 30.6217 25.3165 30.5418 24.9129L30.5418 24.9129L30.5407 24.9072C30.3847 24.15 30.1896 23.2044 30.0335 22.4481L29.8467 21.5435L30.5303 20.9217C31.1015 20.402 31.8154 19.7523 32.3861 19.2327L32.3861 19.2328L32.3935 19.2258C32.6914 18.9472 32.8379 18.503 32.6968 18.0659C32.5561 17.6301 32.1762 17.3507 31.7634 17.3029L31.7605 17.3026C30.9923 17.2166 30.0322 17.1098 29.2644 17.0246L28.3455 16.9226L27.9648 16.0804L26.9311 13.7931L26.9312 13.793L26.9253 13.7807C26.7517 13.4143 26.3755 13.1377 25.9154 13.1377C25.4574 13.1377 25.0737 13.4141 24.9023 13.7921L24.902 13.7928C24.5835 14.4967 24.1859 15.3766 23.8678 16.0805L23.4873 16.9226L22.569 17.0244L20.0738 17.3011Z" fill="#FF7500" stroke="white" stroke-width="1.5"/>
</svg>
