<svg width="25" height="25" viewBox="0 0 25 25" fill="none" xmlns="http://www.w3.org/2000/svg">
<path d="M9.68195 24.9364C9.6235 24.9364 9.56506 24.9364 9.50661 24.9131C5.02962 24.0013 1.39426 20.7049 0.0383021 16.3331C-0.101969 15.8656 0.155195 15.3746 0.611076 15.2343C1.07865 15.0941 1.5696 15.3512 1.70987 15.8071C2.87879 19.5711 5.99983 22.3999 9.85729 23.183C10.3365 23.2766 10.6405 23.7441 10.5353 24.2234C10.4534 24.6442 10.0794 24.9364 9.68195 24.9364Z" fill="#333333"/>
<path d="M24.1308 12.2504C23.6866 12.2504 23.3009 11.9114 23.2541 11.4672C22.693 5.92646 18.0641 1.75339 12.5 1.75339C6.92423 1.75339 2.30697 5.92646 1.74588 11.4555C1.69913 11.9347 1.27831 12.2971 0.787363 12.2387C0.308103 12.1919 -0.042575 11.7594 0.00418205 11.2801C0.658781 4.85105 6.03584 0 12.5 0C18.9758 0 24.3529 4.85105 24.9958 11.2801C25.0426 11.7594 24.6919 12.1919 24.2126 12.2387C24.1893 12.2504 24.1542 12.2504 24.1308 12.2504Z" fill="#333333"/>
<path d="M14.8495 24.898C14.4403 24.898 14.078 24.6174 13.9962 24.1966C13.9026 23.7173 14.2066 23.2615 14.6741 23.1679C18.5082 22.3848 21.6292 19.5793 22.8099 15.8388C22.9501 15.3712 23.4528 15.114 23.9087 15.266C24.3762 15.4063 24.6217 15.9089 24.4814 16.3648C23.1021 20.7132 19.4784 23.9745 15.0248 24.8863C14.9664 24.8863 14.9079 24.898 14.8495 24.898Z" fill="#333333"/>
<path d="M19 12.5C19 16.0899 16.0899 19 12.5 19C8.91015 19 6 16.0899 6 12.5C6 8.91015 8.91015 6 12.5 6C16.0899 6 19 8.91015 19 12.5ZM7.75793 12.5C7.75793 15.119 9.88103 17.2421 12.5 17.2421C15.119 17.2421 17.2421 15.119 17.2421 12.5C17.2421 9.88103 15.119 7.75793 12.5 7.75793C9.88103 7.75793 7.75793 9.88103 7.75793 12.5Z" fill="#333333"/>
</svg>
