<svg width="39" height="39" viewBox="0 0 39 39" fill="none" xmlns="http://www.w3.org/2000/svg">
<path d="M38.1816 17.4088L36.0309 16.936C35.6255 16.8471 35.3142 16.5283 35.2282 16.122C34.8877 14.5135 34.3076 12.9941 33.5243 11.6032C33.3327 11.2633 33.3448 10.8459 33.5553 10.5172L34.8705 8.46404C35.1382 8.0462 35.0789 7.49843 34.728 7.14751L32.5457 4.96504C32.1947 4.61412 31.6471 4.55489 31.2293 4.82244L29.3936 5.99781C29.0445 6.2213 28.5978 6.21833 28.2496 5.99308C26.9 5.11927 25.4108 4.44327 23.8227 4.00528C23.4457 3.90136 23.1575 3.59731 23.0738 3.21533L22.5547 0.838661C22.4484 0.353889 22.019 0 21.5228 0H18.4361C17.9398 0 17.5106 0.353889 17.4045 0.838661L16.934 2.98815C16.8458 3.39156 16.5298 3.70701 16.1265 3.79472C14.5227 4.14395 13.0089 4.73417 11.6239 5.52412C11.283 5.71831 10.8633 5.70877 10.5327 5.49715L8.45979 4.16971C8.04194 3.90233 7.49402 3.96171 7.14326 4.31247L4.96062 6.49518C4.6097 6.84594 4.55048 7.39395 4.81803 7.8118L6.03224 9.70795C6.25461 10.0551 6.25292 10.499 6.03096 10.8467C5.18227 12.176 4.52432 13.6387 4.09548 15.1964C3.99156 15.5738 3.68767 15.8626 3.30521 15.9466L0.836333 16.4862C0.351562 16.5927 0 17.022 0 17.5181V20.6047C0 21.1009 0.351562 21.5302 0.836333 21.6366L3.09352 22.1306C3.49588 22.2188 3.81012 22.5334 3.89904 22.9355C4.24434 24.4966 4.81859 25.9719 5.58254 27.3251C5.77481 27.6657 5.76454 28.0837 5.55357 28.413L4.16554 30.5813C3.89783 30.999 3.9573 31.5467 4.30822 31.8977L6.49085 34.0803C6.84177 34.4311 7.38946 34.4904 7.8073 34.2227L9.77656 32.9618C10.1245 32.739 10.5692 32.7415 10.9173 32.9645C12.2227 33.8006 13.6573 34.4526 15.1846 34.8841C15.5592 34.9899 15.845 35.2926 15.9282 35.6725L16.4819 38.184C16.5882 38.6687 17.0175 39 17.5136 39H20.6003C21.0966 39 21.5257 38.6687 21.6321 38.184L22.1287 35.9255C22.2174 35.521 22.535 35.2108 22.9398 35.1237C24.5057 34.7869 25.9867 34.2231 27.346 33.4657C27.6854 33.2764 28.1009 33.289 28.4284 33.4987L30.5766 34.8747C30.9945 35.1425 31.5423 35.0831 31.893 34.7324L34.0758 32.5498C34.4264 32.199 34.4858 31.6511 34.2184 31.2333L32.9961 29.325C32.7723 28.9752 32.7759 28.5275 33.002 28.1792C33.8632 26.8534 34.5333 25.392 34.974 23.8344C35.0801 23.4603 35.3828 23.1751 35.7622 23.0923L38.1814 22.559C38.6662 22.4528 38.9997 22.0234 38.9997 21.5273V18.4406C38.9999 17.9444 38.6664 17.5152 38.1816 17.4088ZM19.4122 31.7044C12.8097 31.7044 7.45711 26.3519 7.45711 19.7493C7.45711 13.1468 12.8097 7.79422 19.4122 7.79422C26.0148 7.79422 31.3672 13.1468 31.3672 19.7493C31.3672 26.3519 26.0148 31.7044 19.4122 31.7044Z" fill="#FF7500"/>
</svg>
