<svg width="26" height="26" viewBox="0 0 26 26" fill="none" xmlns="http://www.w3.org/2000/svg">
<path d="M24.1225 20.8804H22.3068V19.0647H23.2147V15.4333H19.5833V16.3411H17.7676V14.5254C17.7676 14.2846 17.8632 14.0537 18.0335 13.8835C18.2037 13.7132 18.4347 13.6176 18.6754 13.6176H24.1225C24.3633 13.6176 24.5942 13.7132 24.7645 13.8835C24.9347 14.0537 25.0304 14.2846 25.0304 14.5254V19.9725C25.0304 20.2133 24.9347 20.4442 24.7645 20.6145C24.5942 20.7847 24.3633 20.8804 24.1225 20.8804Z" fill="#333333"/>
<path d="M19.5837 25.4197H14.1366C13.8958 25.4197 13.6649 25.3241 13.4947 25.1538C13.3244 24.9835 13.2288 24.7526 13.2288 24.5118V19.0647C13.2288 18.824 13.3244 18.593 13.4947 18.4228C13.6649 18.2525 13.8958 18.1569 14.1366 18.1569H19.5837C19.8245 18.1569 20.0554 18.2525 20.2257 18.4228C20.3959 18.593 20.4916 18.824 20.4916 19.0647V24.5118C20.4916 24.7526 20.3959 24.9835 20.2257 25.1538C20.0554 25.3241 19.8245 25.4197 19.5837 25.4197ZM15.0445 23.604H18.6759V19.9726H15.0445V23.604Z" fill="#333333"/>
<path d="M11.413 16.2126C10.7569 16.0417 10.1619 15.6903 9.6955 15.1982C9.22911 14.7061 8.91006 14.093 8.77458 13.4287C8.6391 12.7644 8.69263 12.0754 8.92907 11.44C9.16551 10.8045 9.5754 10.2481 10.1122 9.83395C10.649 9.41978 11.2912 9.16443 11.9658 9.0969C12.6404 9.02936 13.3204 9.15236 13.9287 9.45192C14.5369 9.75148 15.049 10.2156 15.4067 10.7915C15.7644 11.3675 15.9534 12.0322 15.9523 12.7102H17.768C17.769 11.6715 17.4731 10.6541 16.9149 9.77799C16.3568 8.9019 15.5598 8.20367 14.6179 7.76563C13.6761 7.32758 12.6286 7.16798 11.599 7.30565C10.5694 7.44332 9.60061 7.87252 8.8069 8.54263C8.0132 9.21275 7.42765 10.0958 7.1193 11.0878C6.81095 12.0797 6.79266 13.1391 7.06659 14.1411C7.34051 15.1431 7.89523 16.0459 8.66533 16.743C9.43543 17.4401 10.3888 17.9025 11.413 18.0756V16.2126Z" fill="#333333"/>
<path d="M24.0231 10.4857L21.926 12.3286L20.6368 11.0395L22.8247 9.11482L20.6822 5.41079L17.5592 6.4639C16.8277 5.85498 15.9991 5.37318 15.108 5.03857L14.4634 1.8157H10.1784L9.53381 5.03857C8.63559 5.36383 7.80249 5.84648 7.07353 6.4639L3.9596 5.41079L1.81708 9.11482L4.28643 11.2846C4.11847 12.2243 4.11847 13.1864 4.28643 14.1262L1.81708 16.305L3.9596 20.009L7.08261 18.9559C7.81417 19.5648 8.64275 20.0467 9.53381 20.3813L10.1784 23.6041H11.4131V25.4198H10.1784C9.75857 25.4194 9.35187 25.2735 9.02746 25.007C8.70306 24.7405 8.48098 24.3699 8.399 23.9582L7.93599 21.6704C7.52497 21.4699 7.12767 21.2425 6.74671 20.9895L4.54063 21.734C4.35303 21.795 4.15688 21.8256 3.9596 21.8247C3.6407 21.8269 3.32699 21.7439 3.05088 21.5843C2.77478 21.4247 2.54629 21.1943 2.38902 20.9169L0.246495 17.2129C0.0345903 16.8488 -0.0441525 16.4224 0.0237526 16.0067C0.0916577 15.591 0.301985 15.2118 0.618713 14.9342L2.36179 13.409C2.34363 13.1729 2.33455 12.946 2.33455 12.7099C2.33455 12.4739 2.35271 12.2469 2.37087 12.0199L0.618713 10.4857C0.301985 10.208 0.0916577 9.82882 0.0237526 9.41311C-0.0441525 8.9974 0.0345903 8.57101 0.246495 8.20697L2.38902 4.50294C2.54629 4.2255 2.77478 3.99508 3.05088 3.83548C3.32699 3.67588 3.6407 3.59289 3.9596 3.59509C4.15688 3.59418 4.35303 3.62483 4.54063 3.68588L6.73763 4.43031C7.12171 4.1773 7.52203 3.94984 7.93599 3.74942L8.399 1.46164C8.48098 1.0499 8.70306 0.67928 9.02746 0.412805C9.35187 0.146329 9.75857 0.000457687 10.1784 0H14.4634C14.8833 0.000457687 15.29 0.146329 15.6144 0.412805C15.9388 0.67928 16.1608 1.0499 16.2428 1.46164L16.7058 3.74942C17.1169 3.94989 17.5142 4.17735 17.8951 4.43031L20.1012 3.68588C20.2888 3.62483 20.4849 3.59418 20.6822 3.59509C21.0011 3.59289 21.3148 3.67588 21.5909 3.83548C21.867 3.99508 22.0955 4.2255 22.2528 4.50294L24.3953 8.20697C24.6072 8.57101 24.686 8.9974 24.6181 9.41311C24.5502 9.82882 24.3398 10.208 24.0231 10.4857Z" fill="#333333"/>
</svg>
