<svg width="20" height="14" viewBox="0 0 20 14" fill="none" xmlns="http://www.w3.org/2000/svg">
<path d="M19.7938 3.00211C19.7938 3.00211 19.5987 1.63815 18.9994 1.03761C18.2388 0.250418 17.3869 0.24578 16.9963 0.201146C14.1981 6.91021e-08 10.0013 0 10.0013 0H9.99188C9.99188 0 5.795 6.91021e-08 2.9975 0.201146C2.60687 0.24578 1.75563 0.250418 0.994375 1.03761C0.395625 1.63815 0.2 3.00211 0.2 3.00211C0.2 3.00211 0 4.60258 0 6.20305V7.70324C0 9.30487 0.2 10.9048 0.2 10.9048C0.2 10.9048 0.395 12.2681 0.994375 12.8675C1.75563 13.6547 2.75375 13.6309 3.19875 13.7133C4.79813 13.8651 9.99687 13.9121 9.99687 13.9121C9.99687 13.9121 14.1981 13.9051 16.9963 13.7063C17.3869 13.6599 18.2388 13.6553 18.9994 12.8681C19.5981 12.2687 19.7938 10.9053 19.7938 10.9053C19.7938 10.9053 19.9937 9.30487 19.9937 7.70382V6.20363C19.9937 4.60258 19.7938 3.00211 19.7938 3.00211Z" fill="#262262"/>
</svg>
